<svg width="50" height="50" viewBox="0 0 50 50" fill="none" xmlns="http://www.w3.org/2000/svg">
<rect width="50" height="50" rx="25" fill="#FF274F"/>
<path d="M41.4576 22.4C44.1456 22.4 46.2096 24.448 46.2096 27.088C46.2096 29.744 44.1456 31.856 41.4576 31.856C38.7696 31.856 36.6896 29.744 36.6896 27.088C36.6896 24.448 38.7696 22.4 41.4576 22.4ZM41.4576 24.864C40.3056 24.864 39.4736 25.808 39.4736 27.088C39.4736 28.384 40.3056 29.392 41.4576 29.392C42.5776 29.392 43.4256 28.384 43.4256 27.088C43.4256 25.808 42.5776 24.864 41.4576 24.864Z" fill="white" stroke="white" stroke-width="0.5"/>
<path d="M32.2834 31.696H29.0514C28.0914 31.696 27.4514 31.056 27.4514 30.096V19.92C27.4514 18.96 28.0914 18.32 29.0514 18.32H32.2994C36.4274 18.32 38.6034 21.104 38.6034 24.992C38.6034 28.88 36.4274 31.696 32.2834 31.696ZM32.0594 20.848H30.2994V29.168H32.0594C34.7314 29.168 35.7554 27.52 35.7554 24.992C35.7554 22.464 34.7474 20.848 32.0594 20.848Z" fill="white" stroke="white" stroke-width="0.5"/>
<path d="M27.3851 27.024H21.9131C21.3971 27.024 21.0491 26.544 21.0491 26.052C21.0491 25.572 21.3971 25.104 21.9131 25.104H27.3851C27.9011 25.104 28.2491 25.56 28.2491 26.052C28.2491 26.532 27.9011 27.024 27.3851 27.024Z" fill="white" stroke="white" stroke-width="0.5"/>
<path d="M18.4202 22.4C21.1082 22.4 23.1722 24.448 23.1722 27.088C23.1722 29.744 21.1082 31.856 18.4202 31.856C15.7322 31.856 13.6522 29.744 13.6522 27.088C13.6522 24.448 15.7322 22.4 18.4202 22.4ZM18.4202 24.864C17.2682 24.864 16.4362 25.808 16.4362 27.088C16.4362 28.384 17.2682 29.392 18.4202 29.392C19.5402 29.392 20.3882 28.384 20.3882 27.088C20.3882 25.808 19.5402 24.864 18.4202 24.864Z" fill="white" stroke="white" stroke-width="0.5"/>
<path d="M8.80947 20.848H5.70547C5.01747 20.848 4.55347 20.24 4.55347 19.584C4.55347 18.944 5.01747 18.32 5.70547 18.32H14.8255C15.5135 18.32 15.9775 18.928 15.9775 19.584C15.9775 20.224 15.5135 20.848 14.8255 20.848H11.7215V30.544C11.7215 31.376 11.0655 31.904 10.2655 31.904C9.46547 31.904 8.80947 31.376 8.80947 30.544V20.848Z" fill="white" stroke="white" stroke-width="0.5"/>
</svg>
