<svg width="24" height="24" viewBox="0 0 24 24" fill="none" xmlns="http://www.w3.org/2000/svg">
<path d="M21.8453 15.7879V2L8.29014 5.05404V16.5532C7.62306 16.0762 6.75033 15.7872 5.79497 15.7872C3.69903 15.7872 2 17.1781 2 18.8936C2 20.6091 3.69903 22 5.79497 22C7.89091 22 9.58275 20.6149 9.58971 18.9043V9L20.5684 6.48936V13.7C19.9 13.2181 19.0226 12.9255 18.0617 12.9255C15.9657 12.9255 14.2667 14.3164 14.2667 16.0319C14.2667 17.7474 15.9657 19.1383 18.0617 19.1383C20.1576 19.1383 21.8566 17.7474 21.8566 16.0319C21.8566 15.9498 21.8527 15.8685 21.845 15.7879H21.8453Z" fill="#B1B1B1"/>
</svg>
