<svg width="24" height="24" viewBox="0 0 24 24" fill="none" xmlns="http://www.w3.org/2000/svg">
<g clip-path="url(#clip0_400_13316)">
<path d="M19.5 17.5H6.96512C5.88028 17.5 5.5 18.123 5.5 19.5C5.5 20.877 5.91516 21.5 7 21.5H19.5349C18.4517 21.5 17.5349 20.8792 17.5349 19.4979C17.5349 18.1166 18.4168 17.5 19.5 17.5Z" fill="#B1B1B1" fill-opacity="0.2"/>
<path d="M5.71466 19.5336C5.71466 18.5568 6.53207 17.7644 7.53944 17.7644H18.6435C20 17.7644 20 17 20 16.4181V3.3478C20 2 19 2 18.6435 2C15.59 2 15.7865 2 7.541 2C6.13816 2 5 3.1054 5 4.46635V19.5336C5 20.8931 6.13816 22 7.53944 22H19.6435C19.8412 22 20 21.8442 20 21.6537C20 21.4632 19.8412 21.3074 19.6435 21.3074H7.53944C6.53207 21.3074 5.71466 20.5135 5.71466 19.5352V19.5336Z" fill="#B1B1B1"/>
<path d="M14.8319 11.7671L12.3343 13.3223L12.3259 13.3275L12.3259 13.3275C12.1427 13.4366 11.9329 13.5 11.7134 13.5C11.4938 13.5 11.2841 13.4366 11.1009 13.3275L11.0945 13.3237L11.0883 13.3197C10.7162 13.083 10.5 12.6702 10.5 12.2304V7.77311V7.77021L10.5 7.77021C10.5026 7.32992 10.7172 6.91813 11.0919 6.68257C11.4767 6.43983 11.9511 6.43847 12.3364 6.68252L15.9068 8.91203C15.9071 8.91221 15.9074 8.91238 15.9077 8.91256C16.2848 9.14682 16.4994 9.56215 16.5 10.0009L14.8319 11.7671ZM14.8319 11.7671H14.8368L14.9591 11.6899L15.9076 11.0911C16.2916 10.8546 16.4994 10.4368 16.5 10.0026L14.8319 11.7671Z" fill="white" stroke="#B1B1B1"/>
</g>
<defs>
<clipPath id="clip0_400_13316">
<rect width="15" height="20" fill="white" transform="translate(5 2)"/>
</clipPath>
</defs>
</svg>
