<svg width="24" height="24" viewBox="0 0 24 24" fill="none" xmlns="http://www.w3.org/2000/svg">
<g clip-path="url(#clip0_400_13308)">
<path d="M12.0007 3C7.03694 3 3 7.03694 3 12.0007C3 16.9644 7.03694 21.0014 12.0007 21.0014C16.9644 21.0014 21.0014 16.9644 21.0014 12.0007C21.0014 7.03694 16.9631 3 12.0007 3ZM16.366 12.7769L14.7241 13.7294L14.7214 13.7322L10.2149 16.3239C10.0738 16.4054 9.92047 16.4447 9.76849 16.4447C9.61651 16.4447 9.4591 16.4054 9.32069 16.3239C9.04116 16.1625 8.8729 15.8721 8.8729 15.5478V8.4536C8.8729 8.12929 9.04116 7.84161 9.32069 7.67878C9.60023 7.5173 9.93539 7.5173 10.2149 7.67878L16.3633 11.2286C16.6442 11.3901 16.8097 11.6791 16.8097 12.0007C16.8097 12.3223 16.6442 12.6127 16.366 12.7769Z" fill="#B1B1B1"/>
</g>
<defs>
<clipPath id="clip0_400_13308">
<rect width="18" height="18" fill="white" transform="translate(3 3)"/>
</clipPath>
</defs>
</svg>
