<svg width="477" height="121" viewBox="0 0 477 121" fill="none" xmlns="http://www.w3.org/2000/svg">
<path d="M37.3275 12.2557L37.0297 12.2928L36.9224 12.573C35.3252 16.7408 34.4709 22.8215 34.5698 29.4058C34.6688 35.9966 35.7234 43.1371 37.9785 49.4325C40.2315 55.7218 43.7013 61.2174 48.6651 64.4446C53.6523 67.6869 60.0745 68.592 68.1073 65.8328C72.1275 64.4519 74.9965 62.5289 76.8697 60.1965C78.7467 57.8594 79.5967 55.1445 79.6324 52.2348C79.7035 46.4455 76.5546 39.8816 71.8923 33.8082C67.2189 27.7203 60.9691 22.0521 54.7143 18.0472C48.4841 14.0581 42.149 11.6555 37.3275 12.2557Z" fill="#207D37" stroke="#0A4E1B"/>
<path d="M39.7995 14.9549C34.2627 29.4034 36.4334 71.005 67.1818 64.1443C97.9301 57.2835 58.2622 14.185 39.7995 14.9549Z" fill="#249D4D"/>
<path d="M70.0934 35.9406C69.9168 34.6139 63.6698 28.9527 60.5684 26.2879C55.3338 22.0206 59.7876 28.3774 62.8434 31.4454C66.5102 35.1267 70.2701 37.2672 70.0934 35.9406Z" fill="#42D56C"/>
<path d="M68.9418 64.7678C66.5765 58.4307 61.1833 45.7691 57.1887 41.929C56.8194 41.626 56.4784 41.3601 56.1711 41.1313C56.4975 41.3223 56.8377 41.5916 57.1887 41.929C61.0764 45.1192 68.0915 52.4235 71.7296 63.7909L68.9418 64.7678Z" fill="#207D37"/>
<path d="M11.3882 67.3425C11.2827 67.4377 11.2226 67.5732 11.223 67.7153C11.2235 67.8574 11.2843 67.9926 11.3904 68.0871C24.5458 79.8117 43.0803 86.0274 55.8954 85.8088C62.2733 85.7 67.4226 83.9901 69.6574 80.345C71.9165 76.6603 71.0334 71.2971 66.0801 64.3154C62.081 58.6788 57.3649 55.3815 52.3479 53.7916C47.3376 52.2038 42.0634 52.3299 36.9563 53.4778C26.7551 55.7709 17.1342 62.1598 11.3882 67.3425Z" fill="#207D37" stroke="#0A4E1B" stroke-linejoin="round"/>
<path d="M15.0639 67.7141C27.8431 55.0205 51.6694 46.5741 64.9798 65.191C78.6347 84.2897 43.086 88.4771 15.0639 67.7141Z" fill="#249D4D"/>
<path d="M45.5988 55.4622C41.7456 54.7297 34.8652 56.5436 31.9066 57.5422C31.3443 59.3494 37.3128 58.5927 40.3673 57.9884C43.7166 57.4516 49.452 56.1947 45.5988 55.4622Z" fill="#42D56C"/>
<path d="M65.278 64.7006C60.8023 62.7833 50.3279 63.3284 46.6733 65.4707C54.2599 64.0417 62.124 65.4683 67.5163 68.7495L65.278 64.7006Z" fill="#207D37"/>
<path d="M439.341 12.2557L439.639 12.2928L439.747 12.573C441.344 16.7408 442.198 22.8215 442.099 29.4058C442 35.9966 440.946 43.1371 438.69 49.4325C436.437 55.7218 432.968 61.2174 428.004 64.4446C423.017 67.6869 416.594 68.592 408.562 65.8328C404.541 64.4519 401.672 62.5289 399.799 60.1965C397.922 57.8594 397.072 55.1445 397.037 52.2348C396.965 46.4455 400.114 39.8816 404.777 33.8082C409.45 27.7203 415.7 22.0521 421.955 18.0472C428.185 14.0581 434.52 11.6555 439.341 12.2557Z" fill="#207D37" stroke="#0A4E1B"/>
<path d="M436.869 14.9549C442.406 29.4034 440.236 71.005 409.487 64.1443C378.739 57.2835 418.407 14.185 436.869 14.9549Z" fill="#249D4D"/>
<path d="M406.575 35.9406C406.752 34.6139 412.999 28.9527 416.101 26.2879C421.335 22.0206 416.881 28.3774 413.826 31.4454C410.159 35.1267 406.399 37.2672 406.575 35.9406Z" fill="#42D56C"/>
<path d="M407.727 64.7678C410.092 58.4307 415.486 45.7691 419.48 41.929C419.85 41.626 420.191 41.3601 420.498 41.1313C420.171 41.3223 419.831 41.5916 419.48 41.929C415.593 45.1192 408.577 52.4235 404.939 63.7909L407.727 64.7678Z" fill="#207D37"/>
<path d="M465.281 67.3425C465.386 67.4377 465.446 67.5732 465.446 67.7153C465.445 67.8574 465.385 67.9926 465.279 68.0871C452.123 79.8117 433.589 86.0274 420.774 85.8088C414.396 85.7 409.246 83.9901 407.012 80.345C404.752 76.6603 405.636 71.2971 410.589 64.3154C414.588 58.6788 419.304 55.3815 424.321 53.7916C429.331 52.2038 434.606 52.3299 439.713 53.4778C449.914 55.7709 459.535 62.1598 465.281 67.3425Z" fill="#207D37" stroke="#0A4E1B" stroke-linejoin="round"/>
<path d="M461.605 67.7141C448.826 55.0205 425 46.5741 411.689 65.191C398.034 84.2897 433.583 88.4771 461.605 67.7141Z" fill="#249D4D"/>
<path d="M431.07 55.4622C434.923 54.7297 441.804 56.5436 444.762 57.5422C445.325 59.3494 439.356 58.5927 436.302 57.9884C432.952 57.4516 427.217 56.1947 431.07 55.4622Z" fill="#42D56C"/>
<path d="M411.391 64.7006C415.867 62.7833 426.341 63.3284 429.996 65.4707C422.409 64.0417 414.545 65.4683 409.153 68.7495L411.391 64.7006Z" fill="#207D37"/>
<path d="M70.9167 49.2939C151.471 39.9327 220.854 38.1355 245.604 38.6442C350.569 40.6793 397.152 48.3107 407.323 51.872L411.391 60.521V64.5911L404.272 103.766C403.051 112.72 391.897 113.263 386.472 112.415H291.882L245.604 119.537C220.787 109.362 123.382 112.584 77.7822 115.467C68.018 113.025 62.5257 77.8189 61 60.521L70.9167 49.2939Z" fill="#C17633"/>
<path d="M245.542 41.6436L245.546 41.6437C297.968 42.66 335.772 45.0733 361.712 47.6709C385.88 50.091 399.552 52.654 405.163 54.3279L408.391 61.1914V64.3207L401.32 103.229L401.308 103.295L401.299 103.361C400.898 106.306 398.979 107.974 396.041 108.907C392.998 109.873 389.351 109.828 386.936 109.451L386.705 109.415H386.472H291.882H291.652L291.426 109.45L245.949 116.449C239.194 113.89 228.377 112.254 215.567 111.213C202.124 110.121 186.111 109.659 169.496 109.606C136.54 109.5 101.044 111.003 78.1733 112.437C77.7643 112.251 77.2228 111.868 76.5678 111.128C75.722 110.171 74.8389 108.786 73.9509 106.968C72.1748 103.331 70.5855 98.3964 69.2141 92.8456C66.6117 82.3129 64.9141 70.0682 64.1055 61.5368L72.4041 52.1417C152.35 42.9099 221.059 41.1403 245.542 41.6436Z" fill="#C17633" stroke="#AA612A" stroke-width="6"/>
<path d="M62.2391 60.4503L70.9169 50.5335C76.7018 46.8148 208.563 38.1526 251.122 38.5658C293.682 38.979 402.251 47.0903 405.658 52.2013C408.137 55.9201 404.143 56.7465 401.939 55.9201C384.75 49.6395 294.646 45.3147 251.122 43.9373C209.472 40.9623 115.955 49.7071 73.8092 54.2523L67.1981 61.6899C62.2397 66.6482 61.9637 62.5162 62.2391 60.4503Z" fill="#CD915C"/>
<path d="M86.0089 78.2178L63.4788 78.631L64.3052 82.3497L86.0089 78.2178Z" fill="#CD915C"/>
<path d="M86.0082 78.2178H63.0656L63.8 80.697L86.0082 78.2178Z" fill="#732D00"/>
<path d="M388.252 64.1691L410.782 64.5823L409.955 68.301L388.252 64.1691Z" fill="#CD915C"/>
<path d="M388.253 64.1691H411.195L410.461 66.6483L388.253 64.1691Z" fill="#732D00"/>
<path d="M82.4869 98.8776L68.691 99.3734L70.0904 103.423L82.4869 98.8776Z" fill="#CD915C"/>
<path d="M82.486 98.8776H68.4375L68.8872 101.853L82.486 98.8776Z" fill="#732D00"/>
<path d="M391.558 93.0928L405.354 93.5886L404.78 97.2247L391.558 93.0928Z" fill="#CD915C"/>
<path d="M391.559 93.0928H405.607L405.158 96.0678L391.559 93.0928Z" fill="#732D00"/>
<path d="M69.9733 50.4662C69.9733 45.0947 221.15 38.0681 245.9 38.5769C350.865 40.612 397.448 48.2434 407.619 51.8047L411.687 60.4537V64.5238L404.568 103.699C403.347 112.653 394.037 112.347 386.768 112.347H292.178L245.9 119.47C221.083 109.295 123.678 112.517 78.0781 115.4C68.314 112.958 59.2303 61.6226 61.296 60.4537L69.9733 50.4662Z" stroke="#732D00" stroke-width="2" stroke-linejoin="round"/>
<path d="M74.6359 53.4259C70.0081 53.7565 71.6058 51.6354 72.9831 50.5335C74.3056 49.5418 81.7978 48.743 85.3786 48.4675C86.756 48.4675 89.5106 48.7981 89.5106 50.1203C89.5106 51.4425 87.8578 52.0486 87.0314 52.1863C84.8278 52.4618 79.2637 53.0953 74.6359 53.4259Z" fill="#FDBE6F"/>
<path d="M385.773 49.7071C386.434 48.7154 389.63 48.8807 391.145 49.2939C394.037 49.8448 399.409 50.1203 400.235 52.5995C401.061 55.0787 397.618 54.5277 396.516 54.2523C394.313 53.8391 389.574 52.93 388.252 52.5995C386.599 52.1863 384.947 50.9467 385.773 49.7071Z" fill="#FDBE6F"/>
<circle cx="90.337" cy="79.4573" r="8.02435" fill="#CD915C" stroke="url(#paint0_linear_301_4532)" stroke-width="2"/>
<ellipse cx="90.337" cy="79.4573" rx="7.02435" ry="7.85075" fill="url(#paint1_linear_301_4532)"/>
<path d="M92.7431 77.1831L87.8944 81.9694" stroke="#595959" stroke-width="2" stroke-linecap="round" stroke-linejoin="round"/>
<path d="M87.8944 77.1831L92.7431 81.9694" stroke="#595959" stroke-width="2" stroke-linecap="round" stroke-linejoin="round"/>
<path d="M97.4509 79.9366C97.4875 79.7853 97.5166 79.6312 97.5381 79.4746C97.9603 76.3916 95.3771 72.5269 91.577 72.0197C87.7769 71.5126 83.7986 74.5774 83.3764 77.6603C83.3549 77.817 83.3415 77.9732 83.3362 78.1286C84.0198 75.3022 87.534 73.325 91.1409 73.8064C94.7478 74.2878 97.5521 77.0324 97.4509 79.9366Z" fill="white"/>
<circle cx="90.337" cy="79.4573" r="7.35075" stroke="#7D624F"/>
<circle cx="383.707" cy="79.4573" r="8.02435" fill="#CD915C" stroke="url(#paint2_linear_301_4532)" stroke-width="2"/>
<ellipse cx="383.707" cy="79.4573" rx="7.02435" ry="7.85075" fill="url(#paint3_linear_301_4532)"/>
<path d="M386.113 77.1831L381.264 81.9694" stroke="#595959" stroke-width="2" stroke-linecap="round" stroke-linejoin="round"/>
<path d="M381.264 77.1831L386.113 81.9694" stroke="#595959" stroke-width="2" stroke-linecap="round" stroke-linejoin="round"/>
<path d="M390.821 79.9366C390.858 79.7853 390.887 79.6312 390.908 79.4746C391.33 76.3916 388.747 72.5269 384.947 72.0197C381.147 71.5126 377.169 74.5774 376.746 77.6603C376.725 77.817 376.712 77.9732 376.706 78.1286C377.39 75.3022 380.904 73.325 384.511 73.8064C388.118 74.2878 390.922 77.0324 390.821 79.9366Z" fill="white"/>
<circle cx="383.707" cy="79.4573" r="7.35075" stroke="#7D624F"/>
<defs>
<linearGradient id="paint0_linear_301_4532" x1="90.337" y1="72.433" x2="90.337" y2="86.4817" gradientUnits="userSpaceOnUse">
<stop offset="0.415" stop-color="#945014"/>
<stop offset="1" stop-color="#FDBE6F"/>
</linearGradient>
<linearGradient id="paint1_linear_301_4532" x1="90.337" y1="71.6066" x2="90.337" y2="87.3081" gradientUnits="userSpaceOnUse">
<stop offset="0.333333" stop-color="#D6D9DE"/>
<stop offset="1" stop-color="#91999C"/>
</linearGradient>
<linearGradient id="paint2_linear_301_4532" x1="383.707" y1="72.433" x2="383.707" y2="86.4817" gradientUnits="userSpaceOnUse">
<stop offset="0.415" stop-color="#945014"/>
<stop offset="1" stop-color="#FDBE6F"/>
</linearGradient>
<linearGradient id="paint3_linear_301_4532" x1="383.707" y1="71.6066" x2="383.707" y2="87.3081" gradientUnits="userSpaceOnUse">
<stop offset="0.333333" stop-color="#D6D9DE"/>
<stop offset="1" stop-color="#91999C"/>
</linearGradient>
</defs>
</svg>
