<svg width="1038" height="201" viewBox="0 0 1038 201" fill="none" xmlns="http://www.w3.org/2000/svg">
<rect x="1" y="1" width="1036" height="199" rx="19" fill="#C17633" stroke="#732D00" stroke-width="2"/>
<path d="M8.47091 170.672V158L0.276284 162.163C-0.0879264 169.695 -0.379295 170.196 1.36892 182.565C3.11713 194.934 11.5668 196.837 15.5731 196.243C348.644 195.648 1016.86 194.34 1025.16 193.864C1033.47 193.388 1036.64 186.53 1037.18 183.16V163.757L1027.9 159V173.05C1027.9 176.618 1025.16 180.781 1013.15 180.781H25.4067C11.421 180.781 8.2888 174.041 8.47091 170.672Z" fill="#AA612A"/>
<path d="M1029.26 153.121C1029.26 155.024 1024.89 156.5 1022.7 156.5L1036.91 157.284V51.6301H1020.52C1025.33 52.1059 1028.35 56.5857 1029.26 58.7662V153.121Z" fill="#AA612A"/>
<path d="M1029.4 42.1686C1028.52 47.8775 1023.57 48.9083 1021.2 48.7101L1036.5 51.6834V15.7041C1036.06 9.51953 1030.49 5.99112 1027.76 5L1007 9.16272C1020.55 9.16272 1027.58 17.0917 1029.4 21.0562C1029.76 29.3817 1030.27 36.4598 1029.4 42.1686Z" fill="#AA612A"/>
<path d="M8.35265 26.1657C8.35265 10.942 15.6369 3.56805 19.279 1.78403C9.50006 0.5 2.09269 12.1479 1.00006 17.5L1.25055 47.568L8.35265 44V26.1657Z" fill="#AA612A"/>
<path d="M8.74102 151.5L8.74103 46L1.63893 47L1.63892 155.5L14.7505 154.5C9.94292 154.1 8.74102 152.333 8.74102 151.5Z" fill="#AA612A"/>
<path d="M0 172.456V181.97C0 192.48 7.82703 201 17.4821 201H1020.52C1030.17 201 1038 192.48 1038 181.97V172.456C1038 182.965 1030.17 191.485 1020.52 191.485H17.4821C7.82703 191.485 0 182.965 0 172.456Z" fill="#82400E"/>
<path d="M1.25055 29.7338V20.219C2.00006 10 7.50006 3 15.8977 1.18938L1018.33 1.18938C1030.5 2 1036.75 8.92015 1036.75 20.219V29.7338C1036.75 19.224 1027.99 10.7042 1018.33 10.7042H19.6678C10.0127 10.7042 1.25055 19.224 1.25055 29.7338Z" fill="#CD915C"/>
<path d="M26.2233 42.4971H2.91378L0.728516 48.4438L26.2233 42.4971Z" fill="#CD915C"/>
<path d="M26.2232 42.4971H1.09265V46.0651L26.2232 42.4971Z" fill="#732D00"/>
<path d="M996.48 48.2781H1033.77L1037.27 54L996.48 48.2781Z" fill="#CD915C"/>
<path d="M996.48 48.2781H1036.69V51.7112L996.48 48.2781Z" fill="#732D00"/>
<path d="M15.2968 153.965H1.31116L0 163.479L15.2968 153.965Z" fill="#CD915C"/>
<path d="M15.2968 153.965H1.69965L0 159.911L15.2968 153.965Z" fill="#732D00"/>
<path d="M1015.05 156H1036.03L1036.91 162.503L1015.05 156Z" fill="#CD915C"/>
<path d="M1015.05 156H1036.91V158.89L1015.05 156Z" fill="#732D00"/>
<rect x="1" y="1" width="1036" height="199" rx="19" stroke="#732D00" stroke-width="2"/>
<path d="M341.994 103H769.213C721.745 99.2269 569.844 93.9446 341.994 103Z" fill="#AF6327"/>
<path d="M652.301 159H976.812C940.756 155.227 825.374 149.945 652.301 159Z" fill="#AF6327"/>
<path d="M44.8868 129H309.53C280.125 125.227 186.03 119.945 44.8868 129Z" fill="#AF6327"/>
<path d="M13.1111 7.5C13.1111 6.11929 14.2304 5 15.6111 5H24.8153C26.196 5 27.3153 6.11929 27.3153 7.5C27.3153 8.88071 26.196 10 24.8153 10H15.6111C14.2304 10 13.1111 8.88071 13.1111 7.5Z" fill="#FDBE6F"/>
<path d="M15.8433 10L15.8434 10C18.0288 8.16667 22.0877 5 16.3892 5C11.4724 5 8.74218 7.99998 7.64867 9.5C6.01068 11.747 6.45067 14.6758 8.74035 12.9999C11.4727 11 13.6581 10.5 15.8433 10Z" fill="#FFC37C"/>
<rect x="988" y="3" width="22" height="5" rx="2.5" fill="#FFC37C"/>
</svg>
