<svg width="72" height="80" viewBox="0 0 72 80" fill="none" xmlns="http://www.w3.org/2000/svg">
<path opacity="0.5" d="M35 79L34 79L34 78L34 2L34 1L35 1L60 0.999998C66.0751 0.999997 71 5.92486 71 12L71 68C71 74.0751 66.0751 79 60 79L35 79Z" fill="#D9D9D9" stroke="url(#paint0_linear_94_16163)" stroke-width="2"/>
<rect y="2" width="70" height="76" rx="10" fill="#C17633"/>
<path d="M4.50006 63.5V51H1L0.5 68C1.3 74.8 6.16667 76.5 8.5 76.5C21.1667 76.3333 48.5 76.1 56.5 76.5C64.5 76.9 68.1667 73 69 71V49.5H65V64.5C65 70.1 58.3333 71.1667 55 71H14.0001C5.60006 71 4.16673 66 4.50006 63.5Z" fill="#C17633"/>
<path fill-rule="evenodd" clip-rule="evenodd" d="M1 62.9333V67C1 72.5229 5.47715 77 11 77H59C64.5228 77 69 72.5229 69 67V16C69 14.4297 68.638 12.9439 67.993 11.6215C67.9976 11.7471 68 11.8732 68 12V62.9333C68 68.4562 63.5228 72.9333 58 72.9333H11C5.47715 72.9333 1 68.4562 1 62.9333Z" fill="#904913"/>
<path d="M4.00001 13C4.00001 6.6 7.33334 4 9.00001 3.5C3.80002 3.5 1.83334 8.5 1.5 11V30C3.5 30 9.5 30 17.5 29C7.5 28 4.00001 27.5 4.00001 25V13Z" fill="#C17633"/>
<path d="M5.5 31C5.22989 31.081 5.00794 31.0596 4.82562 30.9941C4.52851 30.9888 4.25785 30.9802 4.01131 30.9694C3.98408 31.4796 4.00001 32.5215 4.00001 34.5V46.5C4.00001 49 4.5 50 12 51C4 52 3.5 51.5 1.5 51.5V32.5C1.79651 30.2763 0.616067 30.8217 4.01131 30.9694C4.05789 30.0969 4.23075 30.7803 4.82562 30.9941C5.03678 30.9979 5.2613 31 5.5 31Z" fill="#C17633"/>
<path d="M65.5 25.5L59.5 27L69.5 27.5V11.5C68.3 4.7 62 3 59 3L51.5 4C61.5 4 65 10.3333 65.5 13.5V25.5Z" fill="#C17633"/>
<path fill-rule="evenodd" clip-rule="evenodd" d="M2 18V12C2 6.47715 6.47715 2 12 2H58C63.5228 2 68 6.47715 68 12V18C68 12.4772 63.5228 8 58 8H12C6.47715 8 2 12.4772 2 18Z" fill="#DA8F34"/>
<path d="M48 6C48 5.44772 48.4477 5 49 5H55C55.5523 5 56 5.44772 56 6C56 6.55228 55.5523 7 55 7H49C48.4477 7 48 6.55228 48 6Z" fill="#FFC37C"/>
<path d="M65 45V29L69 30V49L54 48C59.2 47.6 64.1667 45.8333 65 45Z" fill="#C17633"/>
<path d="M1 12C1 7.02944 5.02944 3 10 3H60C64.9706 3 69 7.02944 69 12V68C69 72.9706 64.9706 77 60 77H10C5.02944 77 1 72.9706 1 68V12Z" stroke="#732D00" stroke-width="2"/>
<path d="M19 29L2 33.5V30L19 29Z" fill="#CD915C"/>
<path d="M48.9999 48L68 52V48.5L48.9999 48Z" fill="#CD915C"/>
<path d="M13 51L2 55V51.5L13 51Z" fill="#CD915C"/>
<path d="M57 27L68 31V28L57 27Z" fill="#CD915C"/>
<path d="M19.5 29L2 28L1 31L19.5 29Z" fill="#732D00"/>
<path d="M48 48L69.5 47V50L48 48Z" fill="#732D00"/>
<path d="M13 51L1.64865 50L1 53L13 51Z" fill="#732D00"/>
<path d="M57 27L68.3514 26L69 29L57 27Z" fill="#732D00"/>
<path d="M18 40.0115L17.9999 40.0001L18.0001 39.9886C18.0232 37.9947 19.2796 36.0197 21.0046 34.2213C22.7617 32.3895 25.1664 30.5744 27.826 28.8937C30.4762 27.214 33.4231 25.6262 36.1496 24.4744L36.1495 24.4744L36.1546 24.4722C37.507 23.9097 38.8451 23.4374 40.0527 23.1895C41.2229 22.9493 42.4279 22.8852 43.4234 23.3106C44.4895 23.729 45.2183 24.6134 45.7312 25.663C46.2463 26.7168 46.5958 28.0398 46.8548 29.5119L46.8553 29.5145C47.3646 32.4544 47.5504 36.2508 47.5555 39.9988L47.5555 40.0016C47.5504 43.7497 47.3646 47.546 46.8553 50.486L46.8548 50.4886C46.5958 51.9606 46.2463 53.2837 45.7312 54.3375C45.2182 55.3871 44.4894 56.2716 43.4232 56.69C42.428 57.1146 41.2231 57.0507 40.0528 56.8106C38.8453 56.5628 37.5071 56.0908 36.1546 55.5282L36.1546 55.5282L36.1491 55.5259C33.4242 54.3732 30.4778 52.7867 27.8258 51.1083C25.1664 49.4275 22.7613 47.6122 21.004 45.78C19.279 43.9815 18.0225 42.0061 18 40.0115Z" fill="#732D00" stroke="url(#paint1_linear_94_16163)" stroke-width="2"/>
<path d="M21 40.1614C21.0318 42.9934 24.6289 46.3091 29.2593 49.2446C31.5664 50.7092 34.1236 52.0894 36.4762 53.0876C38.8205 54.0658 40.9602 54.661 42.2165 54.1139C43.5466 53.5994 44.2643 51.8317 44.7101 49.2909C45.1468 46.7628 45.3105 43.4617 45.3151 40.1614C45.3105 36.8611 45.1468 33.5599 44.7101 31.0318C44.2643 28.491 43.5466 26.7234 42.2165 26.2089C40.9602 25.6608 38.8205 26.257 36.4762 27.2352C34.1227 28.2324 31.5655 29.6135 29.2603 31.079C24.6289 34.0145 21.0327 37.3302 21 40.1614Z" fill="#CC9D0E"/>
<g style="mix-blend-mode:multiply" opacity="0.5">
<path d="M21 40.296C21.0318 43.1281 24.6289 46.4438 29.2593 49.3793C31.5664 50.8439 34.1236 52.224 36.4762 53.2222C38.8205 54.2004 40.9602 54.7957 42.2165 54.2485C43.5466 53.734 44.2643 51.9663 44.7101 49.4256C45.1468 46.8975 45.3105 43.5963 45.3151 40.296C45.3105 36.9957 45.1468 33.6945 44.7101 31.1664C44.2643 28.6257 43.5466 26.858 42.2165 26.3435C40.9602 25.7954 38.8205 26.3916 36.4762 27.3698C34.1227 28.3671 31.5655 29.7481 29.2603 31.2136C24.6289 34.1491 21.0327 37.4649 21 40.296Z" fill="#0ECC70"/>
</g>
<path d="M22.481 39.4738C22.5101 41.9983 25.8142 44.9546 30.0672 47.5716C32.1859 48.8774 34.5348 50.1079 36.6963 50.998C38.8496 51.8701 40.8156 52.4009 41.9691 51.9127C43.1908 51.4545 43.8504 49.8783 44.2598 47.6134C44.661 45.3593 44.8111 42.4166 44.8156 39.4738C44.8111 36.531 44.661 33.5883 44.2598 31.3351C43.8504 29.0702 43.1908 27.494 41.9691 27.0358C40.8156 26.5476 38.8496 27.0784 36.6963 27.9505C34.5348 28.8397 32.1859 30.0702 30.0681 31.3769C25.8142 33.9939 22.5101 36.9494 22.481 39.4747V39.4738Z" fill="#0ECC70"/>
<g style="mix-blend-mode:screen" opacity="0.5">
<path d="M44.7556 36.4848C39.9258 43.1734 33.0192 46.5236 24.4778 43.2686C23.2424 41.962 22.4946 40.6698 22.4801 39.4747C22.5092 36.9503 25.8133 33.9939 30.0672 31.3769C32.185 30.0702 34.5339 28.8397 36.6954 27.9505C38.8487 27.0784 40.8146 26.5476 41.9682 27.0358C43.1899 27.494 43.8495 29.0702 44.2588 31.3351C44.5227 32.8188 44.6782 34.601 44.7546 36.4848H44.7556Z" fill="#0CBB66"/>
</g>
<g style="mix-blend-mode:multiply" opacity="0.2">
<path d="M28.7844 46.7522C37.1284 50.0035 42.5122 49.2095 44.7747 41.9674C44.7064 44.0336 44.5472 46 44.2607 47.6134C43.8513 49.8783 43.1917 51.4545 41.97 51.9127C40.8165 52.4009 38.8505 51.8701 36.6972 50.9981C34.5357 50.1088 32.1868 48.8774 30.0681 47.5716C29.6296 47.3021 29.2011 47.0281 28.7854 46.7522H28.7844Z" fill="#13B164"/>
</g>
<g style="mix-blend-mode:overlay" opacity="0.3">
<path d="M21 40.296C21.0318 43.1281 24.6289 46.4438 29.2593 49.3793C31.5664 50.8439 34.1236 52.224 36.4762 53.2222C38.8205 54.2004 40.9602 54.7957 42.2165 54.2485C43.5466 53.734 44.2643 51.9663 44.7101 49.4256C45.1468 46.8975 45.3105 43.5963 45.3151 40.296C45.3105 36.9957 45.1468 33.6945 44.7101 31.1664C44.2643 28.6257 43.5466 26.858 42.2165 26.3435C40.9602 25.7954 38.8205 26.3916 36.4762 27.3698C34.1227 28.3671 31.5655 29.7481 29.2603 31.2136C24.6289 34.1491 21.0327 37.4649 21 40.296Z" fill="#0ECC70"/>
</g>
<mask id="mask0_94_16163" style="mask-type:luminance" maskUnits="userSpaceOnUse" x="22" y="26" width="23" height="27">
<path d="M22.481 39.4738C22.5101 41.9983 25.8142 44.9546 30.0672 47.5716C32.1859 48.8774 34.5348 50.1079 36.6963 50.998C38.8496 51.8701 40.8156 52.4009 41.9691 51.9127C43.1908 51.4545 43.8504 49.8783 44.2598 47.6134C44.661 45.3593 44.8111 42.4166 44.8156 39.4738C44.8111 36.531 44.661 33.5883 44.2598 31.3351C43.8504 29.0702 43.1908 27.494 41.9691 27.0358C40.8156 26.5476 38.8496 27.0784 36.6963 27.9505C34.5348 28.8397 32.1859 30.0702 30.0681 31.3769C25.8142 33.9939 22.5101 36.9494 22.481 39.4747V39.4738Z" fill="white"/>
</mask>
<g mask="url(#mask0_94_16163)">
<path style="mix-blend-mode:overlay" opacity="0.3" d="M34.513 54.3827C26.2973 54.3827 19.6372 47.7394 19.6372 39.5446C19.6372 31.3497 26.2973 24.7064 34.513 24.7064C42.7287 24.7064 49.3888 31.3497 49.3888 39.5446C49.3888 47.7394 42.7287 54.3827 34.513 54.3827Z" fill="url(#paint2_radial_94_16163)"/>
</g>
<path d="M43.4192 30.0621C44.2734 32.3806 42.947 33.3769 42.2147 33.112C41.002 32.6728 40.1533 29.0077 40.7728 28.4478C41.5551 27.7409 42.8324 28.4687 43.4192 30.0612V30.0621Z" fill="white"/>
<path opacity="0.7" d="M27.7164 34.3197C25.3066 35.9975 25.322 37.0138 25.9916 36.9322C27.0996 36.797 30.5984 34.0565 30.6676 33.5085C30.7549 32.8161 29.3721 33.1673 27.7164 34.3197Z" fill="white"/>
<path opacity="0.7" d="M23.8156 38.1146C23.1633 38.8641 23.6746 39.561 24.0457 39.6154C24.6598 39.7062 25.4567 38.4095 25.2284 38.0456C24.94 37.5864 24.2641 37.5991 23.8165 38.1136L23.8156 38.1146Z" fill="white"/>
<defs>
<linearGradient id="paint0_linear_94_16163" x1="52.5" y1="78" x2="52.5" y2="2" gradientUnits="userSpaceOnUse">
<stop stop-color="#FDBE6F"/>
<stop offset="0.585" stop-color="#945014"/>
</linearGradient>
<linearGradient id="paint1_linear_94_16163" x1="32.7778" y1="24" x2="32.7778" y2="56" gradientUnits="userSpaceOnUse">
<stop offset="0.415" stop-color="#945014"/>
<stop offset="1" stop-color="#FDBE6F"/>
</linearGradient>
<radialGradient id="paint2_radial_94_16163" cx="0" cy="0" r="1" gradientUnits="userSpaceOnUse" gradientTransform="translate(34.5756 39.4809) rotate(180) scale(14.8169 14.7794)">
<stop stop-color="white"/>
<stop offset="0.62" stop-color="#0ECC70"/>
</radialGradient>
</defs>
</svg>
