<svg width="72" height="80" viewBox="0 0 72 80" fill="none" xmlns="http://www.w3.org/2000/svg">
<path opacity="0.5" d="M37 79L38 79L38 78L38 2L38 1L37 1L12 0.999998C5.92487 0.999997 0.999999 5.92486 0.999998 12L0.999993 68C0.999993 74.0751 5.92486 79 12 79L37 79Z" fill="#D9D9D9" stroke="url(#paint0_linear_94_16190)" stroke-width="2"/>
<rect width="70" height="76" rx="10" transform="matrix(-1 0 0 1 72 2)" fill="#C17633"/>
<path d="M67.4999 63.5V51H71L71.5 68C70.7 74.8 65.8333 76.5 63.5 76.5C50.8333 76.3333 23.5 76.1 15.5 76.5C7.5 76.9 3.83334 73 3 71V49.5H7V64.5C7 70.1 13.6667 71.1667 17 71H57.9999C66.3999 71 67.8333 66 67.4999 63.5Z" fill="#C17633"/>
<path fill-rule="evenodd" clip-rule="evenodd" d="M71 62.9333V67C71 72.5229 66.5228 77 61 77H13C7.47715 77 3 72.5229 3 67V16C3 14.4297 3.36197 12.9439 4.00703 11.6215C4.00236 11.7471 4 11.8732 4 12V62.9333C4 68.4562 8.47715 72.9333 14 72.9333H61C66.5228 72.9333 71 68.4562 71 62.9333Z" fill="#904913"/>
<path d="M68 13C68 6.6 64.6667 4 63 3.5C68.2 3.5 70.1667 8.5 70.5 11V30C68.5 30 62.5 30 54.5 29C64.5 28 68 27.5 68 25V13Z" fill="#C17633"/>
<path d="M66.5 31C66.7701 31.081 66.9921 31.0596 67.1744 30.9941C67.4715 30.9888 67.7421 30.9802 67.9887 30.9694C68.0159 31.4796 68 32.5215 68 34.5V46.5C68 49 67.5 50 60 51C68 52 68.5 51.5 70.5 51.5V32.5C70.2035 30.2763 71.3839 30.8217 67.9887 30.9694C67.9421 30.0969 67.7692 30.7803 67.1744 30.9941C66.9632 30.9979 66.7387 31 66.5 31Z" fill="#C17633"/>
<path d="M6.5 25.5L12.5 27L2.5 27.5V11.5C3.7 4.7 10 3 13 3L20.5 4C10.5 4 7 10.3333 6.5 13.5V25.5Z" fill="#C17633"/>
<path fill-rule="evenodd" clip-rule="evenodd" d="M70 18V12C70 6.47715 65.5228 2 60 2H14C8.47715 2 4 6.47715 4 12V18C4 12.4772 8.47715 8 14 8H60C65.5228 8 70 12.4772 70 18Z" fill="#DA8F34"/>
<path d="M7 45V29L3 30V49L18 48C12.8 47.6 7.83333 45.8333 7 45Z" fill="#C17633"/>
<path d="M71 12C71 7.02944 66.9706 3 62 3H12C7.02943 3 3 7.02944 3 12V68C3 72.9706 7.02943 77 12 77H62C66.9706 77 71 72.9706 71 68V12Z" stroke="#732D00" stroke-width="2"/>
<path d="M53 29L70 33.5V30L53 29Z" fill="#CD915C"/>
<path d="M23.0001 48L4 52V48.5L23.0001 48Z" fill="#CD915C"/>
<path d="M59 51L70 55V51.5L59 51Z" fill="#CD915C"/>
<path d="M15 27L4 31V28L15 27Z" fill="#CD915C"/>
<path d="M52.5 29L70 28L71 31L52.5 29Z" fill="#732D00"/>
<path d="M24 48L2.5 47V50L24 48Z" fill="#732D00"/>
<path d="M59 51L70.3514 50L71 53L59 51Z" fill="#732D00"/>
<path d="M15 27L3.64865 26L3 29L15 27Z" fill="#732D00"/>
<path d="M54 40.0115L54.0001 40.0001L53.9999 39.9886C53.9768 37.9947 52.7204 36.0197 50.9954 34.2213C49.2383 32.3895 46.8336 30.5744 44.174 28.8937C41.5238 27.214 38.5769 25.6262 35.8504 24.4744L35.8505 24.4744L35.8454 24.4722C34.493 23.9097 33.1549 23.4374 31.9473 23.1895C30.7771 22.9493 29.5721 22.8852 28.5766 23.3106C27.5105 23.729 26.7817 24.6134 26.2688 25.663C25.7537 26.7168 25.4042 28.0398 25.1452 29.5119L25.1447 29.5145C24.6354 32.4544 24.4496 36.2508 24.4445 39.9988L24.4445 40.0016C24.4496 43.7497 24.6354 47.546 25.1447 50.486L25.1452 50.4886C25.4042 51.9606 25.7537 53.2837 26.2688 54.3375C26.7818 55.3871 27.5106 56.2716 28.5768 56.69C29.572 57.1146 30.7769 57.0507 31.9472 56.8106C33.1547 56.5628 34.4929 56.0908 35.8454 55.5282L35.8454 55.5282L35.8509 55.5259C38.5758 54.3732 41.5222 52.7867 44.1742 51.1083C46.8336 49.4275 49.2387 47.6122 50.996 45.78C52.721 43.9815 53.9775 42.0061 54 40.0115Z" fill="#732D00" stroke="url(#paint1_linear_94_16190)" stroke-width="2"/>
<path d="M51 40.1614C50.9682 42.9934 47.3711 46.3091 42.7406 49.2446C40.4336 50.7092 37.8763 52.0894 35.5238 53.0876C33.1794 54.0658 31.0398 54.661 29.7834 54.1139C28.4534 53.5994 27.7356 51.8317 27.2899 49.2909C26.8532 46.7628 26.6895 43.4617 26.6849 40.1614C26.6895 36.8611 26.8532 33.5599 27.2899 31.0318C27.7356 28.491 28.4534 26.7234 29.7834 26.2089C31.0398 25.6608 33.1794 26.257 35.5238 27.2352C37.8772 28.2324 40.4345 29.6135 42.7397 31.079C47.3711 34.0145 50.9672 37.3302 51 40.1614Z" fill="#0ECC70"/>
<g style="mix-blend-mode:multiply" opacity="0.5">
<path d="M51 40.296C50.9682 43.1281 47.3711 46.4438 42.7406 49.3793C40.4336 50.8439 37.8763 52.224 35.5238 53.2222C33.1794 54.2004 31.0398 54.7957 29.7834 54.2485C28.4534 53.734 27.7356 51.9663 27.2899 49.4256C26.8532 46.8975 26.6895 43.5963 26.6849 40.296C26.6895 36.9957 26.8532 33.6945 27.2899 31.1664C27.7356 28.6257 28.4534 26.858 29.7834 26.3435C31.0398 25.7954 33.1794 26.3916 35.5238 27.3698C37.8772 28.3671 40.4345 29.7481 42.7397 31.2136C47.3711 34.1491 50.9672 37.4649 51 40.296Z" fill="#0ECC70"/>
</g>
<path d="M49.519 39.4738C49.4899 41.9983 46.1858 44.9546 41.9328 47.5716C39.814 48.8774 37.4651 50.1079 35.3036 50.998C33.1503 51.8701 31.1844 52.4009 30.0309 51.9127C28.8091 51.4545 28.1496 49.8783 27.7402 47.6134C27.339 45.3593 27.1889 42.4166 27.1844 39.4738C27.1889 36.531 27.339 33.5883 27.7402 31.3351C28.1496 29.0702 28.8091 27.494 30.0309 27.0358C31.1844 26.5476 33.1503 27.0784 35.3036 27.9505C37.4651 28.8397 39.814 30.0702 41.9319 31.3769C46.1858 33.9939 49.4899 36.9494 49.519 39.4747V39.4738Z" fill="#0ECC70"/>
<g style="mix-blend-mode:screen" opacity="0.5">
<path d="M27.2444 36.4848C32.0741 43.1734 38.9807 46.5236 47.5221 43.2686C48.7575 41.962 49.5053 40.6698 49.5199 39.4747C49.4908 36.9503 46.1867 33.9939 41.9328 31.3769C39.8149 30.0702 37.466 28.8397 35.3045 27.9505C33.1512 27.0784 31.1853 26.5476 30.0318 27.0358C28.81 27.494 28.1505 29.0702 27.7411 31.3351C27.4773 32.8188 27.3217 34.601 27.2453 36.4848H27.2444Z" fill="#0CBB66"/>
</g>
<g style="mix-blend-mode:multiply" opacity="0.2">
<path d="M43.2155 46.7522C34.8715 50.0035 29.4878 49.2095 27.2253 41.9674C27.2935 44.0336 27.4527 46 27.7393 47.6134C28.1486 49.8783 28.8082 51.4545 30.03 51.9127C31.1835 52.4009 33.1494 51.8701 35.3027 50.9981C37.4642 50.1088 39.8131 48.8774 41.9319 47.5716C42.3704 47.3021 42.7988 47.0281 43.2146 46.7522H43.2155Z" fill="#13B164"/>
</g>
<g style="mix-blend-mode:overlay" opacity="0.3">
<path d="M51 40.296C50.9682 43.1281 47.3711 46.4438 42.7406 49.3793C40.4336 50.8439 37.8763 52.224 35.5238 53.2222C33.1794 54.2004 31.0398 54.7957 29.7834 54.2485C28.4534 53.734 27.7356 51.9663 27.2899 49.4256C26.8532 46.8975 26.6895 43.5963 26.6849 40.296C26.6895 36.9957 26.8532 33.6945 27.2899 31.1664C27.7356 28.6257 28.4534 26.858 29.7834 26.3435C31.0398 25.7954 33.1794 26.3916 35.5238 27.3698C37.8772 28.3671 40.4345 29.7481 42.7397 31.2136C47.3711 34.1491 50.9672 37.4649 51 40.296Z" fill="#0ECC70"/>
</g>
<mask id="mask0_94_16190" style="mask-type:luminance" maskUnits="userSpaceOnUse" x="27" y="26" width="23" height="27">
<path d="M49.519 39.4738C49.4899 41.9983 46.1858 44.9546 41.9328 47.5716C39.814 48.8774 37.4651 50.1079 35.3036 50.998C33.1503 51.8701 31.1844 52.4009 30.0309 51.9127C28.8091 51.4545 28.1496 49.8783 27.7402 47.6134C27.339 45.3593 27.1889 42.4166 27.1844 39.4738C27.1889 36.531 27.339 33.5883 27.7402 31.3351C28.1496 29.0702 28.8091 27.494 30.0309 27.0358C31.1844 26.5476 33.1503 27.0784 35.3036 27.9505C37.4651 28.8397 39.814 30.0702 41.9319 31.3769C46.1858 33.9939 49.4899 36.9494 49.519 39.4747V39.4738Z" fill="white"/>
</mask>
<g mask="url(#mask0_94_16190)">
<path style="mix-blend-mode:overlay" opacity="0.3" d="M37.487 54.3827C45.7027 54.3827 52.3628 47.7394 52.3628 39.5446C52.3628 31.3497 45.7027 24.7064 37.487 24.7064C29.2713 24.7064 22.6112 31.3497 22.6112 39.5446C22.6112 47.7394 29.2713 54.3827 37.487 54.3827Z" fill="url(#paint2_radial_94_16190)"/>
</g>
<path d="M28.5808 30.0621C27.7265 32.3806 29.0529 33.3769 29.7852 33.112C30.9979 32.6728 31.8467 29.0077 31.2272 28.4478C30.4448 27.7409 29.1675 28.4687 28.5808 30.0612V30.0621Z" fill="white"/>
<path opacity="0.7" d="M44.2835 34.3197C46.6934 35.9975 46.6779 37.0138 46.0083 36.9322C44.9003 36.797 41.4015 34.0565 41.3324 33.5085C41.245 32.8161 42.6278 33.1673 44.2835 34.3197Z" fill="white"/>
<path opacity="0.7" d="M48.1844 38.1146C48.8367 38.8641 48.3254 39.561 47.9542 39.6154C47.3402 39.7062 46.5433 38.4095 46.7716 38.0456C47.06 37.5864 47.7359 37.5991 48.1835 38.1136L48.1844 38.1146Z" fill="white"/>
<rect x="53" y="5" width="8" height="2" rx="1" fill="#FFC37C"/>
<defs>
<linearGradient id="paint0_linear_94_16190" x1="19.5" y1="78" x2="19.5" y2="2" gradientUnits="userSpaceOnUse">
<stop stop-color="#FDBE6F"/>
<stop offset="0.585" stop-color="#945014"/>
</linearGradient>
<linearGradient id="paint1_linear_94_16190" x1="39.2222" y1="24" x2="39.2222" y2="56" gradientUnits="userSpaceOnUse">
<stop offset="0.415" stop-color="#945014"/>
<stop offset="1" stop-color="#FDBE6F"/>
</linearGradient>
<radialGradient id="paint2_radial_94_16190" cx="0" cy="0" r="1" gradientUnits="userSpaceOnUse" gradientTransform="translate(37.4244 39.4809) scale(14.8169 14.7794)">
<stop stop-color="white"/>
<stop offset="0.62" stop-color="#0ECC70"/>
</radialGradient>
</defs>
</svg>
