<svg width="108" height="112" viewBox="0 0 108 112" fill="none" xmlns="http://www.w3.org/2000/svg">
<rect x="0.5" y="0.5" width="107" height="111" rx="9.5" fill="#249D4D"/>
<rect x="0.5" y="0.5" width="107" height="111" rx="9.5" stroke="#0A4E1B"/>
<path d="M3 99.6263V85H1V101.089C2.14783 108.5 8.81159 109.377 12 108.89C4.34781 106.159 3 101.5 3 99.6263Z" fill="#47E875" fill-opacity="0.5"/>
<path d="M105 98.6263V74H107V100.089C105.852 107.5 99.1884 108.988 96 108.5C103.652 105.77 104.5 102 105 98.6263Z" fill="#47E875" fill-opacity="0.5"/>
<path d="M3.00021 44.5V6L1 10.5V48.5L10.0002 49C4.00021 48.2 2.83355 45.6667 3.00021 44.5Z" fill="#47E875" fill-opacity="0.5"/>
<path d="M105 22V5L107 10V26L98 26.5C104 25.7 105.167 23.1667 105 22Z" fill="#47E875" fill-opacity="0.5"/>
<path d="M3.00021 79L3 51.5H1V83H7C3.5 82.5 3.00021 80.5 3.00021 79Z" fill="#47E875" fill-opacity="0.5"/>
<path d="M105 69L105 28.5H107V73H101C104.5 72.5 105 70.5 105 69Z" fill="#47E875" fill-opacity="0.5"/>
<path d="M90.5 27L107 31.5V28L90.5 27Z" fill="#45FFA5"/>
<path d="M22.3335 49L1 52V49.6667L22.3335 49Z" fill="#47E875"/>
<path d="M97 73L107 77V74.6667L97 73Z" fill="#47E875"/>
<path d="M11.3335 83L1 87V84.6667L11.3335 83Z" fill="#47E875"/>
<path d="M90 27L107.5 26V29.0006L90 27Z" fill="#0A4E1B"/>
<path d="M22.3335 49L0.333496 48V50L22.3335 49Z" fill="#0A4E1B"/>
<path d="M97 72.9998L108 72V75L97 72.9998Z" fill="#0A4E1B"/>
<path d="M11.3335 82.9998L0.333496 82V85L11.3335 82.9998Z" fill="#0A4E1B"/>
<path d="M10.8148 0.99999C5.07391 0.49995 1 4.70313 1 10.2308V13C1 7.90199 5.34311 4.99999 10.8148 4.99999H97C102.472 4.99999 106.907 7.90198 106.907 13V10.2308C106.907 5.13275 103.407 0.99999 97 0.99999H10.8148Z" fill="#47E875"/>
<path d="M87.3334 3C87.3334 2.44772 87.7811 2 88.3334 2H94.3334C94.8857 2 95.3334 2.44772 95.3334 3C95.3334 3.55228 94.8857 4 94.3334 4H88.3334C87.7811 4 87.3334 3.55228 87.3334 3Z" fill="white"/>
<path d="M10.5 111.5C4.18519 111.5 1.00012 106.867 1.00012 101.769V99C1.00012 104.098 5.39436 108.231 10.8149 108.231H97.5187C102.939 108.231 107 103.829 107 98.7308V101.5C107 106.598 105.148 111.5 98.8334 111.5H10.5Z" fill="#0A4E1B"/>
</svg>
