<svg width="112" height="116" viewBox="0 0 112 116" fill="none" xmlns="http://www.w3.org/2000/svg">
<g filter="url(#filter0_d_162_1598)">
<g filter="url(#filter1_d_162_1598)">
<rect x="2" width="108" height="112" rx="10" fill="#0ECC70" shape-rendering="crispEdges"/>
<rect x="2.5" y="0.5" width="107" height="111" rx="9.5" stroke="#0A4E1B" shape-rendering="crispEdges"/>
</g>
<path d="M5 99.6263V85H3V101.089C4.14783 108.5 10.8116 109.377 14 108.89C6.34781 106.159 5 101.5 5 99.6263Z" fill="#45FFA5" fill-opacity="0.5"/>
<path d="M107 98.6263V74H109V100.089C107.852 107.5 101.188 108.988 98 108.5C105.652 105.77 106.5 102 107 98.6263Z" fill="#45FFA5" fill-opacity="0.5"/>
<path d="M5.00021 44.5V6L3 10.5V48.5L12.0002 49C6.00021 48.2 4.83355 45.6667 5.00021 44.5Z" fill="#45FFA5" fill-opacity="0.5"/>
<path d="M107 22V5L109 10V26L100 26.5C106 25.7 107.167 23.1667 107 22Z" fill="#45FFA5" fill-opacity="0.5"/>
<path d="M5.00021 79L5 51.5H3V83H9C5.5 82.5 5.00021 80.5 5.00021 79Z" fill="#45FFA5" fill-opacity="0.5"/>
<path d="M107 69L107 28.5H109V73H103C106.5 72.5 107 70.5 107 69Z" fill="#45FFA5" fill-opacity="0.5"/>
<path d="M92.5 27L109 31.5V28L92.5 27Z" fill="#45FFA5"/>
<path d="M24.3335 49L3 52V49.6667L24.3335 49Z" fill="#45FFA5"/>
<path d="M99 73L109 77V74.6667L99 73Z" fill="#45FFA5"/>
<path d="M13.3335 83L3 87V84.6667L13.3335 83Z" fill="#45FFA5"/>
<path d="M92 27L109.5 26V29.0006L92 27Z" fill="#0A4E1B"/>
<path d="M24.3335 49L2.3335 48V50L24.3335 49Z" fill="#0A4E1B"/>
<path d="M99 72.9998L110 72V75L99 72.9998Z" fill="#0A4E1B"/>
<path d="M13.3335 82.9998L2.3335 82V85L13.3335 82.9998Z" fill="#0A4E1B"/>
<path d="M12.8148 0.99999C7.07391 0.49995 3 4.70313 3 10.2308V13C3 7.90199 7.34311 4.99999 12.8148 4.99999H99C104.472 4.99999 108.907 7.90198 108.907 13V10.2308C108.907 5.13275 105.407 0.99999 99 0.99999H12.8148Z" fill="#45FFA5"/>
<path d="M89.3334 3C89.3334 2.44772 89.7811 2 90.3334 2H96.3334C96.8857 2 97.3334 2.44772 97.3334 3C97.3334 3.55228 96.8857 4 96.3334 4H90.3334C89.7811 4 89.3334 3.55228 89.3334 3Z" fill="white"/>
<path d="M12.5 111.5C6.18519 111.5 3.00012 106.867 3.00012 101.769V99C3.00012 104.098 7.39436 108.231 12.8149 108.231H99.5187C104.939 108.231 109 103.829 109 98.7308V101.5C109 106.598 107.148 111.5 100.833 111.5H12.5Z" fill="#0A4E1B"/>
</g>
<defs>
<filter id="filter0_d_162_1598" x="0" y="0" width="112" height="116" filterUnits="userSpaceOnUse" color-interpolation-filters="sRGB">
<feFlood flood-opacity="0" result="BackgroundImageFix"/>
<feColorMatrix in="SourceAlpha" type="matrix" values="0 0 0 0 0 0 0 0 0 0 0 0 0 0 0 0 0 0 127 0" result="hardAlpha"/>
<feOffset dy="2"/>
<feGaussianBlur stdDeviation="1"/>
<feComposite in2="hardAlpha" operator="out"/>
<feColorMatrix type="matrix" values="0 0 0 0 0 0 0 0 0 0 0 0 0 0 0 0 0 0 0.6 0"/>
<feBlend mode="normal" in2="BackgroundImageFix" result="effect1_dropShadow_162_1598"/>
<feBlend mode="normal" in="SourceGraphic" in2="effect1_dropShadow_162_1598" result="shape"/>
</filter>
<filter id="filter1_d_162_1598" x="0" y="0" width="112" height="116" filterUnits="userSpaceOnUse" color-interpolation-filters="sRGB">
<feFlood flood-opacity="0" result="BackgroundImageFix"/>
<feColorMatrix in="SourceAlpha" type="matrix" values="0 0 0 0 0 0 0 0 0 0 0 0 0 0 0 0 0 0 127 0" result="hardAlpha"/>
<feOffset dy="2"/>
<feGaussianBlur stdDeviation="1"/>
<feComposite in2="hardAlpha" operator="out"/>
<feColorMatrix type="matrix" values="0 0 0 0 0 0 0 0 0 0 0 0 0 0 0 0 0 0 0.6 0"/>
<feBlend mode="normal" in2="BackgroundImageFix" result="effect1_dropShadow_162_1598"/>
<feBlend mode="normal" in="SourceGraphic" in2="effect1_dropShadow_162_1598" result="shape"/>
</filter>
</defs>
</svg>
