<svg width="52" height="51" viewBox="0 0 52 51" fill="none" xmlns="http://www.w3.org/2000/svg">
<g id="Frame 1405">
<g id="Vector" filter="url(#filter0_d_218_2536)">
<path d="M48.7795 26.8504C50.1832 25.4524 50.1832 23.1858 48.7795 21.788L48.6628 21.6717C47.6397 20.6527 47.3298 19.1221 47.8766 17.7878L47.939 17.6357C48.6889 15.8052 47.8073 13.7159 45.9695 12.9687C44.6173 12.419 43.7336 11.109 43.7336 9.65426C43.7336 7.67713 42.1244 6.0744 40.1396 6.0744H39.9745C38.5277 6.0744 37.2218 5.21022 36.6613 3.88185L36.5973 3.73017C35.8283 1.90769 33.7212 1.05127 31.8914 1.81723C30.5451 2.38101 28.9901 2.07696 27.9576 1.04853C26.5539 -0.349511 24.2785 -0.349511 22.8749 1.04853L22.7582 1.16481C21.735 2.18387 20.1984 2.49249 18.8587 1.94789L18.7057 1.88576C16.868 1.13876 14.7703 2.01688 14.0201 3.84736C13.4683 5.19423 12.1529 6.0744 10.6926 6.0744C8.70783 6.0744 7.0987 7.67713 7.0987 9.65403V9.81828C7.0987 11.2593 6.23106 12.56 4.89738 13.1183L4.74509 13.182C2.91532 13.948 2.05548 16.0466 2.8245 17.8691C3.39031 19.2103 3.08527 20.7589 2.05273 21.7875C0.649091 23.1856 0.649091 25.4519 2.05273 26.85L2.16947 26.9662C3.19261 27.9853 3.50246 29.5158 2.95568 30.8501L2.8933 31.0023C2.14332 32.8328 3.02495 34.9223 4.86275 35.6693C6.21501 36.2189 7.0987 37.529 7.0987 38.9837C7.0987 40.9608 8.70783 42.5635 10.6926 42.5635H10.8576C12.3043 42.5635 13.6102 43.4277 14.1708 44.7561L14.2348 44.9075C15.0038 46.73 17.1108 47.5867 18.9406 46.8205C20.2869 46.2569 21.8419 46.5608 22.8747 47.5892C24.2783 48.9872 26.5537 48.9872 27.9574 47.5892L28.0741 47.4729C29.0972 46.4538 30.6339 46.1452 31.9735 46.6898L32.1263 46.752C33.9641 47.4989 36.0617 46.6208 36.8119 44.7904C37.3638 43.4435 38.6791 42.5633 40.1394 42.5633C42.1242 42.5633 43.7333 40.9606 43.7333 38.9837V38.8192C43.7333 37.3782 44.601 36.0775 45.9347 35.5192L46.0867 35.4555C47.9165 34.6895 48.7763 32.5908 48.0073 30.7684C47.4415 29.4272 47.7465 27.8786 48.7791 26.85L48.7795 26.8504Z" fill="url(#paint0_linear_218_2536)"/>
</g>
<g id="Mask group">
<mask id="mask0_218_2536" style="mask-type:alpha" maskUnits="userSpaceOnUse" x="1" y="0" width="49" height="49">
<path id="Vector_2" d="M48.7795 26.8504C50.1832 25.4524 50.1832 23.1858 48.7795 21.788L48.6628 21.6717C47.6397 20.6527 47.3298 19.1221 47.8766 17.7878L47.939 17.6357C48.6889 15.8052 47.8073 13.7159 45.9695 12.9687C44.6173 12.419 43.7336 11.109 43.7336 9.65426C43.7336 7.67713 42.1244 6.0744 40.1396 6.0744H39.9745C38.5277 6.0744 37.2218 5.21022 36.6613 3.88185L36.5973 3.73017C35.8283 1.90769 33.7212 1.05127 31.8914 1.81723C30.5451 2.38101 28.9901 2.07696 27.9576 1.04853C26.5539 -0.349511 24.2785 -0.349511 22.8749 1.04853L22.7582 1.16481C21.735 2.18387 20.1984 2.49249 18.8587 1.94789L18.7057 1.88576C16.868 1.13876 14.7703 2.01688 14.0201 3.84736C13.4683 5.19423 12.1529 6.0744 10.6926 6.0744C8.70783 6.0744 7.0987 7.67713 7.0987 9.65403V9.81828C7.0987 11.2593 6.23106 12.56 4.89738 13.1183L4.74509 13.182C2.91532 13.948 2.05548 16.0466 2.8245 17.8691C3.39031 19.2103 3.08527 20.7589 2.05273 21.7875C0.649091 23.1856 0.649091 25.4519 2.05273 26.85L2.16947 26.9662C3.19261 27.9853 3.50246 29.5158 2.95568 30.8501L2.8933 31.0023C2.14332 32.8328 3.02495 34.9223 4.86275 35.6693C6.21501 36.2189 7.0987 37.529 7.0987 38.9837C7.0987 40.9608 8.70783 42.5635 10.6926 42.5635H10.8576C12.3043 42.5635 13.6102 43.4277 14.1708 44.7561L14.2348 44.9075C15.0038 46.73 17.1108 47.5867 18.9406 46.8205C20.2869 46.2569 21.8419 46.5608 22.8747 47.5892C24.2783 48.9872 26.5537 48.9872 27.9574 47.5892L28.0741 47.4729C29.0972 46.4538 30.6339 46.1452 31.9735 46.6898L32.1263 46.752C33.9641 47.4989 36.0617 46.6208 36.8119 44.7904C37.3638 43.4435 38.6791 42.5633 40.1394 42.5633C42.1242 42.5633 43.7333 40.9606 43.7333 38.9837V38.8192C43.7333 37.3782 44.601 36.0775 45.9347 35.5192L46.0867 35.4555C47.9165 34.6895 48.7763 32.5908 48.0073 30.7684C47.4415 29.4272 47.7465 27.8786 48.7791 26.85L48.7795 26.8504Z" fill="url(#paint1_linear_218_2536)"/>
</mask>
<g mask="url(#mask0_218_2536)">
<rect id="Rectangle 437" width="9.07604" height="78.1247" transform="matrix(0.866888 0.498504 -0.501498 0.865159 49.2644 -10.1799)" fill="#FFEE97"/>
<rect id="Rectangle 438" width="3.27313" height="54.2886" transform="matrix(0.866888 0.498504 -0.501498 0.865159 36.175 0)" fill="#FFEE97"/>
</g>
</g>
<path id="Vector_3" opacity="0.5" d="M48.6031 21.9651C49.8928 23.2495 49.9085 25.322 48.65 26.6256L45.9347 35.5192C44.601 36.0775 43.7333 37.3782 43.7333 38.8192V38.9837C43.7333 40.9606 42.1242 42.5633 40.1394 42.5633C38.6791 42.5633 37.3638 43.4435 36.8119 44.7904L36.5806 44.6955C36.5806 44.6956 36.5806 44.6956 36.5806 44.6956C35.8829 46.3979 33.9312 47.2157 32.2205 46.5204C32.2205 46.5204 32.2204 46.5204 32.2204 46.5204L32.0677 46.4582L32.0677 46.4582C30.6353 45.8759 28.992 46.2058 27.8977 47.2958L27.7809 47.4121C26.4748 48.7129 24.3572 48.7129 23.0511 47.4121L23.0511 47.412C21.9464 46.312 20.2836 45.9873 18.8441 46.5899L18.844 46.5899C17.1408 47.3031 15.1803 46.5053 14.4651 44.8104L14.465 44.8102L14.4011 44.6589C14.4011 44.6589 14.4011 44.6588 14.4011 44.6588C13.8012 43.2374 12.4043 42.3135 10.8576 42.3135H10.6926C8.84497 42.3135 7.3487 40.8218 7.3487 38.9837C7.3487 37.4268 6.40297 36.0254 4.95688 35.4377C3.24667 34.7425 2.42737 32.799 3.12461 31.0971C3.12462 31.0971 3.12463 31.0971 3.12464 31.0971L3.18699 30.945L3.18702 30.9449C3.77214 29.517 3.44042 27.8793 2.34589 26.7891L2.22915 26.6728C0.923617 25.3725 0.923617 23.265 2.22915 21.9647L2.22917 21.9646C3.33376 20.8642 3.66032 19.2071 3.05484 17.772L3.05483 17.7719C2.33985 16.0775 3.13889 14.1254 4.84162 13.4126L4.99389 13.3489L4.99392 13.3489C6.42015 12.7519 7.3487 11.3605 7.3487 9.81828V9.65403C7.3487 7.81614 8.84496 6.3244 10.6926 6.3244C12.2539 6.3244 13.661 5.38334 14.2514 3.94214C14.9491 2.23979 16.9009 1.422 18.6116 2.11736L18.6117 2.11738L18.7646 2.17949C18.7646 2.1795 18.7646 2.17951 18.7646 2.17952C20.1971 2.76179 21.8403 2.43192 22.9346 1.34194L23.0513 1.22566L22.8769 1.05052L23.0513 1.22566C24.3574 -0.0752203 26.4751 -0.0752203 27.7812 1.22566C28.8856 2.32568 30.5484 2.65067 31.988 2.04782C33.6913 1.33484 35.6518 2.13247 36.3669 3.82734L36.4309 3.97903L36.6613 3.88185L36.4309 3.97905C37.0307 5.40045 38.4277 6.3244 39.9745 6.3244H40.1396C41.9873 6.3244 43.4836 7.81613 43.4836 9.65426C43.4836 11.2111 44.4293 12.6125 45.8754 13.2003C47.5856 13.8956 48.4049 15.839 47.7076 17.5408C47.7076 17.5408 47.7076 17.5409 47.7076 17.5409L47.6453 17.693L47.6452 17.693C47.0601 19.1209 47.3918 20.7587 48.4864 21.8488L48.6031 21.9651L48.7795 21.788L48.6031 21.9651Z" stroke="url(#paint2_linear_218_2536)" stroke-width="0.5"/>
<path id="Subtract" fill-rule="evenodd" clip-rule="evenodd" d="M45.2451 18.0897C48.4053 28.2416 42.9646 39.1502 32.8138 42.7163C26.6879 44.8684 20.2134 43.8662 15.1775 40.5616C21.2115 45.2512 29.729 46.1314 36.793 42.126C45.3473 37.2756 48.8043 26.9423 45.2451 18.0897Z" fill="#FFEE97"/>
<ellipse id="Ellipse 40" cx="25.4161" cy="24.3188" rx="19.8736" ry="19.7944" fill="#F2B94A" fill-opacity="0.85"/>
<path id="Ellipse 39" d="M45.9253 24.3188C45.9253 35.5977 36.7449 44.7444 25.4161 44.7444C14.0873 44.7444 4.90689 35.5977 4.90689 24.3188C4.90689 13.04 14.0873 3.89331 25.4161 3.89331C36.7449 3.89331 45.9253 13.04 45.9253 24.3188Z" stroke="#D58321"/>
<path id="Subtract_2" fill-rule="evenodd" clip-rule="evenodd" d="M40.0253 10.899C36.4836 7.64399 31.7508 5.65552 26.5518 5.65552C15.5759 5.65552 6.67818 14.5178 6.67818 25.4499C6.67818 30.6283 8.67459 35.3422 11.9426 38.8698C8.00732 35.2531 5.54254 30.0726 5.54254 24.3188C5.54254 13.3867 14.4403 4.52441 25.4161 4.52441C31.193 4.52441 36.3941 6.97938 40.0253 10.899Z" fill="#FEE275" fill-opacity="0.6"/>
<path id="Vector_4" d="M26.9967 17.3663L26.5487 17.4007C26.4982 17.4045 26.4981 17.4045 26.4981 17.4044L26.4981 17.4041L26.4981 17.4037C26.4982 17.4042 26.5018 17.4043 26.9967 17.3663ZM29.0187 21.9951C29.1217 21.7626 29.2536 21.462 29.4163 21.0862C29.6429 20.563 29.8244 20.143 29.904 19.7314C29.9893 19.2906 29.9556 18.8843 29.823 18.3736L29.823 18.3735C29.5435 17.2979 28.6993 16.4667 27.6863 16.4667C27.2381 16.4667 26.896 16.5932 26.6856 16.8484C26.5859 16.9693 26.5376 17.0948 26.5152 17.1947C26.5041 17.2443 26.4993 17.2881 26.4974 17.3232C26.4965 17.3408 26.4964 17.3566 26.4966 17.3702C26.4967 17.377 26.4969 17.3833 26.4972 17.389L26.4976 17.3972L26.4979 17.401L26.4979 17.4015L26.4979 17.4016C26.4979 17.4017 26.498 17.402 26.498 17.4026C26.498 17.4027 26.498 17.4027 26.498 17.4028L26.4986 17.4176C26.4991 17.4328 26.4996 17.4586 26.4991 17.4939C26.4979 17.5647 26.4926 17.6732 26.4748 17.8115C26.4392 18.0883 26.3539 18.4822 26.1542 18.931C25.9603 19.367 25.5735 19.9149 25.1189 20.472C24.671 21.0208 24.1843 21.5464 23.8161 21.9351C23.5861 22.1779 23.3733 22.3658 23.1622 22.5521C23.0385 22.6612 22.9155 22.7698 22.79 22.8886C22.5045 23.1587 22.149 23.5327 22.1227 24.0353C22.1071 24.3325 22.0812 25.8741 22.0775 27.3787C22.0756 28.1338 22.0793 28.8868 22.0929 29.4773C22.0997 29.7719 22.109 30.0308 22.1217 30.231C22.1281 30.3307 22.1356 30.4214 22.1448 30.4972C22.1521 30.5566 22.1655 30.6573 22.1989 30.7452C22.2596 30.9055 22.3542 31.0613 22.5135 31.184C22.6629 31.2991 22.8307 31.3548 22.9803 31.3899C23.1284 31.4247 23.3042 31.4489 23.4919 31.4734C23.524 31.4776 23.5569 31.4819 23.5908 31.4863C23.763 31.5086 23.9595 31.5341 24.1925 31.5696L24.1926 31.5697C24.4213 31.6045 24.6922 31.6683 25.0038 31.7418C26.0786 31.9953 27.6383 32.3632 29.6256 32.0472C30.9003 31.8446 31.6146 31.4003 31.8303 30.7303C31.9178 30.4588 31.9026 30.1965 31.853 29.9778C31.8561 29.9764 31.8592 29.9749 31.8623 29.9734C32.1956 29.8131 32.5882 29.5045 32.7908 28.9401C32.9983 28.3622 32.8663 27.8745 32.6832 27.5447C32.6821 27.5429 32.6811 27.541 32.68 27.5391C32.9265 27.3182 33.1952 26.9665 33.274 26.4562C33.3563 25.9236 33.1899 25.4633 32.9917 25.1436C32.9548 25.084 32.9159 25.0279 32.876 24.9757C32.8766 24.9749 32.8772 24.9742 32.8778 24.9734C33.0945 24.7011 33.3278 24.2719 33.2946 23.7154C33.2636 23.1941 33.0442 22.7066 32.5606 22.3824C32.101 22.0743 31.4688 21.959 30.6948 22.0035C30.0116 22.0427 29.4309 22.024 29.0187 21.9951Z" fill="#F8D847" stroke="#E9993B"/>
<path id="Vector_5" d="M29.0187 21.9951C29.1217 21.7626 29.2536 21.462 29.4163 21.0862C29.6429 20.563 29.8244 20.143 29.904 19.7314C29.9893 19.2906 29.9556 18.8843 29.823 18.3736L29.823 18.3735C29.5435 17.2979 28.6993 16.4667 27.6863 16.4667C27.2381 16.4667 26.896 16.5932 26.6856 16.8484C26.5859 16.9693 26.5376 17.0948 26.5152 17.1947C26.5041 17.2443 26.4993 17.2881 26.4974 17.3232C26.4965 17.3408 26.4964 17.3566 26.4966 17.3702C26.4967 17.377 26.4969 17.3833 26.4972 17.389L26.4976 17.3972L26.4979 17.401L26.4979 17.4015L26.4979 17.4016C26.4979 17.4017 26.498 17.402 26.498 17.4026C26.498 17.4027 26.498 17.4027 26.498 17.4028L26.4986 17.4176C26.4991 17.4328 26.4996 17.4586 26.4991 17.4939C26.4979 17.5647 26.4926 17.6732 26.4748 17.8115C26.4392 18.0883 26.3539 18.4822 26.1542 18.931C25.9603 19.367 25.5735 19.9149 25.1189 20.472C24.671 21.0208 24.1843 21.5464 23.8161 21.9351C23.5861 22.1779 23.3733 22.3658 23.1622 22.5521C23.0385 22.6612 22.9155 22.7698 22.79 22.8886C22.5045 23.1587 22.149 23.5327 22.1227 24.0353C22.1071 24.3325 22.0812 25.8741 22.0775 27.3787C22.0756 28.1338 22.0793 28.8868 22.0929 29.4773C22.0997 29.7719 22.109 30.0308 22.1217 30.231C22.1281 30.3307 22.1356 30.4214 22.1448 30.4972C22.1521 30.5566 22.1655 30.6573 22.1989 30.7452C22.2596 30.9055 22.3542 31.0613 22.5135 31.184C22.6629 31.2991 22.8307 31.3548 22.9803 31.3899C23.1284 31.4247 23.3042 31.4489 23.4919 31.4734C23.524 31.4776 23.5569 31.4819 23.5908 31.4863C23.763 31.5086 23.9595 31.5341 24.1925 31.5696L24.1926 31.5696C24.4213 31.6045 24.6922 31.6683 25.0038 31.7418C26.0786 31.9953 27.6383 32.3632 29.6256 32.0472C30.9003 31.8446 31.6146 31.4003 31.8303 30.7303C31.9178 30.4588 31.9026 30.1965 31.853 29.9778C31.8561 29.9764 31.8592 29.9749 31.8623 29.9734C32.1956 29.8131 32.5882 29.5045 32.7908 28.9401C32.9983 28.3622 32.8663 27.8745 32.6832 27.5447C32.6821 27.5429 32.6811 27.541 32.68 27.5391C32.9265 27.3182 33.1952 26.9665 33.274 26.4562C33.3563 25.9237 33.19 25.4634 32.9919 25.1438C32.9549 25.0841 32.916 25.028 32.876 24.9756C32.8766 24.9749 32.8772 24.9742 32.8778 24.9734C33.0945 24.7011 33.3278 24.2719 33.2946 23.7154C33.2636 23.1941 33.0442 22.7066 32.5606 22.3824C32.101 22.0743 31.4688 21.959 30.6948 22.0035C30.0116 22.0427 29.4309 22.024 29.0187 21.9951ZM26.9967 17.3663L26.5487 17.4007C26.4982 17.4045 26.4981 17.4045 26.4981 17.4044L26.4981 17.4041L26.4981 17.4037C26.4982 17.4042 26.5018 17.4043 26.9967 17.3663Z" fill="url(#paint3_linear_218_2536)" stroke="#D58321"/>
<path id="Subtract_3" fill-rule="evenodd" clip-rule="evenodd" d="M23.7494 31.0027C23.7166 30.9984 23.6848 30.9943 23.654 30.9903C23.0029 30.9059 22.7837 30.8775 22.6664 30.5681C22.5181 30.1767 22.5924 24.6266 22.622 24.0615C22.642 23.6807 23.0052 23.3592 23.4669 22.9506C23.6905 22.7527 23.9372 22.5344 24.1791 22.279C24.9205 21.4964 26.1662 20.1341 26.6111 19.1343C27.0559 18.1345 26.9967 17.3663 26.9967 17.3663C26.9967 17.3663 26.966 16.9667 27.6863 16.9667C28.0212 16.9667 28.35 17.098 28.6302 17.3315C28.6213 17.3709 28.6234 17.397 28.6234 17.397C28.6234 17.397 28.6892 18.2243 28.1949 19.301C27.7006 20.3778 26.3165 21.8448 25.4927 22.6876C25.2239 22.9626 24.9498 23.1978 24.7014 23.4109C24.1884 23.8509 23.7848 24.1972 23.7626 24.6072C23.7352 25.1156 23.6731 29.3695 23.7494 31.0027Z" fill="#FEE275"/>
<path id="Vector_6" d="M20.6381 22.1222H18.8379C18.0631 22.1222 17.5345 22.8101 17.5345 23.5284V30.7648C17.5345 31.4831 18.0631 32.1711 18.8379 32.1711H20.6381C21.4128 32.1711 21.9414 31.4831 21.9414 30.7648V23.5284C21.9414 22.8101 21.4128 22.1222 20.6381 22.1222Z" fill="url(#paint4_linear_218_2536)" stroke="#D58321"/>
<path id="Subtract_4" fill-rule="evenodd" clip-rule="evenodd" d="M18.8379 22.6222H20.6381C21.0817 22.6222 21.4414 23.0279 21.4414 23.5284V23.7533H19.738C19.738 23.7533 19.1701 23.7533 19.1701 24.2538V31.6711H18.8379C18.3942 31.6711 18.0345 31.2653 18.0345 30.7648V23.5284C18.0345 23.0279 18.3942 22.6222 18.8379 22.6222Z" fill="#FEE275"/>
<g id="Vector_7">
<mask id="path-15-outside-1_218_2536" maskUnits="userSpaceOnUse" x="10.2207" y="6.91772" width="29" height="12" fill="black">
<rect fill="white" x="10.2207" y="6.91772" width="29" height="12"/>
<path d="M14.9333 15.187C15.1195 15.3739 15.2492 15.5654 15.3222 15.7616C15.3953 15.9578 15.4225 16.1521 15.4039 16.3448C15.3853 16.5374 15.328 16.7256 15.2321 16.9095C15.1363 17.0934 15.0125 17.2664 14.8608 17.4287C14.7067 17.5935 14.5342 17.7349 14.3432 17.8528C14.1571 17.9706 13.9618 18.0474 13.7575 18.0832C13.5531 18.1139 13.3443 18.096 13.1311 18.0294C12.9179 17.9629 12.7108 17.8288 12.5099 17.6272L11.7087 16.8231C11.5053 16.619 11.3681 16.4077 11.2971 16.189C11.2261 15.9703 11.2046 15.7546 11.2325 15.5418C11.2605 15.3291 11.3295 15.1232 11.4396 14.9241C11.5473 14.7226 11.6793 14.5381 11.8357 14.3708C11.9993 14.1959 12.1657 14.0533 12.3351 13.9432C12.5045 13.8331 12.6493 13.7671 12.7695 13.7453C12.8969 13.7208 13.0152 13.7339 13.1245 13.7846C13.2314 13.8328 13.3027 13.9191 13.3384 14.0434C13.3665 14.1454 13.3645 14.2416 13.3322 14.332C13.2999 14.4225 13.2468 14.4945 13.1729 14.5481C13.1253 14.5838 13.0775 14.6121 13.0296 14.6328C12.9817 14.6486 12.9385 14.6642 12.9002 14.6798C12.7854 14.7366 12.6474 14.8512 12.4862 15.0236C12.4246 15.0895 12.374 15.1665 12.3344 15.2546C12.2924 15.3402 12.2674 15.4305 12.2592 15.5255C12.2487 15.6181 12.2598 15.7129 12.2927 15.8097C12.3256 15.9066 12.3837 15.9969 12.467 16.0805L13.2021 16.8181C13.2878 16.9042 13.3768 16.964 13.4689 16.9975C13.5586 17.0285 13.648 17.0396 13.737 17.0307C13.826 17.0168 13.9111 16.9892 13.9924 16.9479C14.0737 16.9017 14.1463 16.8443 14.2103 16.7759C14.2695 16.7125 14.3202 16.643 14.3624 16.5674C14.4021 16.4893 14.4286 16.4127 14.4419 16.3376C14.4527 16.26 14.4479 16.1839 14.4274 16.1093C14.4045 16.0322 14.3599 15.9605 14.2938 15.8941L14.2497 15.8498C14.2129 15.8129 14.1837 15.7959 14.1621 15.7988C14.1428 15.7991 14.1166 15.817 14.0834 15.8525L13.9661 15.978C13.9139 16.0338 13.8615 16.0721 13.8088 16.0929C13.7536 16.1112 13.6995 16.1183 13.6464 16.1142C13.5957 16.1075 13.546 16.0921 13.4974 16.0678C13.4512 16.0411 13.4097 16.0093 13.3729 15.9724C13.3362 15.9355 13.3042 15.8936 13.2769 15.8466C13.2495 15.7945 13.2318 15.7424 13.2238 15.69C13.2156 15.6327 13.2195 15.5752 13.2355 15.5175C13.2538 15.4573 13.2878 15.4005 13.3376 15.3473L13.6611 15.0012C13.7654 14.8896 13.8617 14.8069 13.95 14.7531C14.0359 14.6968 14.1199 14.6704 14.2019 14.6741C14.2838 14.6728 14.3675 14.7002 14.4527 14.7563C14.5379 14.8074 14.632 14.8846 14.7349 14.9879L14.9333 15.187Z"/>
<path d="M14.698 13.8972C14.5323 13.6491 14.4374 13.4101 14.4133 13.1801C14.3872 12.9472 14.4096 12.7308 14.4806 12.5307C14.5496 12.3278 14.653 12.145 14.7907 11.9824C14.9293 11.8149 15.0777 11.6746 15.2359 11.5613C15.3912 11.4501 15.5676 11.3579 15.765 11.2847C15.9633 11.2066 16.1663 11.17 16.3741 11.1747C16.5799 11.1766 16.7833 11.2312 16.9845 11.3387C17.1866 11.4413 17.3705 11.6166 17.5361 11.8647L18.1689 12.8122C18.3345 13.0603 18.429 13.3018 18.4523 13.5367C18.4764 13.7667 18.454 13.9831 18.385 14.1861C18.314 14.3861 18.2082 14.5685 18.0677 14.7331C17.9319 14.8985 17.7863 15.0369 17.631 15.1481C17.4757 15.2594 17.2979 15.3526 17.0976 15.4278C16.9021 15.5038 16.7015 15.5409 16.4957 15.5391C16.288 15.5343 16.0831 15.4807 15.881 15.3781C15.6798 15.2706 15.4964 15.0928 15.3307 14.8448L14.698 13.8972ZM16.6546 12.4576C16.5911 12.3624 16.5192 12.2923 16.4391 12.2474C16.3618 12.2004 16.281 12.173 16.1965 12.1653C16.112 12.1576 16.0306 12.1669 15.9521 12.1932C15.8718 12.2167 15.7977 12.2526 15.7299 12.3012C15.6621 12.3497 15.6035 12.4088 15.5539 12.4784C15.5025 12.5451 15.4653 12.6207 15.4425 12.7053C15.4196 12.7899 15.4144 12.8789 15.4267 12.9724C15.4419 13.0639 15.4812 13.1572 15.5448 13.2524L16.2122 14.2519C16.27 14.3384 16.339 14.4041 16.4191 14.4491C16.502 14.492 16.5867 14.5188 16.6731 14.5294C16.7576 14.5371 16.8409 14.5307 16.9232 14.5102C17.0064 14.4847 17.0777 14.4507 17.137 14.4083C17.1963 14.3658 17.2507 14.3098 17.3002 14.2402C17.3507 14.1657 17.3873 14.0861 17.4101 14.0016C17.4311 13.9141 17.4353 13.8236 17.423 13.7301C17.4135 13.6346 17.3798 13.5436 17.3221 13.4571L16.6546 12.4576Z"/>
<path d="M18.1737 11.4893C18.0587 11.2143 18.0115 10.9621 18.0322 10.7326C18.0516 10.4998 18.1156 10.2927 18.2242 10.1111C18.3315 9.92637 18.4686 9.76807 18.6357 9.63624C18.8046 9.49979 18.9779 9.39176 19.1555 9.31215C19.33 9.23397 19.5215 9.17852 19.73 9.14581C19.9404 9.10849 20.1474 9.11255 20.351 9.158C20.5533 9.20026 20.7431 9.29368 20.9203 9.43827C21.0994 9.57823 21.2465 9.78571 21.3616 10.0607L21.8012 11.1111C21.9162 11.3861 21.9625 11.6406 21.9399 11.8748C21.9192 12.1043 21.8552 12.3114 21.7479 12.4962C21.6393 12.6778 21.4999 12.8352 21.3297 12.9684C21.1639 13.1034 20.9938 13.21 20.8194 13.2882C20.6449 13.3664 20.4518 13.4226 20.2401 13.4567C20.0329 13.4926 19.8281 13.4894 19.6259 13.4472C19.4223 13.4017 19.2309 13.309 19.0518 13.169C18.8745 13.0245 18.7284 12.8147 18.6133 12.5397L18.1737 11.4893ZM20.3789 10.4669C20.3348 10.3614 20.2776 10.2788 20.2074 10.2191C20.1404 10.158 20.0661 10.1154 19.9844 10.0912C19.9027 10.0671 19.8207 10.0602 19.7384 10.0705C19.6548 10.0776 19.5749 10.0982 19.4987 10.1323C19.4226 10.1664 19.3534 10.2126 19.2912 10.2709C19.2276 10.326 19.1763 10.3926 19.1375 10.4708C19.0986 10.5489 19.0762 10.6349 19.0703 10.7287C19.0675 10.8211 19.0882 10.92 19.1323 11.0256L19.596 12.1335C19.6361 12.2294 19.6913 12.3072 19.7614 12.3669C19.8348 12.4252 19.913 12.468 19.996 12.4953C20.0777 12.5195 20.161 12.5296 20.246 12.5257C20.3328 12.5171 20.4096 12.4979 20.4762 12.4681C20.5428 12.4382 20.6072 12.3942 20.6695 12.3359C20.7335 12.273 20.785 12.2025 20.8239 12.1243C20.8614 12.0429 20.8831 11.9553 20.8891 11.8615C20.8982 11.7663 20.8827 11.6708 20.8426 11.5748L20.3789 10.4669Z"/>
<path d="M23.2414 7.97265C23.4621 7.92351 23.686 7.90734 23.9133 7.92415C24.1433 7.93681 24.3587 7.99886 24.5596 8.11029C24.7631 8.21757 24.9427 8.37989 25.0981 8.59726C25.2536 8.81462 25.3681 9.09967 25.4417 9.4524L25.5107 9.78308C25.5843 10.1358 25.5936 10.4443 25.5386 10.7085C25.4836 10.9728 25.3852 11.1988 25.2432 11.3866C25.1039 11.5702 24.9323 11.7184 24.7285 11.8313C24.5274 11.9399 24.3165 12.0189 24.0959 12.068L23.3372 12.237C23.1845 12.271 23.0543 12.2858 22.9468 12.2813C22.8386 12.2735 22.7473 12.2442 22.6727 12.1933C22.5982 12.1425 22.5367 12.0692 22.4883 11.9735C22.4433 11.8771 22.4056 11.7559 22.3752 11.6101L21.8561 9.12235C21.8257 8.97651 21.8118 8.85007 21.8143 8.74303C21.8202 8.63523 21.847 8.54231 21.8947 8.46426C21.9423 8.38621 22.0142 8.32228 22.1104 8.27247C22.2059 8.21926 22.33 8.17565 22.4827 8.14163L23.2414 7.97265ZM24.386 9.60235C24.3238 9.30388 24.2034 9.0929 24.0248 8.9694C23.8456 8.8425 23.6355 8.8059 23.3945 8.85957L23.0584 8.93442C23.0007 8.94727 22.9638 8.96614 22.9477 8.99103C22.9309 9.01252 22.9288 9.0538 22.9416 9.11484L23.3672 11.1549C23.3799 11.2159 23.3986 11.2544 23.4232 11.2702C23.4471 11.2826 23.4879 11.2824 23.5456 11.2695L23.8817 11.1947C24.1227 11.141 24.2999 11.0199 24.4133 10.8314C24.526 10.6395 24.5513 10.3943 24.489 10.0958L24.386 9.60235Z"/>
<path d="M29.7833 8.75657C29.8017 8.67192 29.8313 8.60055 29.8724 8.54246C29.9168 8.48515 29.9671 8.44165 30.0234 8.41195C30.0796 8.38225 30.1404 8.36428 30.2058 8.35802C30.2746 8.35255 30.3446 8.35801 30.4158 8.37442C30.5581 8.40723 30.6713 8.47599 30.7553 8.5807C30.8428 8.68619 30.8678 8.82528 30.8305 8.99798L30.3654 11.1465C30.3053 11.4242 30.2133 11.6519 30.0894 11.8295C29.9656 12.0072 29.8189 12.1423 29.6495 12.2347C29.4842 12.3246 29.3024 12.3752 29.1043 12.3864C28.9089 12.4017 28.7078 12.3856 28.5011 12.3379C28.3926 12.3129 28.2809 12.2783 28.166 12.234C28.0511 12.1898 27.9421 12.1344 27.839 12.068C27.7387 12.0058 27.6476 11.9332 27.5659 11.8504C27.485 11.7642 27.4222 11.6679 27.3776 11.5617C27.354 11.5064 27.3399 11.4481 27.3354 11.3866C27.3344 11.3259 27.3417 11.2672 27.3576 11.2104C27.3768 11.1544 27.4038 11.1037 27.4385 11.0584C27.4766 11.0139 27.5248 10.9805 27.5829 10.9584C27.6699 10.918 27.7582 10.9046 27.8478 10.9181C27.9381 10.9283 28.02 10.9525 28.0936 10.9908C28.1381 11.0153 28.1727 11.0446 28.1973 11.0787C28.226 11.1102 28.2565 11.1421 28.2886 11.1744C28.3181 11.2025 28.3429 11.2278 28.363 11.2502C28.3871 11.27 28.4134 11.2885 28.4417 11.3057C28.47 11.3229 28.502 11.3391 28.5378 11.3545C28.5744 11.3665 28.6215 11.3791 28.6791 11.3924C28.8248 11.426 28.9554 11.4063 29.0708 11.3334C29.1903 11.2578 29.2754 11.1032 29.3259 10.8696L29.7833 8.75657Z"/>
<path d="M31.6782 10.4031C31.7953 10.129 31.9423 9.92192 32.1193 9.78185C32.2977 9.63858 32.4882 9.54657 32.6907 9.50582C32.8947 9.46188 33.1001 9.45863 33.307 9.49608C33.5185 9.53178 33.7128 9.59009 33.8898 9.67101C34.0637 9.75049 34.233 9.85836 34.3977 9.99462C34.5669 10.1291 34.7045 10.2892 34.8104 10.4747C34.9176 10.6571 34.98 10.8647 34.9977 11.0976C35.0198 11.3287 34.9724 11.5813 34.8552 11.8554L34.4078 12.9025C34.2907 13.1766 34.1414 13.3846 33.9599 13.5264C33.7829 13.6665 33.5924 13.7585 33.3885 13.8024C33.1859 13.8432 32.9796 13.8441 32.7695 13.8052C32.5612 13.771 32.3701 13.7141 32.1962 13.6346C32.0223 13.5551 31.8515 13.4466 31.6836 13.3089C31.5175 13.1758 31.3808 13.0181 31.2736 12.8357C31.1677 12.6501 31.1037 12.4418 31.0815 12.2107C31.0639 11.9778 31.1136 11.7243 31.2308 11.4502L31.6782 10.4031ZM33.9001 11.3845C33.9451 11.2794 33.9649 11.1798 33.9597 11.086C33.9576 10.9936 33.9374 10.9082 33.8991 10.8297C33.8609 10.7513 33.8101 10.6843 33.747 10.6287C33.6852 10.57 33.6163 10.5233 33.5404 10.4886C33.4646 10.4539 33.3848 10.4327 33.3012 10.425C33.219 10.414 33.1369 10.4204 33.0551 10.4439C32.9732 10.4674 32.897 10.5088 32.8264 10.568C32.7589 10.6286 32.7027 10.7115 32.6578 10.8166L32.1858 11.9211C32.145 12.0167 32.1272 12.1115 32.1324 12.2053C32.1408 12.3006 32.1635 12.389 32.2004 12.4707C32.2387 12.5491 32.288 12.6193 32.3485 12.6812C32.4135 12.7414 32.4792 12.7867 32.5455 12.817C32.6119 12.8474 32.6869 12.8664 32.7705 12.8742C32.8587 12.8802 32.9436 12.8714 33.0255 12.8478C33.1087 12.8211 33.1856 12.7782 33.2563 12.719C33.33 12.6613 33.3874 12.5846 33.4282 12.489L33.9001 11.3845Z"/>
<path d="M38.2557 13.9077C38.1641 14.0426 38.0457 14.1429 37.9004 14.2087C37.7579 14.2765 37.5929 14.3001 37.4055 14.2795C37.5374 14.487 37.5998 14.6888 37.5925 14.885C37.5872 15.0783 37.527 15.2596 37.4121 15.429L37.4092 15.4333C37.2846 15.617 37.1447 15.7489 36.9896 15.829C36.8393 15.9083 36.6779 15.9452 36.5054 15.9397C36.3377 15.9334 36.1611 15.8907 35.9757 15.8115C35.795 15.7316 35.6106 15.6231 35.4224 15.4862L34.6893 14.9529C34.5629 14.861 34.4654 14.7729 34.3967 14.6886C34.33 14.6015 34.2898 14.5122 34.2763 14.4209C34.2627 14.3296 34.2739 14.2327 34.3099 14.1303C34.3486 14.0299 34.4099 13.918 34.4937 13.7946L35.9223 11.6894C36.006 11.566 36.087 11.4684 36.165 11.3966C36.2459 11.3268 36.3302 11.283 36.4177 11.2653C36.5053 11.2475 36.599 11.2578 36.6989 11.2962C36.8007 11.3316 36.9147 11.3954 37.0411 11.4873L37.6563 11.9348C37.8501 12.0758 38.01 12.2264 38.1362 12.3868C38.2671 12.5463 38.3595 12.71 38.4134 12.8778C38.4721 13.0448 38.4894 13.214 38.4655 13.3852C38.4464 13.5556 38.3823 13.7212 38.2732 13.8819L38.2557 13.9077ZM35.8251 13.715L35.4687 14.2402C35.4337 14.2919 35.4187 14.3325 35.4239 14.362C35.431 14.3886 35.4584 14.4192 35.5062 14.454L35.9696 14.7911C36.1101 14.8933 36.2326 14.9353 36.3372 14.9171C36.4466 14.8981 36.5276 14.8498 36.5802 14.7723L36.6007 14.7422C36.6533 14.6647 36.6687 14.5709 36.6469 14.4608C36.6299 14.3498 36.5512 14.2432 36.4108 14.1411L35.8251 13.715ZM36.8647 12.4521C36.8169 12.4174 36.7788 12.4025 36.7502 12.4074C36.7237 12.4095 36.6928 12.4364 36.6578 12.4881L36.3013 13.0133L36.7606 13.3474C36.8308 13.3985 36.897 13.4338 36.9593 13.4533C37.0235 13.47 37.0808 13.4753 37.1311 13.469C37.1863 13.462 37.2325 13.4464 37.2699 13.4221C37.3121 13.3971 37.3459 13.3659 37.3712 13.3286L37.3916 13.2984C37.4442 13.221 37.4596 13.1271 37.4379 13.017C37.4209 12.906 37.3422 12.7995 37.2017 12.6973L36.8647 12.4521Z"/>
</mask>
<g filter="url(#filter1_i_218_2536)">
<path d="M14.9333 15.187C15.1195 15.3739 15.2492 15.5654 15.3222 15.7616C15.3953 15.9578 15.4225 16.1521 15.4039 16.3448C15.3853 16.5374 15.328 16.7256 15.2321 16.9095C15.1363 17.0934 15.0125 17.2664 14.8608 17.4287C14.7067 17.5935 14.5342 17.7349 14.3432 17.8528C14.1571 17.9706 13.9618 18.0474 13.7575 18.0832C13.5531 18.1139 13.3443 18.096 13.1311 18.0294C12.9179 17.9629 12.7108 17.8288 12.5099 17.6272L11.7087 16.8231C11.5053 16.619 11.3681 16.4077 11.2971 16.189C11.2261 15.9703 11.2046 15.7546 11.2325 15.5418C11.2605 15.3291 11.3295 15.1232 11.4396 14.9241C11.5473 14.7226 11.6793 14.5381 11.8357 14.3708C11.9993 14.1959 12.1657 14.0533 12.3351 13.9432C12.5045 13.8331 12.6493 13.7671 12.7695 13.7453C12.8969 13.7208 13.0152 13.7339 13.1245 13.7846C13.2314 13.8328 13.3027 13.9191 13.3384 14.0434C13.3665 14.1454 13.3645 14.2416 13.3322 14.332C13.2999 14.4225 13.2468 14.4945 13.1729 14.5481C13.1253 14.5838 13.0775 14.6121 13.0296 14.6328C12.9817 14.6486 12.9385 14.6642 12.9002 14.6798C12.7854 14.7366 12.6474 14.8512 12.4862 15.0236C12.4246 15.0895 12.374 15.1665 12.3344 15.2546C12.2924 15.3402 12.2674 15.4305 12.2592 15.5255C12.2487 15.6181 12.2598 15.7129 12.2927 15.8097C12.3256 15.9066 12.3837 15.9969 12.467 16.0805L13.2021 16.8181C13.2878 16.9042 13.3768 16.964 13.4689 16.9975C13.5586 17.0285 13.648 17.0396 13.737 17.0307C13.826 17.0168 13.9111 16.9892 13.9924 16.9479C14.0737 16.9017 14.1463 16.8443 14.2103 16.7759C14.2695 16.7125 14.3202 16.643 14.3624 16.5674C14.4021 16.4893 14.4286 16.4127 14.4419 16.3376C14.4527 16.26 14.4479 16.1839 14.4274 16.1093C14.4045 16.0322 14.3599 15.9605 14.2938 15.8941L14.2497 15.8498C14.2129 15.8129 14.1837 15.7959 14.1621 15.7988C14.1428 15.7991 14.1166 15.817 14.0834 15.8525L13.9661 15.978C13.9139 16.0338 13.8615 16.0721 13.8088 16.0929C13.7536 16.1112 13.6995 16.1183 13.6464 16.1142C13.5957 16.1075 13.546 16.0921 13.4974 16.0678C13.4512 16.0411 13.4097 16.0093 13.3729 15.9724C13.3362 15.9355 13.3042 15.8936 13.2769 15.8466C13.2495 15.7945 13.2318 15.7424 13.2238 15.69C13.2156 15.6327 13.2195 15.5752 13.2355 15.5175C13.2538 15.4573 13.2878 15.4005 13.3376 15.3473L13.6611 15.0012C13.7654 14.8896 13.8617 14.8069 13.95 14.7531C14.0359 14.6968 14.1199 14.6704 14.2019 14.6741C14.2838 14.6728 14.3675 14.7002 14.4527 14.7563C14.5379 14.8074 14.632 14.8846 14.7349 14.9879L14.9333 15.187Z" fill="#D58321"/>
<path d="M14.698 13.8972C14.5323 13.6491 14.4374 13.4101 14.4133 13.1801C14.3872 12.9472 14.4096 12.7308 14.4806 12.5307C14.5496 12.3278 14.653 12.145 14.7907 11.9824C14.9293 11.8149 15.0777 11.6746 15.2359 11.5613C15.3912 11.4501 15.5676 11.3579 15.765 11.2847C15.9633 11.2066 16.1663 11.17 16.3741 11.1747C16.5799 11.1766 16.7833 11.2312 16.9845 11.3387C17.1866 11.4413 17.3705 11.6166 17.5361 11.8647L18.1689 12.8122C18.3345 13.0603 18.429 13.3018 18.4523 13.5367C18.4764 13.7667 18.454 13.9831 18.385 14.1861C18.314 14.3861 18.2082 14.5685 18.0677 14.7331C17.9319 14.8985 17.7863 15.0369 17.631 15.1481C17.4757 15.2594 17.2979 15.3526 17.0976 15.4278C16.9021 15.5038 16.7015 15.5409 16.4957 15.5391C16.288 15.5343 16.0831 15.4807 15.881 15.3781C15.6798 15.2706 15.4964 15.0928 15.3307 14.8448L14.698 13.8972ZM16.6546 12.4576C16.5911 12.3624 16.5192 12.2923 16.4391 12.2474C16.3618 12.2004 16.281 12.173 16.1965 12.1653C16.112 12.1576 16.0306 12.1669 15.9521 12.1932C15.8718 12.2167 15.7977 12.2526 15.7299 12.3012C15.6621 12.3497 15.6035 12.4088 15.5539 12.4784C15.5025 12.5451 15.4653 12.6207 15.4425 12.7053C15.4196 12.7899 15.4144 12.8789 15.4267 12.9724C15.4419 13.0639 15.4812 13.1572 15.5448 13.2524L16.2122 14.2519C16.27 14.3384 16.339 14.4041 16.4191 14.4491C16.502 14.492 16.5867 14.5188 16.6731 14.5294C16.7576 14.5371 16.8409 14.5307 16.9232 14.5102C17.0064 14.4847 17.0777 14.4507 17.137 14.4083C17.1963 14.3658 17.2507 14.3098 17.3002 14.2402C17.3507 14.1657 17.3873 14.0861 17.4101 14.0016C17.4311 13.9141 17.4353 13.8236 17.423 13.7301C17.4135 13.6346 17.3798 13.5436 17.3221 13.4571L16.6546 12.4576Z" fill="#D58321"/>
<path d="M18.1737 11.4893C18.0587 11.2143 18.0115 10.9621 18.0322 10.7326C18.0516 10.4998 18.1156 10.2927 18.2242 10.1111C18.3315 9.92637 18.4686 9.76807 18.6357 9.63624C18.8046 9.49979 18.9779 9.39176 19.1555 9.31215C19.33 9.23397 19.5215 9.17852 19.73 9.14581C19.9404 9.10849 20.1474 9.11255 20.351 9.158C20.5533 9.20026 20.7431 9.29368 20.9203 9.43827C21.0994 9.57823 21.2465 9.78571 21.3616 10.0607L21.8012 11.1111C21.9162 11.3861 21.9625 11.6406 21.9399 11.8748C21.9192 12.1043 21.8552 12.3114 21.7479 12.4962C21.6393 12.6778 21.4999 12.8352 21.3297 12.9684C21.1639 13.1034 20.9938 13.21 20.8194 13.2882C20.6449 13.3664 20.4518 13.4226 20.2401 13.4567C20.0329 13.4926 19.8281 13.4894 19.6259 13.4472C19.4223 13.4017 19.2309 13.309 19.0518 13.169C18.8745 13.0245 18.7284 12.8147 18.6133 12.5397L18.1737 11.4893ZM20.3789 10.4669C20.3348 10.3614 20.2776 10.2788 20.2074 10.2191C20.1404 10.158 20.0661 10.1154 19.9844 10.0912C19.9027 10.0671 19.8207 10.0602 19.7384 10.0705C19.6548 10.0776 19.5749 10.0982 19.4987 10.1323C19.4226 10.1664 19.3534 10.2126 19.2912 10.2709C19.2276 10.326 19.1763 10.3926 19.1375 10.4708C19.0986 10.5489 19.0762 10.6349 19.0703 10.7287C19.0675 10.8211 19.0882 10.92 19.1323 11.0256L19.596 12.1335C19.6361 12.2294 19.6913 12.3072 19.7614 12.3669C19.8348 12.4252 19.913 12.468 19.996 12.4953C20.0777 12.5195 20.161 12.5296 20.246 12.5257C20.3328 12.5171 20.4096 12.4979 20.4762 12.4681C20.5428 12.4382 20.6072 12.3942 20.6695 12.3359C20.7335 12.273 20.785 12.2025 20.8239 12.1243C20.8614 12.0429 20.8831 11.9553 20.8891 11.8615C20.8982 11.7663 20.8827 11.6708 20.8426 11.5748L20.3789 10.4669Z" fill="#D58321"/>
<path d="M23.2414 7.97265C23.4621 7.92351 23.686 7.90734 23.9133 7.92415C24.1433 7.93681 24.3587 7.99886 24.5596 8.11029C24.7631 8.21757 24.9427 8.37989 25.0981 8.59726C25.2536 8.81462 25.3681 9.09967 25.4417 9.4524L25.5107 9.78308C25.5843 10.1358 25.5936 10.4443 25.5386 10.7085C25.4836 10.9728 25.3852 11.1988 25.2432 11.3866C25.1039 11.5702 24.9323 11.7184 24.7285 11.8313C24.5274 11.9399 24.3165 12.0189 24.0959 12.068L23.3372 12.237C23.1845 12.271 23.0543 12.2858 22.9468 12.2813C22.8386 12.2735 22.7473 12.2442 22.6727 12.1933C22.5982 12.1425 22.5367 12.0692 22.4883 11.9735C22.4433 11.8771 22.4056 11.7559 22.3752 11.6101L21.8561 9.12235C21.8257 8.97651 21.8118 8.85007 21.8143 8.74303C21.8202 8.63523 21.847 8.54231 21.8947 8.46426C21.9423 8.38621 22.0142 8.32228 22.1104 8.27247C22.2059 8.21926 22.33 8.17565 22.4827 8.14163L23.2414 7.97265ZM24.386 9.60235C24.3238 9.30388 24.2034 9.0929 24.0248 8.9694C23.8456 8.8425 23.6355 8.8059 23.3945 8.85957L23.0584 8.93442C23.0007 8.94727 22.9638 8.96614 22.9477 8.99103C22.9309 9.01252 22.9288 9.0538 22.9416 9.11484L23.3672 11.1549C23.3799 11.2159 23.3986 11.2544 23.4232 11.2702C23.4471 11.2826 23.4879 11.2824 23.5456 11.2695L23.8817 11.1947C24.1227 11.141 24.2999 11.0199 24.4133 10.8314C24.526 10.6395 24.5513 10.3943 24.489 10.0958L24.386 9.60235Z" fill="#D58321"/>
<path d="M29.7833 8.75657C29.8017 8.67192 29.8313 8.60055 29.8724 8.54246C29.9168 8.48515 29.9671 8.44165 30.0234 8.41195C30.0796 8.38225 30.1404 8.36428 30.2058 8.35802C30.2746 8.35255 30.3446 8.35801 30.4158 8.37442C30.5581 8.40723 30.6713 8.47599 30.7553 8.5807C30.8428 8.68619 30.8678 8.82528 30.8305 8.99798L30.3654 11.1465C30.3053 11.4242 30.2133 11.6519 30.0894 11.8295C29.9656 12.0072 29.8189 12.1423 29.6495 12.2347C29.4842 12.3246 29.3024 12.3752 29.1043 12.3864C28.9089 12.4017 28.7078 12.3856 28.5011 12.3379C28.3926 12.3129 28.2809 12.2783 28.166 12.234C28.0511 12.1898 27.9421 12.1344 27.839 12.068C27.7387 12.0058 27.6476 11.9332 27.5659 11.8504C27.485 11.7642 27.4222 11.6679 27.3776 11.5617C27.354 11.5064 27.3399 11.4481 27.3354 11.3866C27.3344 11.3259 27.3417 11.2672 27.3576 11.2104C27.3768 11.1544 27.4038 11.1037 27.4385 11.0584C27.4766 11.0139 27.5248 10.9805 27.5829 10.9584C27.6699 10.918 27.7582 10.9046 27.8478 10.9181C27.9381 10.9283 28.02 10.9525 28.0936 10.9908C28.1381 11.0153 28.1727 11.0446 28.1973 11.0787C28.226 11.1102 28.2565 11.1421 28.2886 11.1744C28.3181 11.2025 28.3429 11.2278 28.363 11.2502C28.3871 11.27 28.4134 11.2885 28.4417 11.3057C28.47 11.3229 28.502 11.3391 28.5378 11.3545C28.5744 11.3665 28.6215 11.3791 28.6791 11.3924C28.8248 11.426 28.9554 11.4063 29.0708 11.3334C29.1903 11.2578 29.2754 11.1032 29.3259 10.8696L29.7833 8.75657Z" fill="#D58321"/>
<path d="M31.6782 10.4031C31.7953 10.129 31.9423 9.92192 32.1193 9.78185C32.2977 9.63858 32.4882 9.54657 32.6907 9.50582C32.8947 9.46188 33.1001 9.45863 33.307 9.49608C33.5185 9.53178 33.7128 9.59009 33.8898 9.67101C34.0637 9.75049 34.233 9.85836 34.3977 9.99462C34.5669 10.1291 34.7045 10.2892 34.8104 10.4747C34.9176 10.6571 34.98 10.8647 34.9977 11.0976C35.0198 11.3287 34.9724 11.5813 34.8552 11.8554L34.4078 12.9025C34.2907 13.1766 34.1414 13.3846 33.9599 13.5264C33.7829 13.6665 33.5924 13.7585 33.3885 13.8024C33.1859 13.8432 32.9796 13.8441 32.7695 13.8052C32.5612 13.771 32.3701 13.7141 32.1962 13.6346C32.0223 13.5551 31.8515 13.4466 31.6836 13.3089C31.5175 13.1758 31.3808 13.0181 31.2736 12.8357C31.1677 12.6501 31.1037 12.4418 31.0815 12.2107C31.0639 11.9778 31.1136 11.7243 31.2308 11.4502L31.6782 10.4031ZM33.9001 11.3845C33.9451 11.2794 33.9649 11.1798 33.9597 11.086C33.9576 10.9936 33.9374 10.9082 33.8991 10.8297C33.8609 10.7513 33.8101 10.6843 33.747 10.6287C33.6852 10.57 33.6163 10.5233 33.5404 10.4886C33.4646 10.4539 33.3848 10.4327 33.3012 10.425C33.219 10.414 33.1369 10.4204 33.0551 10.4439C32.9732 10.4674 32.897 10.5088 32.8264 10.568C32.7589 10.6286 32.7027 10.7115 32.6578 10.8166L32.1858 11.9211C32.145 12.0167 32.1272 12.1115 32.1324 12.2053C32.1408 12.3006 32.1635 12.389 32.2004 12.4707C32.2387 12.5491 32.288 12.6193 32.3485 12.6812C32.4135 12.7414 32.4792 12.7867 32.5455 12.817C32.6119 12.8474 32.6869 12.8664 32.7705 12.8742C32.8587 12.8802 32.9436 12.8714 33.0255 12.8478C33.1087 12.8211 33.1856 12.7782 33.2563 12.719C33.33 12.6613 33.3874 12.5846 33.4282 12.489L33.9001 11.3845Z" fill="#D58321"/>
<path d="M38.2557 13.9077C38.1641 14.0426 38.0457 14.1429 37.9004 14.2087C37.7579 14.2765 37.5929 14.3001 37.4055 14.2795C37.5374 14.487 37.5998 14.6888 37.5925 14.885C37.5872 15.0783 37.527 15.2596 37.4121 15.429L37.4092 15.4333C37.2846 15.617 37.1447 15.7489 36.9896 15.829C36.8393 15.9083 36.6779 15.9452 36.5054 15.9397C36.3377 15.9334 36.1611 15.8907 35.9757 15.8115C35.795 15.7316 35.6106 15.6231 35.4224 15.4862L34.6893 14.9529C34.5629 14.861 34.4654 14.7729 34.3967 14.6886C34.33 14.6015 34.2898 14.5122 34.2763 14.4209C34.2627 14.3296 34.2739 14.2327 34.3099 14.1303C34.3486 14.0299 34.4099 13.918 34.4937 13.7946L35.9223 11.6894C36.006 11.566 36.087 11.4684 36.165 11.3966C36.2459 11.3268 36.3302 11.283 36.4177 11.2653C36.5053 11.2475 36.599 11.2578 36.6989 11.2962C36.8007 11.3316 36.9147 11.3954 37.0411 11.4873L37.6563 11.9348C37.8501 12.0758 38.01 12.2264 38.1362 12.3868C38.2671 12.5463 38.3595 12.71 38.4134 12.8778C38.4721 13.0448 38.4894 13.214 38.4655 13.3852C38.4464 13.5556 38.3823 13.7212 38.2732 13.8819L38.2557 13.9077ZM35.8251 13.715L35.4687 14.2402C35.4337 14.2919 35.4187 14.3325 35.4239 14.362C35.431 14.3886 35.4584 14.4192 35.5062 14.454L35.9696 14.7911C36.1101 14.8933 36.2326 14.9353 36.3372 14.9171C36.4466 14.8981 36.5276 14.8498 36.5802 14.7723L36.6007 14.7422C36.6533 14.6647 36.6687 14.5709 36.6469 14.4608C36.6299 14.3498 36.5512 14.2432 36.4108 14.1411L35.8251 13.715ZM36.8647 12.4521C36.8169 12.4174 36.7788 12.4025 36.7502 12.4074C36.7237 12.4095 36.6928 12.4364 36.6578 12.4881L36.3013 13.0133L36.7606 13.3474C36.8308 13.3985 36.897 13.4338 36.9593 13.4533C37.0235 13.47 37.0808 13.4753 37.1311 13.469C37.1863 13.462 37.2325 13.4464 37.2699 13.4221C37.3121 13.3971 37.3459 13.3659 37.3712 13.3286L37.3916 13.2984C37.4442 13.221 37.4596 13.1271 37.4379 13.017C37.4209 12.906 37.3422 12.7995 37.2017 12.6973L36.8647 12.4521Z" fill="#D58321"/>
</g>
<path d="M14.9333 15.187C15.1195 15.3739 15.2492 15.5654 15.3222 15.7616C15.3953 15.9578 15.4225 16.1521 15.4039 16.3448C15.3853 16.5374 15.328 16.7256 15.2321 16.9095C15.1363 17.0934 15.0125 17.2664 14.8608 17.4287C14.7067 17.5935 14.5342 17.7349 14.3432 17.8528C14.1571 17.9706 13.9618 18.0474 13.7575 18.0832C13.5531 18.1139 13.3443 18.096 13.1311 18.0294C12.9179 17.9629 12.7108 17.8288 12.5099 17.6272L11.7087 16.8231C11.5053 16.619 11.3681 16.4077 11.2971 16.189C11.2261 15.9703 11.2046 15.7546 11.2325 15.5418C11.2605 15.3291 11.3295 15.1232 11.4396 14.9241C11.5473 14.7226 11.6793 14.5381 11.8357 14.3708C11.9993 14.1959 12.1657 14.0533 12.3351 13.9432C12.5045 13.8331 12.6493 13.7671 12.7695 13.7453C12.8969 13.7208 13.0152 13.7339 13.1245 13.7846C13.2314 13.8328 13.3027 13.9191 13.3384 14.0434C13.3665 14.1454 13.3645 14.2416 13.3322 14.332C13.2999 14.4225 13.2468 14.4945 13.1729 14.5481C13.1253 14.5838 13.0775 14.6121 13.0296 14.6328C12.9817 14.6486 12.9385 14.6642 12.9002 14.6798C12.7854 14.7366 12.6474 14.8512 12.4862 15.0236C12.4246 15.0895 12.374 15.1665 12.3344 15.2546C12.2924 15.3402 12.2674 15.4305 12.2592 15.5255C12.2487 15.6181 12.2598 15.7129 12.2927 15.8097C12.3256 15.9066 12.3837 15.9969 12.467 16.0805L13.2021 16.8181C13.2878 16.9042 13.3768 16.964 13.4689 16.9975C13.5586 17.0285 13.648 17.0396 13.737 17.0307C13.826 17.0168 13.9111 16.9892 13.9924 16.9479C14.0737 16.9017 14.1463 16.8443 14.2103 16.7759C14.2695 16.7125 14.3202 16.643 14.3624 16.5674C14.4021 16.4893 14.4286 16.4127 14.4419 16.3376C14.4527 16.26 14.4479 16.1839 14.4274 16.1093C14.4045 16.0322 14.3599 15.9605 14.2938 15.8941L14.2497 15.8498C14.2129 15.8129 14.1837 15.7959 14.1621 15.7988C14.1428 15.7991 14.1166 15.817 14.0834 15.8525L13.9661 15.978C13.9139 16.0338 13.8615 16.0721 13.8088 16.0929C13.7536 16.1112 13.6995 16.1183 13.6464 16.1142C13.5957 16.1075 13.546 16.0921 13.4974 16.0678C13.4512 16.0411 13.4097 16.0093 13.3729 15.9724C13.3362 15.9355 13.3042 15.8936 13.2769 15.8466C13.2495 15.7945 13.2318 15.7424 13.2238 15.69C13.2156 15.6327 13.2195 15.5752 13.2355 15.5175C13.2538 15.4573 13.2878 15.4005 13.3376 15.3473L13.6611 15.0012C13.7654 14.8896 13.8617 14.8069 13.95 14.7531C14.0359 14.6968 14.1199 14.6704 14.2019 14.6741C14.2838 14.6728 14.3675 14.7002 14.4527 14.7563C14.5379 14.8074 14.632 14.8846 14.7349 14.9879L14.9333 15.187Z" stroke="url(#paint5_linear_218_2536)" stroke-width="0.6" mask="url(#path-15-outside-1_218_2536)"/>
<path d="M14.698 13.8972C14.5323 13.6491 14.4374 13.4101 14.4133 13.1801C14.3872 12.9472 14.4096 12.7308 14.4806 12.5307C14.5496 12.3278 14.653 12.145 14.7907 11.9824C14.9293 11.8149 15.0777 11.6746 15.2359 11.5613C15.3912 11.4501 15.5676 11.3579 15.765 11.2847C15.9633 11.2066 16.1663 11.17 16.3741 11.1747C16.5799 11.1766 16.7833 11.2312 16.9845 11.3387C17.1866 11.4413 17.3705 11.6166 17.5361 11.8647L18.1689 12.8122C18.3345 13.0603 18.429 13.3018 18.4523 13.5367C18.4764 13.7667 18.454 13.9831 18.385 14.1861C18.314 14.3861 18.2082 14.5685 18.0677 14.7331C17.9319 14.8985 17.7863 15.0369 17.631 15.1481C17.4757 15.2594 17.2979 15.3526 17.0976 15.4278C16.9021 15.5038 16.7015 15.5409 16.4957 15.5391C16.288 15.5343 16.0831 15.4807 15.881 15.3781C15.6798 15.2706 15.4964 15.0928 15.3307 14.8448L14.698 13.8972ZM16.6546 12.4576C16.5911 12.3624 16.5192 12.2923 16.4391 12.2474C16.3618 12.2004 16.281 12.173 16.1965 12.1653C16.112 12.1576 16.0306 12.1669 15.9521 12.1932C15.8718 12.2167 15.7977 12.2526 15.7299 12.3012C15.6621 12.3497 15.6035 12.4088 15.5539 12.4784C15.5025 12.5451 15.4653 12.6207 15.4425 12.7053C15.4196 12.7899 15.4144 12.8789 15.4267 12.9724C15.4419 13.0639 15.4812 13.1572 15.5448 13.2524L16.2122 14.2519C16.27 14.3384 16.339 14.4041 16.4191 14.4491C16.502 14.492 16.5867 14.5188 16.6731 14.5294C16.7576 14.5371 16.8409 14.5307 16.9232 14.5102C17.0064 14.4847 17.0777 14.4507 17.137 14.4083C17.1963 14.3658 17.2507 14.3098 17.3002 14.2402C17.3507 14.1657 17.3873 14.0861 17.4101 14.0016C17.4311 13.9141 17.4353 13.8236 17.423 13.7301C17.4135 13.6346 17.3798 13.5436 17.3221 13.4571L16.6546 12.4576Z" stroke="url(#paint6_linear_218_2536)" stroke-width="0.6" mask="url(#path-15-outside-1_218_2536)"/>
<path d="M18.1737 11.4893C18.0587 11.2143 18.0115 10.9621 18.0322 10.7326C18.0516 10.4998 18.1156 10.2927 18.2242 10.1111C18.3315 9.92637 18.4686 9.76807 18.6357 9.63624C18.8046 9.49979 18.9779 9.39176 19.1555 9.31215C19.33 9.23397 19.5215 9.17852 19.73 9.14581C19.9404 9.10849 20.1474 9.11255 20.351 9.158C20.5533 9.20026 20.7431 9.29368 20.9203 9.43827C21.0994 9.57823 21.2465 9.78571 21.3616 10.0607L21.8012 11.1111C21.9162 11.3861 21.9625 11.6406 21.9399 11.8748C21.9192 12.1043 21.8552 12.3114 21.7479 12.4962C21.6393 12.6778 21.4999 12.8352 21.3297 12.9684C21.1639 13.1034 20.9938 13.21 20.8194 13.2882C20.6449 13.3664 20.4518 13.4226 20.2401 13.4567C20.0329 13.4926 19.8281 13.4894 19.6259 13.4472C19.4223 13.4017 19.2309 13.309 19.0518 13.169C18.8745 13.0245 18.7284 12.8147 18.6133 12.5397L18.1737 11.4893ZM20.3789 10.4669C20.3348 10.3614 20.2776 10.2788 20.2074 10.2191C20.1404 10.158 20.0661 10.1154 19.9844 10.0912C19.9027 10.0671 19.8207 10.0602 19.7384 10.0705C19.6548 10.0776 19.5749 10.0982 19.4987 10.1323C19.4226 10.1664 19.3534 10.2126 19.2912 10.2709C19.2276 10.326 19.1763 10.3926 19.1375 10.4708C19.0986 10.5489 19.0762 10.6349 19.0703 10.7287C19.0675 10.8211 19.0882 10.92 19.1323 11.0256L19.596 12.1335C19.6361 12.2294 19.6913 12.3072 19.7614 12.3669C19.8348 12.4252 19.913 12.468 19.996 12.4953C20.0777 12.5195 20.161 12.5296 20.246 12.5257C20.3328 12.5171 20.4096 12.4979 20.4762 12.4681C20.5428 12.4382 20.6072 12.3942 20.6695 12.3359C20.7335 12.273 20.785 12.2025 20.8239 12.1243C20.8614 12.0429 20.8831 11.9553 20.8891 11.8615C20.8982 11.7663 20.8827 11.6708 20.8426 11.5748L20.3789 10.4669Z" stroke="url(#paint7_linear_218_2536)" stroke-width="0.6" mask="url(#path-15-outside-1_218_2536)"/>
<path d="M23.2414 7.97265C23.4621 7.92351 23.686 7.90734 23.9133 7.92415C24.1433 7.93681 24.3587 7.99886 24.5596 8.11029C24.7631 8.21757 24.9427 8.37989 25.0981 8.59726C25.2536 8.81462 25.3681 9.09967 25.4417 9.4524L25.5107 9.78308C25.5843 10.1358 25.5936 10.4443 25.5386 10.7085C25.4836 10.9728 25.3852 11.1988 25.2432 11.3866C25.1039 11.5702 24.9323 11.7184 24.7285 11.8313C24.5274 11.9399 24.3165 12.0189 24.0959 12.068L23.3372 12.237C23.1845 12.271 23.0543 12.2858 22.9468 12.2813C22.8386 12.2735 22.7473 12.2442 22.6727 12.1933C22.5982 12.1425 22.5367 12.0692 22.4883 11.9735C22.4433 11.8771 22.4056 11.7559 22.3752 11.6101L21.8561 9.12235C21.8257 8.97651 21.8118 8.85007 21.8143 8.74303C21.8202 8.63523 21.847 8.54231 21.8947 8.46426C21.9423 8.38621 22.0142 8.32228 22.1104 8.27247C22.2059 8.21926 22.33 8.17565 22.4827 8.14163L23.2414 7.97265ZM24.386 9.60235C24.3238 9.30388 24.2034 9.0929 24.0248 8.9694C23.8456 8.8425 23.6355 8.8059 23.3945 8.85957L23.0584 8.93442C23.0007 8.94727 22.9638 8.96614 22.9477 8.99103C22.9309 9.01252 22.9288 9.0538 22.9416 9.11484L23.3672 11.1549C23.3799 11.2159 23.3986 11.2544 23.4232 11.2702C23.4471 11.2826 23.4879 11.2824 23.5456 11.2695L23.8817 11.1947C24.1227 11.141 24.2999 11.0199 24.4133 10.8314C24.526 10.6395 24.5513 10.3943 24.489 10.0958L24.386 9.60235Z" stroke="url(#paint8_linear_218_2536)" stroke-width="0.6" mask="url(#path-15-outside-1_218_2536)"/>
<path d="M29.7833 8.75657C29.8017 8.67192 29.8313 8.60055 29.8724 8.54246C29.9168 8.48515 29.9671 8.44165 30.0234 8.41195C30.0796 8.38225 30.1404 8.36428 30.2058 8.35802C30.2746 8.35255 30.3446 8.35801 30.4158 8.37442C30.5581 8.40723 30.6713 8.47599 30.7553 8.5807C30.8428 8.68619 30.8678 8.82528 30.8305 8.99798L30.3654 11.1465C30.3053 11.4242 30.2133 11.6519 30.0894 11.8295C29.9656 12.0072 29.8189 12.1423 29.6495 12.2347C29.4842 12.3246 29.3024 12.3752 29.1043 12.3864C28.9089 12.4017 28.7078 12.3856 28.5011 12.3379C28.3926 12.3129 28.2809 12.2783 28.166 12.234C28.0511 12.1898 27.9421 12.1344 27.839 12.068C27.7387 12.0058 27.6476 11.9332 27.5659 11.8504C27.485 11.7642 27.4222 11.6679 27.3776 11.5617C27.354 11.5064 27.3399 11.4481 27.3354 11.3866C27.3344 11.3259 27.3417 11.2672 27.3576 11.2104C27.3768 11.1544 27.4038 11.1037 27.4385 11.0584C27.4766 11.0139 27.5248 10.9805 27.5829 10.9584C27.6699 10.918 27.7582 10.9046 27.8478 10.9181C27.9381 10.9283 28.02 10.9525 28.0936 10.9908C28.1381 11.0153 28.1727 11.0446 28.1973 11.0787C28.226 11.1102 28.2565 11.1421 28.2886 11.1744C28.3181 11.2025 28.3429 11.2278 28.363 11.2502C28.3871 11.27 28.4134 11.2885 28.4417 11.3057C28.47 11.3229 28.502 11.3391 28.5378 11.3545C28.5744 11.3665 28.6215 11.3791 28.6791 11.3924C28.8248 11.426 28.9554 11.4063 29.0708 11.3334C29.1903 11.2578 29.2754 11.1032 29.3259 10.8696L29.7833 8.75657Z" stroke="url(#paint9_linear_218_2536)" stroke-width="0.6" mask="url(#path-15-outside-1_218_2536)"/>
<path d="M31.6782 10.4031C31.7953 10.129 31.9423 9.92192 32.1193 9.78185C32.2977 9.63858 32.4882 9.54657 32.6907 9.50582C32.8947 9.46188 33.1001 9.45863 33.307 9.49608C33.5185 9.53178 33.7128 9.59009 33.8898 9.67101C34.0637 9.75049 34.233 9.85836 34.3977 9.99462C34.5669 10.1291 34.7045 10.2892 34.8104 10.4747C34.9176 10.6571 34.98 10.8647 34.9977 11.0976C35.0198 11.3287 34.9724 11.5813 34.8552 11.8554L34.4078 12.9025C34.2907 13.1766 34.1414 13.3846 33.9599 13.5264C33.7829 13.6665 33.5924 13.7585 33.3885 13.8024C33.1859 13.8432 32.9796 13.8441 32.7695 13.8052C32.5612 13.771 32.3701 13.7141 32.1962 13.6346C32.0223 13.5551 31.8515 13.4466 31.6836 13.3089C31.5175 13.1758 31.3808 13.0181 31.2736 12.8357C31.1677 12.6501 31.1037 12.4418 31.0815 12.2107C31.0639 11.9778 31.1136 11.7243 31.2308 11.4502L31.6782 10.4031ZM33.9001 11.3845C33.9451 11.2794 33.9649 11.1798 33.9597 11.086C33.9576 10.9936 33.9374 10.9082 33.8991 10.8297C33.8609 10.7513 33.8101 10.6843 33.747 10.6287C33.6852 10.57 33.6163 10.5233 33.5404 10.4886C33.4646 10.4539 33.3848 10.4327 33.3012 10.425C33.219 10.414 33.1369 10.4204 33.0551 10.4439C32.9732 10.4674 32.897 10.5088 32.8264 10.568C32.7589 10.6286 32.7027 10.7115 32.6578 10.8166L32.1858 11.9211C32.145 12.0167 32.1272 12.1115 32.1324 12.2053C32.1408 12.3006 32.1635 12.389 32.2004 12.4707C32.2387 12.5491 32.288 12.6193 32.3485 12.6812C32.4135 12.7414 32.4792 12.7867 32.5455 12.817C32.6119 12.8474 32.6869 12.8664 32.7705 12.8742C32.8587 12.8802 32.9436 12.8714 33.0255 12.8478C33.1087 12.8211 33.1856 12.7782 33.2563 12.719C33.33 12.6613 33.3874 12.5846 33.4282 12.489L33.9001 11.3845Z" stroke="url(#paint10_linear_218_2536)" stroke-width="0.6" mask="url(#path-15-outside-1_218_2536)"/>
<path d="M38.2557 13.9077C38.1641 14.0426 38.0457 14.1429 37.9004 14.2087C37.7579 14.2765 37.5929 14.3001 37.4055 14.2795C37.5374 14.487 37.5998 14.6888 37.5925 14.885C37.5872 15.0783 37.527 15.2596 37.4121 15.429L37.4092 15.4333C37.2846 15.617 37.1447 15.7489 36.9896 15.829C36.8393 15.9083 36.6779 15.9452 36.5054 15.9397C36.3377 15.9334 36.1611 15.8907 35.9757 15.8115C35.795 15.7316 35.6106 15.6231 35.4224 15.4862L34.6893 14.9529C34.5629 14.861 34.4654 14.7729 34.3967 14.6886C34.33 14.6015 34.2898 14.5122 34.2763 14.4209C34.2627 14.3296 34.2739 14.2327 34.3099 14.1303C34.3486 14.0299 34.4099 13.918 34.4937 13.7946L35.9223 11.6894C36.006 11.566 36.087 11.4684 36.165 11.3966C36.2459 11.3268 36.3302 11.283 36.4177 11.2653C36.5053 11.2475 36.599 11.2578 36.6989 11.2962C36.8007 11.3316 36.9147 11.3954 37.0411 11.4873L37.6563 11.9348C37.8501 12.0758 38.01 12.2264 38.1362 12.3868C38.2671 12.5463 38.3595 12.71 38.4134 12.8778C38.4721 13.0448 38.4894 13.214 38.4655 13.3852C38.4464 13.5556 38.3823 13.7212 38.2732 13.8819L38.2557 13.9077ZM35.8251 13.715L35.4687 14.2402C35.4337 14.2919 35.4187 14.3325 35.4239 14.362C35.431 14.3886 35.4584 14.4192 35.5062 14.454L35.9696 14.7911C36.1101 14.8933 36.2326 14.9353 36.3372 14.9171C36.4466 14.8981 36.5276 14.8498 36.5802 14.7723L36.6007 14.7422C36.6533 14.6647 36.6687 14.5709 36.6469 14.4608C36.6299 14.3498 36.5512 14.2432 36.4108 14.1411L35.8251 13.715ZM36.8647 12.4521C36.8169 12.4174 36.7788 12.4025 36.7502 12.4074C36.7237 12.4095 36.6928 12.4364 36.6578 12.4881L36.3013 13.0133L36.7606 13.3474C36.8308 13.3985 36.897 13.4338 36.9593 13.4533C37.0235 13.47 37.0808 13.4753 37.1311 13.469C37.1863 13.462 37.2325 13.4464 37.2699 13.4221C37.3121 13.3971 37.3459 13.3659 37.3712 13.3286L37.3916 13.2984C37.4442 13.221 37.4596 13.1271 37.4379 13.017C37.4209 12.906 37.3422 12.7995 37.2017 12.6973L36.8647 12.4521Z" stroke="url(#paint11_linear_218_2536)" stroke-width="0.6" mask="url(#path-15-outside-1_218_2536)"/>
</g>
<g id="Star 1">
<g filter="url(#filter2_i_218_2536)">
<path d="M10.8325 21.7224C11.0058 21.414 11.4356 21.414 11.6089 21.7224L12.0288 22.4699C12.0923 22.5829 12.1987 22.663 12.322 22.6907L13.1374 22.8737C13.4739 22.9493 13.6068 23.3731 13.3773 23.6393L12.8215 24.2843C12.7374 24.3818 12.6968 24.5115 12.7095 24.6416L12.7935 25.5021C12.8282 25.8573 12.4804 26.1192 12.1653 25.9753L11.4019 25.6265C11.2864 25.5738 11.155 25.5738 11.0395 25.6265L10.2761 25.9753C9.96095 26.1192 9.61319 25.8573 9.64788 25.5021L9.73192 24.6416C9.74463 24.5115 9.704 24.3818 9.61995 24.2843L9.06406 23.6393C8.83462 23.3731 8.96746 22.9493 9.304 22.8737L10.1194 22.6907C10.2427 22.663 10.3491 22.5829 10.4126 22.4699L10.8325 21.7224Z" fill="#D58321"/>
</g>
<path d="M11.7397 21.649C11.5091 21.2385 10.9323 21.2385 10.7017 21.649L10.2818 22.3964C10.2385 22.4734 10.1671 22.5262 10.0866 22.5443L9.27114 22.7274C8.81819 22.8291 8.65103 23.3899 8.95043 23.7372L9.50633 24.3822C9.56314 24.4482 9.59142 24.537 9.58263 24.627L9.49859 25.4875C9.45367 25.9474 9.9088 26.308 10.3384 26.1117L11.1019 25.7629C11.1777 25.7283 11.2637 25.7283 11.3395 25.7629L12.103 26.1117C12.5326 26.308 12.9877 25.9474 12.9428 25.4875L12.8588 24.627C12.85 24.537 12.8783 24.4482 12.9351 24.3822L13.491 23.7372C13.7904 23.3899 13.6232 22.8291 13.1703 22.7274L12.3548 22.5443C12.2743 22.5262 12.2029 22.4734 12.1596 22.3964L11.7397 21.649Z" stroke="url(#paint12_linear_218_2536)" stroke-width="0.3"/>
</g>
<g id="Star 3">
<g filter="url(#filter3_i_218_2536)">
<path d="M11.613 29.5139C11.6913 29.3738 11.8857 29.3738 11.9641 29.5139L12.3839 30.2641C12.4126 30.3154 12.4607 30.3518 12.5165 30.3643L13.3316 30.5481C13.4838 30.5824 13.5439 30.7748 13.4401 30.8957L12.8844 31.5431C12.8464 31.5873 12.828 31.6462 12.8338 31.7053L12.9178 32.569C12.9335 32.7303 12.7762 32.8492 12.6337 32.7839L11.8705 32.4338C11.8183 32.4098 11.7588 32.4098 11.7066 32.4338L10.9433 32.7839C10.8009 32.8492 10.6436 32.7303 10.6593 32.569L10.7433 31.7053C10.749 31.6462 10.7307 31.5873 10.6927 31.5431L10.1369 30.8957C10.0332 30.7748 10.0932 30.5824 10.2454 30.5481L11.0606 30.3643C11.1164 30.3518 11.1645 30.3154 11.1932 30.2641L11.613 29.5139Z" fill="#D58321"/>
</g>
<path d="M12.095 29.4406C11.9594 29.1982 11.6177 29.1982 11.4821 29.4406L11.0623 30.1908C11.0537 30.2062 11.0405 30.2151 11.0276 30.218L10.2124 30.4017C9.94342 30.4624 9.85008 30.7918 10.0231 30.9934L10.5788 31.6408C10.5897 31.6534 10.5959 31.6716 10.594 31.6908L10.51 32.5545C10.4842 32.8194 10.7479 33.0386 11.0059 32.9202L11.7691 32.5701C11.7816 32.5644 11.7954 32.5644 11.8079 32.5701L12.5712 32.9202C12.8292 33.0386 13.0929 32.8194 13.0671 32.5545L12.9831 31.6908C12.9812 31.6716 12.9874 31.6534 12.9982 31.6408L13.554 30.9934C13.727 30.7918 13.6336 30.4624 13.3646 30.4017L12.5494 30.218C12.5366 30.2151 12.5234 30.2062 12.5148 30.1908L12.095 29.4406Z" stroke="url(#paint13_linear_218_2536)" stroke-width="0.3"/>
</g>
<path id="Star 4" d="M38.8682 29.5139C38.9465 29.3738 39.1409 29.3738 39.2193 29.5139L39.6391 30.2641C39.6678 30.3154 39.7159 30.3518 39.7716 30.3643L40.5868 30.5481C40.739 30.5824 40.7991 30.7748 40.6953 30.8957L40.1396 31.5431C40.1016 31.5873 40.0832 31.6462 40.089 31.7053L40.173 32.569C40.1887 32.7303 40.0314 32.8492 39.8889 32.7839L39.1257 32.4338C39.0735 32.4098 39.014 32.4098 38.9618 32.4338L38.1985 32.7839C38.056 32.8492 37.8988 32.7303 37.9145 32.569L37.9985 31.7053C38.0042 31.6462 37.9858 31.5873 37.9478 31.5431L37.3921 30.8957C37.2884 30.7748 37.3484 30.5824 37.5006 30.5481L38.3158 30.3643C38.3715 30.3518 38.4197 30.3154 38.4484 30.2641L38.8682 29.5139Z" fill="#E9993B"/>
<g id="Star 5">
<g filter="url(#filter4_i_218_2536)">
<path d="M38.8682 29.5139C38.9465 29.3738 39.1409 29.3738 39.2193 29.5139L39.6391 30.2641C39.6678 30.3154 39.7159 30.3518 39.7716 30.3643L40.5868 30.5481C40.739 30.5824 40.7991 30.7748 40.6953 30.8957L40.1396 31.5431C40.1016 31.5873 40.0832 31.6462 40.089 31.7053L40.173 32.569C40.1887 32.7303 40.0314 32.8492 39.8889 32.7839L39.1257 32.4338C39.0735 32.4098 39.014 32.4098 38.9618 32.4338L38.1985 32.7839C38.056 32.8492 37.8988 32.7303 37.9145 32.569L37.9985 31.7053C38.0042 31.6462 37.9858 31.5873 37.9478 31.5431L37.3921 30.8957C37.2884 30.7748 37.3484 30.5824 37.5006 30.5481L38.3158 30.3643C38.3715 30.3518 38.4197 30.3154 38.4484 30.2641L38.8682 29.5139Z" fill="#D58321"/>
</g>
<path d="M39.3502 29.4406C39.2146 29.1982 38.8729 29.1982 38.7373 29.4406L38.3175 30.1908C38.3089 30.2062 38.2957 30.2151 38.2828 30.218L37.4676 30.4017C37.1986 30.4624 37.1053 30.7918 37.2783 30.9934L37.834 31.6408C37.8449 31.6534 37.851 31.6716 37.8492 31.6908L37.7652 32.5545C37.7394 32.8194 38.0031 33.0386 38.2611 32.9202L39.0243 32.5701C39.0368 32.5644 39.0506 32.5644 39.0631 32.5701L39.8264 32.9202C40.0844 33.0386 40.348 32.8194 40.3223 32.5545L40.2383 31.6908C40.2364 31.6716 40.2425 31.6534 40.2534 31.6408L40.8092 30.9934C40.9822 30.7918 40.8888 30.4624 40.6198 30.4017L39.8046 30.218C39.7918 30.2151 39.7786 30.2062 39.77 30.1908L39.3502 29.4406Z" stroke="url(#paint14_linear_218_2536)" stroke-width="0.3"/>
</g>
<g id="Star 2">
<g filter="url(#filter5_i_218_2536)">
<path d="M39.2233 21.7224C39.3966 21.414 39.8265 21.414 39.9998 21.7224L40.4197 22.4699C40.4832 22.5829 40.5895 22.663 40.7128 22.6907L41.5282 22.8737C41.8648 22.9493 41.9976 23.3731 41.7682 23.6393L41.2123 24.2843C41.1282 24.3818 41.0876 24.5115 41.1003 24.6416L41.1844 25.5021C41.219 25.8573 40.8713 26.1192 40.5562 25.9753L39.7927 25.6265C39.6773 25.5738 39.5458 25.5738 39.4304 25.6265L38.6669 25.9753C38.3518 26.1192 38.004 25.8573 38.0387 25.5021L38.1228 24.6416C38.1355 24.5115 38.0948 24.3818 38.0108 24.2843L37.4549 23.6393C37.2255 23.3731 37.3583 22.9493 37.6948 22.8737L38.5102 22.6907C38.6335 22.663 38.7399 22.5829 38.8034 22.4699L39.2233 21.7224Z" fill="#D58321"/>
</g>
<path d="M40.1305 21.649C39.8999 21.2385 39.3232 21.2385 39.0925 21.649L38.6726 22.3964C38.6294 22.4734 38.558 22.5262 38.4774 22.5443L37.662 22.7274C37.209 22.8291 37.0419 23.3899 37.3413 23.7372L37.8972 24.3822C37.954 24.4482 37.9823 24.537 37.9735 24.627L37.8894 25.4875C37.8445 25.9474 38.2996 26.308 38.7292 26.1117L39.4927 25.7629C39.5685 25.7283 39.6545 25.7283 39.7304 25.7629L40.4939 26.1117C40.9234 26.308 41.3786 25.9474 41.3337 25.4875L41.2496 24.627C41.2408 24.537 41.2691 24.4482 41.3259 24.3822L41.8818 23.7372C42.1812 23.3899 42.0141 22.8291 41.5611 22.7274L40.7457 22.5443C40.6651 22.5262 40.5937 22.4734 40.5505 22.3964L40.1305 21.649Z" stroke="url(#paint15_linear_218_2536)" stroke-width="0.3"/>
</g>
</g>
<defs>
<filter id="filter0_d_218_2536" x="0" y="0" width="50.8323" height="50.6377" filterUnits="userSpaceOnUse" color-interpolation-filters="sRGB">
<feFlood flood-opacity="0" result="BackgroundImageFix"/>
<feColorMatrix in="SourceAlpha" type="matrix" values="0 0 0 0 0 0 0 0 0 0 0 0 0 0 0 0 0 0 127 0" result="hardAlpha"/>
<feOffset dy="1"/>
<feGaussianBlur stdDeviation="0.5"/>
<feComposite in2="hardAlpha" operator="out"/>
<feColorMatrix type="matrix" values="0 0 0 0 0 0 0 0 0 0 0 0 0 0 0 0 0 0 0.25 0"/>
<feBlend mode="normal" in2="BackgroundImageFix" result="effect1_dropShadow_218_2536"/>
<feBlend mode="normal" in="SourceGraphic" in2="effect1_dropShadow_218_2536" result="shape"/>
</filter>
<filter id="filter1_i_218_2536" x="10.9207" y="7.61768" width="27.8552" height="11.28" filterUnits="userSpaceOnUse" color-interpolation-filters="sRGB">
<feFlood flood-opacity="0" result="BackgroundImageFix"/>
<feBlend mode="normal" in="SourceGraphic" in2="BackgroundImageFix" result="shape"/>
<feColorMatrix in="SourceAlpha" type="matrix" values="0 0 0 0 0 0 0 0 0 0 0 0 0 0 0 0 0 0 127 0" result="hardAlpha"/>
<feOffset dy="0.5"/>
<feGaussianBlur stdDeviation="0.25"/>
<feComposite in2="hardAlpha" operator="arithmetic" k2="-1" k3="1"/>
<feColorMatrix type="matrix" values="0 0 0 0 0 0 0 0 0 0 0 0 0 0 0 0 0 0 0.25 0"/>
<feBlend mode="normal" in2="shape" result="effect1_innerShadow_218_2536"/>
</filter>
<filter id="filter2_i_218_2536" x="8.65002" y="21.191" width="5.14136" height="5.62634" filterUnits="userSpaceOnUse" color-interpolation-filters="sRGB">
<feFlood flood-opacity="0" result="BackgroundImageFix"/>
<feBlend mode="normal" in="SourceGraphic" in2="BackgroundImageFix" result="shape"/>
<feColorMatrix in="SourceAlpha" type="matrix" values="0 0 0 0 0 0 0 0 0 0 0 0 0 0 0 0 0 0 127 0" result="hardAlpha"/>
<feOffset dy="0.5"/>
<feGaussianBlur stdDeviation="0.25"/>
<feComposite in2="hardAlpha" operator="arithmetic" k2="-1" k3="1"/>
<feColorMatrix type="matrix" values="0 0 0 0 0 0 0 0 0 0 0 0 0 0 0 0 0 0 0.25 0"/>
<feBlend mode="normal" in2="shape" result="effect1_innerShadow_218_2536"/>
</filter>
<filter id="filter3_i_218_2536" x="9.78574" y="29.1088" width="4.00558" height="4.49536" filterUnits="userSpaceOnUse" color-interpolation-filters="sRGB">
<feFlood flood-opacity="0" result="BackgroundImageFix"/>
<feBlend mode="normal" in="SourceGraphic" in2="BackgroundImageFix" result="shape"/>
<feColorMatrix in="SourceAlpha" type="matrix" values="0 0 0 0 0 0 0 0 0 0 0 0 0 0 0 0 0 0 127 0" result="hardAlpha"/>
<feOffset dy="0.5"/>
<feGaussianBlur stdDeviation="0.25"/>
<feComposite in2="hardAlpha" operator="arithmetic" k2="-1" k3="1"/>
<feColorMatrix type="matrix" values="0 0 0 0 0 0 0 0 0 0 0 0 0 0 0 0 0 0 0.25 0"/>
<feBlend mode="normal" in2="shape" result="effect1_innerShadow_218_2536"/>
</filter>
<filter id="filter4_i_218_2536" x="37.0409" y="29.1088" width="4.00558" height="4.49536" filterUnits="userSpaceOnUse" color-interpolation-filters="sRGB">
<feFlood flood-opacity="0" result="BackgroundImageFix"/>
<feBlend mode="normal" in="SourceGraphic" in2="BackgroundImageFix" result="shape"/>
<feColorMatrix in="SourceAlpha" type="matrix" values="0 0 0 0 0 0 0 0 0 0 0 0 0 0 0 0 0 0 127 0" result="hardAlpha"/>
<feOffset dy="0.5"/>
<feGaussianBlur stdDeviation="0.25"/>
<feComposite in2="hardAlpha" operator="arithmetic" k2="-1" k3="1"/>
<feColorMatrix type="matrix" values="0 0 0 0 0 0 0 0 0 0 0 0 0 0 0 0 0 0 0.25 0"/>
<feBlend mode="normal" in2="shape" result="effect1_innerShadow_218_2536"/>
</filter>
<filter id="filter5_i_218_2536" x="37.0409" y="21.191" width="5.14136" height="5.62634" filterUnits="userSpaceOnUse" color-interpolation-filters="sRGB">
<feFlood flood-opacity="0" result="BackgroundImageFix"/>
<feBlend mode="normal" in="SourceGraphic" in2="BackgroundImageFix" result="shape"/>
<feColorMatrix in="SourceAlpha" type="matrix" values="0 0 0 0 0 0 0 0 0 0 0 0 0 0 0 0 0 0 127 0" result="hardAlpha"/>
<feOffset dy="0.5"/>
<feGaussianBlur stdDeviation="0.25"/>
<feComposite in2="hardAlpha" operator="arithmetic" k2="-1" k3="1"/>
<feColorMatrix type="matrix" values="0 0 0 0 0 0 0 0 0 0 0 0 0 0 0 0 0 0 0.25 0"/>
<feBlend mode="normal" in2="shape" result="effect1_innerShadow_218_2536"/>
</filter>
<linearGradient id="paint0_linear_218_2536" x1="10.0851" y1="7.35221" x2="74.6069" y2="60.7672" gradientUnits="userSpaceOnUse">
<stop stop-color="#FFDD73"/>
<stop offset="1" stop-color="#FFBC54"/>
</linearGradient>
<linearGradient id="paint1_linear_218_2536" x1="25.4161" y1="0" x2="25.4161" y2="48.6377" gradientUnits="userSpaceOnUse">
<stop offset="0.0406977" stop-color="#F7CD45"/>
<stop offset="1" stop-color="#F4B640"/>
</linearGradient>
<linearGradient id="paint2_linear_218_2536" x1="9.38538" y1="8.35197" x2="43.0377" y2="42.3855" gradientUnits="userSpaceOnUse">
<stop stop-color="#FFFAEC"/>
<stop offset="0.79589" stop-color="#FFAE0F"/>
</linearGradient>
<linearGradient id="paint3_linear_218_2536" x1="24.8483" y1="16.9667" x2="31.0517" y2="32.254" gradientUnits="userSpaceOnUse">
<stop stop-color="#F8D847"/>
<stop offset="0.73" stop-color="#F7BD42"/>
<stop offset="1" stop-color="#F8D847"/>
</linearGradient>
<linearGradient id="paint4_linear_218_2536" x1="18.7916" y1="22.6222" x2="24.0491" y2="29.6402" gradientUnits="userSpaceOnUse">
<stop stop-color="#F8D847"/>
<stop offset="0.73" stop-color="#F7BD42"/>
<stop offset="1" stop-color="#F8D847"/>
</linearGradient>
<linearGradient id="paint5_linear_218_2536" x1="18.0345" y1="7.91772" x2="21.1684" y2="21.3427" gradientUnits="userSpaceOnUse">
<stop stop-color="#F0B33E"/>
<stop offset="1" stop-color="#FFEA88" stop-opacity="0.7"/>
</linearGradient>
<linearGradient id="paint6_linear_218_2536" x1="18.0345" y1="7.91772" x2="21.1684" y2="21.3427" gradientUnits="userSpaceOnUse">
<stop stop-color="#F0B33E"/>
<stop offset="1" stop-color="#FFEA88" stop-opacity="0.7"/>
</linearGradient>
<linearGradient id="paint7_linear_218_2536" x1="18.0345" y1="7.91772" x2="21.1684" y2="21.3427" gradientUnits="userSpaceOnUse">
<stop stop-color="#F0B33E"/>
<stop offset="1" stop-color="#FFEA88" stop-opacity="0.7"/>
</linearGradient>
<linearGradient id="paint8_linear_218_2536" x1="18.0345" y1="7.91772" x2="21.1684" y2="21.3427" gradientUnits="userSpaceOnUse">
<stop stop-color="#F0B33E"/>
<stop offset="1" stop-color="#FFEA88" stop-opacity="0.7"/>
</linearGradient>
<linearGradient id="paint9_linear_218_2536" x1="18.0345" y1="7.91772" x2="21.1684" y2="21.3427" gradientUnits="userSpaceOnUse">
<stop stop-color="#F0B33E"/>
<stop offset="1" stop-color="#FFEA88" stop-opacity="0.7"/>
</linearGradient>
<linearGradient id="paint10_linear_218_2536" x1="18.0345" y1="7.91772" x2="21.1684" y2="21.3427" gradientUnits="userSpaceOnUse">
<stop stop-color="#F0B33E"/>
<stop offset="1" stop-color="#FFEA88" stop-opacity="0.7"/>
</linearGradient>
<linearGradient id="paint11_linear_218_2536" x1="18.0345" y1="7.91772" x2="21.1684" y2="21.3427" gradientUnits="userSpaceOnUse">
<stop stop-color="#F0B33E"/>
<stop offset="1" stop-color="#FFEA88" stop-opacity="0.7"/>
</linearGradient>
<linearGradient id="paint12_linear_218_2536" x1="10.0851" y1="21.4911" x2="12.9079" y2="26.0257" gradientUnits="userSpaceOnUse">
<stop stop-color="#F0B33E"/>
<stop offset="1" stop-color="#FFEA88" stop-opacity="0.7"/>
</linearGradient>
<linearGradient id="paint13_linear_218_2536" x1="10.9368" y1="29.4088" x2="13.0539" y2="32.8097" gradientUnits="userSpaceOnUse">
<stop stop-color="#F0B33E"/>
<stop offset="1" stop-color="#FFEA88" stop-opacity="0.7"/>
</linearGradient>
<linearGradient id="paint14_linear_218_2536" x1="38.192" y1="29.4088" x2="40.3091" y2="32.8097" gradientUnits="userSpaceOnUse">
<stop stop-color="#F0B33E"/>
<stop offset="1" stop-color="#FFEA88" stop-opacity="0.7"/>
</linearGradient>
<linearGradient id="paint15_linear_218_2536" x1="38.4759" y1="21.4911" x2="41.2987" y2="26.0257" gradientUnits="userSpaceOnUse">
<stop stop-color="#F0B33E"/>
<stop offset="1" stop-color="#FFEA88" stop-opacity="0.7"/>
</linearGradient>
</defs>
</svg>
