<svg width="51" height="47" viewBox="0 0 51 47" fill="none" xmlns="http://www.w3.org/2000/svg">
<g id="_&#234;&#178;&#169;&#235;&#166;&#172;_&#235;&#170;&#168;&#235;&#147;&#156;">
<path id="Vector" d="M23.5375 22.113C23.3998 21.5743 21.902 21.331 21.5921 21.053C21.5921 21.053 18.1488 22.9992 16.1173 33.9293C15.291 38.3256 14.9983 43.139 21.4027 43C30.114 42.7741 25.81 30.6103 23.5375 22.113Z" fill="url(#paint0_radial_94_9617)"/>
<path id="Vector_2" d="M23.021 22.2346C23.021 22.2346 29.391 20.5664 36.3291 28.3339C44.4723 37.4394 47.8983 31.705 47.6228 29.029C46.7276 20.2015 28.5818 18.0989 23.021 22.2346Z" fill="url(#paint1_radial_94_9617)"/>
<path id="Vector_3" d="M25.328 18.7766C28.2891 15.9615 32.0078 13.8242 35.9503 12.8337C39.2902 11.9996 43.6115 12.1386 46.5038 14.2238C49.2067 16.17 50.6529 22.7733 45.6946 22.1477C42.6129 21.748 39.6001 20.5316 36.4668 20.3926C35.3994 20.3405 24.2778 19.7671 25.2935 18.7766H25.328Z" fill="url(#paint2_radial_94_9617)"/>
<path id="Vector_4" d="M25.1386 19.3848C25.1386 19.3848 25.9822 0.895722 38.2056 3.15472C45.7807 4.54487 40.2543 10.175 36.2258 12.1038C32.3521 13.9632 27.4283 18.8287 25.1386 19.3674V19.3848Z" fill="url(#paint3_radial_94_9617)"/>
<path id="Vector_5" d="M24.1917 16.7956C20.9895 15.3707 17.684 4.02361 21.4715 1.76461C23.7957 0.374455 31.6118 0.756747 29.391 3.71082C27.1529 6.68227 26.3609 17.7514 24.2089 16.7956H24.1917Z" fill="url(#paint4_radial_94_9617)"/>
<path id="Vector_6" d="M20.6452 20.3231C14.9294 9.58415 3.70452 9.75792 2.43052 16.2916C1.41477 21.5742 9.36862 18.9677 12.0543 18.9329C19.1818 18.846 21.7642 22.4257 20.6452 20.3231Z" fill="url(#paint5_radial_94_9617)"/>
<path id="Vector_7" d="M20.9206 12.4861C23.6408 19.489 18.7858 20.688 18.4587 18.9677C17.4085 13.3897 8.09462 9.39305 7.69865 8.15929C7.18217 6.52586 11.4862 1.86884 15.9452 4.30161C18.5448 5.72652 19.7499 9.4278 20.9206 12.4688V12.4861Z" fill="url(#paint6_radial_94_9617)"/>
<path id="Vector_8" d="M17.2536 19.2805C17.2536 19.2805 0.622829 15.5792 2.0862 27.2912C3.23968 36.4141 7.78474 24.4935 15.8763 23.2424C19.5778 22.669 20.3009 20.2014 17.2536 19.2978V19.2805Z" fill="url(#paint7_radial_94_9617)"/>
<path id="Vector_9" d="M18.0455 21.4701C18.0455 21.4701 -2.69988 32.2611 9.28254 38.4821C14.0858 40.967 14.6195 29.3244 21.4027 24.1461C25.3624 21.1225 21.2822 20.6012 18.0455 21.4874V21.4701Z" fill="url(#paint8_radial_94_9617)"/>
<path id="Vector_10" d="M22.0569 22.113C23.3653 25.8143 26.8258 29.8978 27.3939 35.9798C27.7038 39.4551 29.873 43.4171 34.969 40.741C41.7521 37.1788 36.8111 30.0716 33.7294 26.4572C28.7884 20.6707 22.0569 22.113 22.0569 22.113Z" fill="url(#paint9_radial_94_9617)"/>
<g id="Vector_11" filter="url(#filter0_d_94_9617)">
<path d="M23.5373 22.1131C23.3996 21.5744 21.9018 21.3311 21.5919 21.0531C21.5919 21.0531 18.1487 22.9993 16.1172 33.9294C15.2908 38.3258 14.9982 43.1392 21.4026 43.0001C30.1139 42.7742 25.8099 30.6104 23.5373 22.1131Z" fill="url(#paint10_radial_94_9617)"/>
<path d="M23.0211 22.2347C23.0211 22.2347 29.3911 20.5666 36.3292 28.334C44.4724 37.4395 47.8984 31.7052 47.623 29.0291C46.7277 20.2016 28.5819 18.099 23.0211 22.2347Z" fill="url(#paint11_radial_94_9617)"/>
<path d="M25.3281 18.7767C28.2892 15.9616 32.0079 13.8243 35.9504 12.8338C39.2903 11.9997 43.6116 12.1387 46.5039 14.2239C49.2068 16.1702 50.653 22.7734 45.6947 22.1478C42.613 21.7481 39.6002 20.5318 36.4669 20.3928C35.3995 20.3406 24.2779 19.7672 25.2936 18.7767H25.3281Z" fill="url(#paint12_radial_94_9617)"/>
<path d="M25.1388 19.3849C25.1388 19.3849 25.9824 0.895845 38.2058 3.15484C45.7809 4.545 40.2545 10.1751 36.226 12.104C32.3523 13.9633 27.4285 18.8288 25.1388 19.3675V19.3849Z" fill="url(#paint13_radial_94_9617)"/>
<path d="M24.1915 16.7958C20.9893 15.3709 17.6838 4.02373 21.4713 1.76473C23.7955 0.374577 31.6116 0.756869 29.3908 3.71094C27.1527 6.6824 26.3607 17.7515 24.2087 16.7958H24.1915Z" fill="url(#paint14_radial_94_9617)"/>
<path d="M20.6451 20.3232C14.9294 9.58427 3.70447 9.75804 2.43048 16.2918C1.41473 21.5743 9.36857 18.9678 12.0543 18.9331C19.1818 18.8462 21.7642 22.4258 20.6451 20.3232Z" fill="url(#paint15_radial_94_9617)"/>
<path d="M20.9206 12.4863C23.6407 19.4892 18.7858 20.6882 18.4587 18.9678C17.4085 13.3899 8.09459 9.39317 7.69862 8.15941C7.18214 6.52598 11.4862 1.86896 15.9451 4.30173C18.5448 5.72664 19.7499 9.42792 20.9206 12.4689V12.4863Z" fill="url(#paint16_radial_94_9617)"/>
<path d="M17.2538 19.2806C17.2538 19.2806 0.623073 15.5793 2.08644 27.2913C3.23992 36.4142 7.78498 24.4937 15.8766 23.2425C19.578 22.6691 20.3011 20.2016 17.2538 19.298V19.2806Z" fill="url(#paint17_radial_94_9617)"/>
<path d="M18.0455 21.4702C18.0455 21.4702 -2.69989 32.2612 9.28252 38.4822C14.0858 40.9671 14.6195 29.3245 21.4027 24.1462C25.3624 21.1226 21.2822 20.6013 18.0455 21.4876V21.4702Z" fill="url(#paint18_radial_94_9617)"/>
<path d="M22.0568 22.1131C23.3652 25.8144 26.8256 29.898 27.3938 35.9799C27.7037 39.4553 29.8729 43.4172 34.9688 40.7412C41.752 37.1789 36.811 30.0717 33.7293 26.4573C28.7883 20.6708 22.0568 22.1131 22.0568 22.1131Z" fill="url(#paint19_radial_94_9617)"/>
<path d="M26.3177 19.152C26.3797 19.1664 26.4447 19.1808 26.5126 19.1951C27.4146 19.386 28.7312 19.5511 30.1235 19.6878C32.9032 19.9608 35.9444 20.1169 36.4786 20.143C36.4788 20.143 36.4789 20.143 36.4791 20.143L36.4669 20.3928C38.2542 20.472 40.0024 20.9019 41.7464 21.3308L41.7465 21.3308C43.0599 21.6537 44.3709 21.9761 45.6947 22.1478L26.3177 19.152ZM26.3177 19.152C26.6679 18.9643 27.0414 18.7338 27.4308 18.475C28.2825 17.909 29.24 17.1873 30.2394 16.4302C30.2886 16.393 30.3378 16.3557 30.3872 16.3183C31.5714 15.4209 32.8099 14.4826 34.0142 13.6828C34.6716 13.4483 35.3382 13.2454 36.0113 13.0763C39.3138 12.2516 43.5488 12.4016 46.3577 14.4267L46.3578 14.4268C46.9913 14.883 47.5651 15.624 47.9911 16.4822C48.4163 17.3391 48.6844 18.2934 48.7225 19.1613C48.7607 20.0329 48.5665 20.7836 48.1095 21.2775C47.6609 21.7625 46.9124 22.0494 45.7264 21.8998M21.7267 21.4167C21.7873 21.4432 21.8523 21.469 21.9189 21.4941C22.0105 21.5287 22.1096 21.5638 22.2092 21.5991L22.2239 21.6043C22.3294 21.6417 22.436 21.6795 22.5407 21.7192C22.5613 21.7269 22.5816 21.7347 22.6017 21.7426C22.6145 21.7532 22.6266 21.7638 22.6379 21.7746C22.5151 21.7881 22.4086 21.8021 22.3197 21.815C22.2198 21.8295 22.1422 21.8427 22.089 21.8523C22.0624 21.8571 22.0418 21.8611 22.0277 21.8639L22.0112 21.8672L22.0065 21.8682L22.0052 21.8685L22.0047 21.8686C22.0045 21.8686 22.0044 21.8687 22.0568 22.1131L22.0044 21.8687L21.7263 21.9282L21.8211 22.1964C21.9301 22.5049 22.0536 22.8155 22.1887 23.1288C21.9547 23.3732 21.6461 23.6458 21.251 23.9475C20.0201 24.8872 18.9922 26.0355 18.1078 27.2704C18.6976 25.6258 19.2956 24.4105 19.8306 23.5214C20.3782 22.6111 20.8597 22.0428 21.1986 21.7051C21.3426 21.5617 21.461 21.4597 21.548 21.3908C21.6093 21.3984 21.6689 21.407 21.7267 21.4167ZM45.0521 32.8631C43.3688 33.4394 40.5783 32.7102 36.5156 28.1675C33.9628 25.3095 31.4791 23.7097 29.3472 22.8332C28.1992 22.3194 27.0815 22.0264 26.0791 21.8683C25.4759 21.7732 24.9143 21.7269 24.4128 21.7106C25.6769 21.1262 27.2989 20.7378 29.1098 20.559C31.5807 20.3151 34.3727 20.4644 37.0207 21.0155C39.6703 21.567 42.1604 22.5176 44.0374 23.8649C45.9124 25.2108 47.1597 26.9394 47.3742 29.0543L47.3743 29.0547C47.4375 29.6694 47.2878 30.4802 46.8988 31.2127C46.5115 31.9422 45.8986 32.5733 45.0521 32.8631ZM22.3951 22.3093C22.4943 22.295 22.6176 22.2791 22.7628 22.264C22.7626 22.2646 22.7625 22.2651 22.7623 22.2657C22.7301 22.3856 22.6629 22.5284 22.5483 22.6953C22.4949 22.5659 22.4438 22.4373 22.3951 22.3093ZM21.5544 24.3449C21.8912 24.0877 22.1743 23.8457 22.4074 23.6182C22.632 24.1044 22.8801 24.5979 23.1408 25.101C23.3095 25.4267 23.4833 25.7559 23.6597 26.0902C24.0278 26.7877 24.4077 27.5073 24.7784 28.2638C24.9101 28.5325 25.0404 28.8054 25.1681 29.0826C25.742 31.3794 26.2067 33.6522 26.3394 35.6748C26.4739 37.724 26.2629 39.4684 25.5166 40.7072C24.7836 41.9242 23.5075 42.6953 21.397 42.7502C19.825 42.7843 18.6924 42.5136 17.8844 42.0436C17.0813 41.5765 16.5784 40.9007 16.2836 40.0809C15.6855 38.4177 15.9486 36.1799 16.3629 33.9756L16.363 33.9751C16.7145 32.0837 17.1081 30.4646 17.5181 29.0804C18.5883 27.3077 19.8779 25.6248 21.5544 24.3449L21.5544 24.3449ZM24.5397 26.6896C24.3909 26.4044 24.2429 26.1238 24.0973 25.848C23.9218 25.5155 23.75 25.1899 23.5847 24.871C23.2908 24.3036 23.0167 23.7558 22.776 23.2215C23.0016 22.9489 23.1548 22.6905 23.2307 22.4456C23.2644 22.4392 23.3037 22.4323 23.3484 22.425C23.3528 22.4243 23.3572 22.4236 23.3617 22.4229C23.5593 23.1557 23.7701 23.9124 23.9849 24.6835C24.1688 25.3435 24.3557 26.0142 24.5397 26.6896ZM19.4022 23.2636C18.6681 24.4837 17.832 26.2758 17.0569 28.8768C16.1734 30.3462 15.4442 31.8612 14.7804 33.2403C14.6428 33.526 14.5081 33.806 14.3754 34.0784C13.5804 35.7106 12.8687 37.0534 12.0729 37.841C11.6802 38.2297 11.2819 38.4675 10.8585 38.5462C10.4376 38.6245 9.96047 38.5514 9.3974 38.2601C7.92387 37.4951 6.97683 36.6715 6.42833 35.8287C5.88322 34.9911 5.72219 34.1203 5.84432 33.2337C6.0917 31.4378 7.50439 29.5567 9.34206 27.8253C10.9976 26.2654 12.9618 24.8601 14.6189 23.788C15.0406 23.6592 15.4725 23.558 15.9148 23.4896L15.9148 23.4896C16.8642 23.3425 17.6361 23.0721 18.2109 22.7254C18.7831 22.3803 19.1775 21.9483 19.3335 21.4719C19.334 21.4706 19.3344 21.4693 19.3348 21.468C19.7339 21.4062 20.1284 21.3674 20.5016 21.3537C20.6201 21.3494 20.7358 21.3476 20.8483 21.3483C20.8475 21.3492 20.8466 21.35 20.8457 21.3509C20.4756 21.7197 19.9693 22.321 19.4022 23.2636ZM17.9527 22.2973C17.4575 22.5959 16.7711 22.8445 15.8984 22.9859C16.4475 22.6524 16.9264 22.375 17.3005 22.1637C17.571 22.0109 17.7866 21.8927 17.9344 21.8128C17.989 21.7833 18.0343 21.759 18.0698 21.7401L18.1116 21.7287C18.3167 21.6725 18.5252 21.6222 18.7348 21.5779C18.5832 21.8229 18.3273 22.0714 17.9527 22.2973ZM18.9067 21.0339C18.7022 21.0721 18.4978 21.1158 18.2955 21.1649V21.0583L17.9302 21.2484L18.0355 21.4509C17.9302 21.2484 17.93 21.2485 17.9298 21.2486L17.929 21.249L17.926 21.2506L17.9143 21.2567L17.8693 21.2804C17.8298 21.3013 17.7717 21.3323 17.6966 21.373C17.5463 21.4542 17.328 21.5739 17.0546 21.7283C16.5079 22.0372 15.7407 22.4851 14.8579 23.042C14.7102 23.1352 14.5592 23.2315 14.4055 23.3307C12.9048 23.8002 11.5439 24.5957 10.3233 25.4837C9.13993 26.3447 8.07355 27.3046 7.13919 28.1457C6.81522 28.4373 6.50712 28.7147 6.21552 28.9687C5.64369 29.4667 5.13954 29.8716 4.69581 30.1341C4.2458 30.4003 3.90362 30.4922 3.63986 30.4384C3.39271 30.388 3.13922 30.1919 2.90542 29.6835C2.67094 29.1736 2.47762 28.3921 2.33449 27.2602C1.9765 24.3947 2.7264 22.514 4.01218 21.2789C4.6577 20.6589 5.44713 20.1928 6.3192 19.8482C7.30822 19.813 8.35633 19.6689 9.3119 19.5251C9.47714 19.5002 9.6392 19.4754 9.79752 19.4512C10.7134 19.3111 11.504 19.1902 12.0575 19.183C15.0004 19.1472 17.1547 19.744 18.5845 20.2977C18.6084 20.323 18.6308 20.3484 18.6518 20.3739C18.8292 20.5891 18.9098 20.8121 18.9067 21.0339Z" stroke="#ECECEC" stroke-width="0.5"/>
</g>
<path id="Vector_12" d="M20.8862 25.6057C20.8862 25.6057 33.1441 25.1539 30.3378 18.4812C27.5488 11.8258 22.2118 13.1638 19.4573 14.1369C15.3943 15.5445 11.8133 24.5631 20.869 25.6231L20.8862 25.6057Z" fill="url(#paint20_linear_94_9617)"/>
<path id="Vector_13" d="M18.4587 16.813C18.3727 17.3517 20.5935 17.091 25.1558 20.271C27.3078 21.7654 30.114 14.971 23.6752 14.2586C21.265 13.9806 18.8203 14.8668 18.4587 16.813Z" fill="url(#paint21_linear_94_9617)"/>
</g>
<defs>
<filter id="filter0_d_94_9617" x="-0.00476074" y="0.989746" width="50.9819" height="46.0133" filterUnits="userSpaceOnUse" color-interpolation-filters="sRGB">
<feFlood flood-opacity="0" result="BackgroundImageFix"/>
<feColorMatrix in="SourceAlpha" type="matrix" values="0 0 0 0 0 0 0 0 0 0 0 0 0 0 0 0 0 0 127 0" result="hardAlpha"/>
<feOffset dy="2"/>
<feGaussianBlur stdDeviation="1"/>
<feComposite in2="hardAlpha" operator="out"/>
<feColorMatrix type="matrix" values="0 0 0 0 0 0 0 0 0 0 0 0 0 0 0 0 0 0 0.6 0"/>
<feBlend mode="normal" in2="BackgroundImageFix" result="effect1_dropShadow_94_9617"/>
<feBlend mode="normal" in="SourceGraphic" in2="effect1_dropShadow_94_9617" result="shape"/>
</filter>
<radialGradient id="paint0_radial_94_9617" cx="0" cy="0" r="1" gradientUnits="userSpaceOnUse" gradientTransform="translate(130.907 61.4646) rotate(19.1041) scale(16.7144 12.8349)">
<stop stop-color="#FFF2BA"/>
<stop offset="0.24" stop-color="#FFF3C2"/>
<stop offset="0.62" stop-color="#FFF8D8"/>
<stop offset="1" stop-color="#FFFFF5"/>
</radialGradient>
<radialGradient id="paint1_radial_94_9617" cx="0" cy="0" r="1" gradientUnits="userSpaceOnUse" gradientTransform="translate(67.3187 30.4184) rotate(14.9623) scale(8.59612 6.49932)">
<stop stop-color="#FFF2BA"/>
<stop offset="0.24" stop-color="#FFF3C2"/>
<stop offset="0.62" stop-color="#FFF8D8"/>
<stop offset="1" stop-color="#FFFFF5"/>
</radialGradient>
<radialGradient id="paint2_radial_94_9617" cx="0" cy="0" r="1" gradientUnits="userSpaceOnUse" gradientTransform="translate(47.283 16.3151) rotate(14.0751) scale(6.58014 6.63436)">
<stop stop-color="#FFF2BA"/>
<stop offset="0.24" stop-color="#FFF3C2"/>
<stop offset="0.62" stop-color="#FFF8D8"/>
<stop offset="1" stop-color="#FFFFF5"/>
</radialGradient>
<radialGradient id="paint3_radial_94_9617" cx="0" cy="0" r="1" gradientUnits="userSpaceOnUse" gradientTransform="translate(25.5734 18.3921) rotate(14.0751) scale(9.21565 9.29158)">
<stop stop-color="#FFF2BA"/>
<stop offset="0.24" stop-color="#FFF3C2"/>
<stop offset="0.62" stop-color="#FFF8D8"/>
<stop offset="1" stop-color="#FFFFF5"/>
</radialGradient>
<radialGradient id="paint4_radial_94_9617" cx="0" cy="0" r="1" gradientUnits="userSpaceOnUse" gradientTransform="translate(23.4858 24.3782) rotate(27.025) scale(15.7828 18.2501)">
<stop stop-color="#FFF2BA"/>
<stop offset="0.24" stop-color="#FFF3C2"/>
<stop offset="0.62" stop-color="#FFF8D8"/>
<stop offset="1" stop-color="#FFFFF5"/>
</radialGradient>
<radialGradient id="paint5_radial_94_9617" cx="0" cy="0" r="1" gradientUnits="userSpaceOnUse" gradientTransform="translate(19.8766 18.4394) rotate(23.011) scale(5.96518 6.00394)">
<stop stop-color="#FFF2BA"/>
<stop offset="0.24" stop-color="#FFF3C2"/>
<stop offset="0.62" stop-color="#FFF8D8"/>
<stop offset="1" stop-color="#FFFFF5"/>
</radialGradient>
<radialGradient id="paint6_radial_94_9617" cx="0" cy="0" r="1" gradientUnits="userSpaceOnUse" gradientTransform="translate(40.7298 4.56952) rotate(37.0257) scale(6.75341 6.39479)">
<stop stop-color="#FFF2BA"/>
<stop offset="0.24" stop-color="#FFF3C2"/>
<stop offset="0.62" stop-color="#FFF8D8"/>
<stop offset="1" stop-color="#FFFFF5"/>
</radialGradient>
<radialGradient id="paint7_radial_94_9617" cx="0" cy="0" r="1" gradientUnits="userSpaceOnUse" gradientTransform="translate(19.8388 13.0958) rotate(16.5146) scale(9.33809 8.94071)">
<stop stop-color="#FFF2BA"/>
<stop offset="0.24" stop-color="#FFF3C2"/>
<stop offset="0.62" stop-color="#FFF8D8"/>
<stop offset="1" stop-color="#FFFFF5"/>
</radialGradient>
<radialGradient id="paint8_radial_94_9617" cx="0" cy="0" r="1" gradientUnits="userSpaceOnUse" gradientTransform="translate(40.5483 14.7191) rotate(13.4197) scale(11.7644 11.8625)">
<stop stop-color="#FFF2BA"/>
<stop offset="0.24" stop-color="#FFF3C2"/>
<stop offset="0.62" stop-color="#FFF8D8"/>
<stop offset="1" stop-color="#FFFFF5"/>
</radialGradient>
<radialGradient id="paint9_radial_94_9617" cx="0" cy="0" r="1" gradientUnits="userSpaceOnUse" gradientTransform="translate(40.4368 28.4502) rotate(6.28772) scale(10.3825 11.4201)">
<stop stop-color="#FFF2BA"/>
<stop offset="0.24" stop-color="#FFF3C2"/>
<stop offset="0.62" stop-color="#FFF8D8"/>
<stop offset="1" stop-color="#FFFFF5"/>
</radialGradient>
<radialGradient id="paint10_radial_94_9617" cx="0" cy="0" r="1" gradientUnits="userSpaceOnUse" gradientTransform="translate(496.636 78.3396) rotate(8.77892) scale(68.6047 25.694)">
<stop stop-color="#FFF2BA"/>
<stop offset="0.24" stop-color="#FFF3C2"/>
<stop offset="0.62" stop-color="#FFF8D8"/>
<stop offset="1" stop-color="#FFFFF5"/>
</radialGradient>
<radialGradient id="paint11_radial_94_9617" cx="0" cy="0" r="1" gradientUnits="userSpaceOnUse" gradientTransform="translate(86.5376 33.8051) rotate(24.2037) scale(17.3771 19.6969)">
<stop stop-color="#FFF2BA"/>
<stop offset="0.24" stop-color="#FFF3C2"/>
<stop offset="0.62" stop-color="#FFF8D8"/>
<stop offset="1" stop-color="#FFFFF5"/>
</radialGradient>
<radialGradient id="paint12_radial_94_9617" cx="0" cy="0" r="1" gradientUnits="userSpaceOnUse" gradientTransform="translate(45.6258 17.9036) rotate(28.4366) scale(14.359 25.6986)">
<stop stop-color="#FFF2BA"/>
<stop offset="0.24" stop-color="#FFF3C2"/>
<stop offset="0.62" stop-color="#FFF8D8"/>
<stop offset="1" stop-color="#FFFFF5"/>
</radialGradient>
<radialGradient id="paint13_radial_94_9617" cx="0" cy="0" r="1" gradientUnits="userSpaceOnUse" gradientTransform="translate(3.20853 40.4633) rotate(12.9452) scale(25.596 23.885)">
<stop stop-color="#FFF2BA"/>
<stop offset="0.24" stop-color="#FFF3C2"/>
<stop offset="0.62" stop-color="#FFF8D8"/>
<stop offset="1" stop-color="#FFFFF5"/>
</radialGradient>
<radialGradient id="paint14_radial_94_9617" cx="0" cy="0" r="1" gradientUnits="userSpaceOnUse" gradientTransform="translate(19.4032 62.9296) rotate(16.0489) scale(68.6971 52.1412)">
<stop stop-color="#FFF2BA"/>
<stop offset="0.24" stop-color="#FFF3C2"/>
<stop offset="0.62" stop-color="#FFF8D8"/>
<stop offset="1" stop-color="#FFFFF5"/>
</radialGradient>
<radialGradient id="paint15_radial_94_9617" cx="0" cy="0" r="1" gradientUnits="userSpaceOnUse" gradientTransform="translate(46.3959 31.4209) rotate(37.3385) scale(17.486 23.5878)">
<stop stop-color="#FFF2BA"/>
<stop offset="0.24" stop-color="#FFF3C2"/>
<stop offset="0.62" stop-color="#FFF8D8"/>
<stop offset="1" stop-color="#FFFFF5"/>
</radialGradient>
<radialGradient id="paint16_radial_94_9617" cx="0" cy="0" r="1" gradientUnits="userSpaceOnUse" gradientTransform="translate(112.287 3.49589) rotate(30.6204) scale(20.8932 18.0377)">
<stop stop-color="#FFF2BA"/>
<stop offset="0.24" stop-color="#FFF3C2"/>
<stop offset="0.62" stop-color="#FFF8D8"/>
<stop offset="1" stop-color="#FFFFF5"/>
</radialGradient>
<radialGradient id="paint17_radial_94_9617" cx="0" cy="0" r="1" gradientUnits="userSpaceOnUse" gradientTransform="translate(50.8447 -18.7566) rotate(20.801) scale(26.2184 30.578)">
<stop stop-color="#FFF2BA"/>
<stop offset="0.24" stop-color="#FFF3C2"/>
<stop offset="0.62" stop-color="#FFF8D8"/>
<stop offset="1" stop-color="#FFFFF5"/>
</radialGradient>
<radialGradient id="paint18_radial_94_9617" cx="0" cy="0" r="1" gradientUnits="userSpaceOnUse" gradientTransform="translate(96.045 -14.128) rotate(11.8812) scale(31.4294 28.2838)">
<stop stop-color="#FFF2BA"/>
<stop offset="0.24" stop-color="#FFF3C2"/>
<stop offset="0.62" stop-color="#FFF8D8"/>
<stop offset="1" stop-color="#FFFFF5"/>
</radialGradient>
<radialGradient id="paint19_radial_94_9617" cx="0" cy="0" r="1" gradientUnits="userSpaceOnUse" gradientTransform="translate(40.4367 28.4503) rotate(6.28772) scale(10.3825 11.4201)">
<stop stop-color="#FFF2BA"/>
<stop offset="0.24" stop-color="#FFF3C2"/>
<stop offset="0.62" stop-color="#FFF8D8"/>
<stop offset="1" stop-color="#FFFFF5"/>
</radialGradient>
<linearGradient id="paint20_linear_94_9617" x1="15.7435" y1="17.9687" x2="30.5964" y2="21.624" gradientUnits="userSpaceOnUse">
<stop offset="0.04" stop-color="#FEA61F"/>
<stop offset="0.39" stop-color="#FEB721"/>
<stop offset="1" stop-color="#FFE028"/>
</linearGradient>
<linearGradient id="paint21_linear_94_9617" x1="23.0759" y1="19.4376" x2="21.3442" y2="8.25168" gradientUnits="userSpaceOnUse">
<stop stop-color="#FEC72D"/>
<stop offset="0.18" stop-color="#FED256"/>
<stop offset="0.58" stop-color="#FEEAB0"/>
<stop offset="0.86" stop-color="#FEF9E9"/>
<stop offset="1" stop-color="white"/>
</linearGradient>
</defs>
</svg>
