<svg width="300" height="371" viewBox="0 0 300 371" fill="none" xmlns="http://www.w3.org/2000/svg">
<rect x="1" y="1" width="298" height="369" rx="19" fill="#C17633" stroke="#732D00" stroke-width="2"/>
<path d="M7.91763 343.921L7.91763 154L1.22562 158.123C0.928196 165.584 0.690255 343.449 2.1179 355.7C3.54555 367.952 17.2745 368.432 20.5462 367.843C241.543 367.254 281.403 367.363 288.185 366.891C294.966 366.42 297.554 359.627 298 356.289V162.993L290.416 158.281V346.277C290.416 349.81 288.185 353.933 278.37 353.933H21.748C10.3268 353.933 7.76892 347.258 7.91763 343.921Z" fill="#AA612A"/>
<path d="M291.811 153.121C291.811 155.024 288.236 156.5 286.449 156.5L298.066 157.284V51.6301H284.661C288.593 52.1059 291.066 56.5857 291.811 58.7662V153.121Z" fill="#AA612A"/>
<path d="M292.321 42.1686C291.606 47.8775 287.554 48.9083 285.618 48.7101L298.129 51.6834V15.7041C297.772 9.51953 293.214 5.99112 290.98 5L274 9.16272C285.082 9.16272 290.831 17.0917 292.321 21.0562C292.618 29.3817 293.035 36.4598 292.321 42.1686Z" fill="#AA612A"/>
<path d="M6.8317 26.1657C6.8317 10.942 12.7896 3.56805 15.7685 1.78403C7.77018 0.5 1.71156 12.1479 0.817871 17.5L1.02275 47.568L6.8317 44V26.1657Z" fill="#AA612A"/>
<path d="M7.14977 151.5L7.14978 46L1.34083 47L1.34082 155.5L12.065 154.5C8.13282 154.1 7.14977 152.333 7.14977 151.5Z" fill="#AA612A"/>
<path d="M2 341V350.667C2 361.344 8.37925 370 16.2484 370L284.5 369.5C292.369 369.5 300 358.5 300 350.667V341C300 351.678 293.621 360.333 285.752 360.333H16.2484C8.37925 360.333 2 351.678 2 341Z" fill="#82400E"/>
<path d="M1.02295 29.7338V20.219C1.63599 10 9.13451 3 16.003 1.18938L281.909 1.18938C291.86 2 298.973 8.92015 298.973 20.219V29.7338C298.973 19.224 289.806 10.7042 281.909 10.7042H16.0867C8.18965 10.7042 1.02295 19.224 1.02295 29.7338Z" fill="#CD915C"/>
<path d="M21.4483 42.4971H2.38307L0.595703 48.4438L21.4483 42.4971Z" fill="#CD915C"/>
<path d="M21.4483 42.4971H0.893555V46.0651L21.4483 42.4971Z" fill="#732D00"/>
<path d="M265 48.2781H295.504L298.364 54L265 48.2781Z" fill="#CD915C"/>
<path d="M265 48.2781H297.888V51.7112L265 48.2781Z" fill="#732D00"/>
<path d="M12.5116 153.965H1.07242L0 163.479L12.5116 153.965Z" fill="#CD915C"/>
<path d="M12.5116 153.965H1.39018L0 159.911L12.5116 153.965Z" fill="#732D00"/>
<path d="M280.192 156H297.351L298.066 162.503L280.192 156Z" fill="#CD915C"/>
<path d="M280.192 156H298.066V158.89L280.192 156Z" fill="#732D00"/>
<path d="M1 20C1 9.50659 9.50659 1 20 1H280C290.493 1 299 9.50659 299 20V351C299 361.493 290.493 370 280 370H20C9.50659 370 1 361.493 1 351V20Z" stroke="#732D00" stroke-width="2"/>
<path d="M1 20C1 9.50659 9.50659 1 20 1H280C290.493 1 299 9.50659 299 20V351C299 361.493 290.493 370 280 370H20C9.50659 370 1 361.493 1 351V20Z" stroke="#732D00" stroke-width="2"/>
<path d="M15 126H172C154.556 122.227 98.7333 116.945 15 126Z" fill="#AF6327"/>
<path d="M167 188H293C279 184.227 234.2 178.945 167 188Z" fill="#AF6327"/>
<path d="M15 269H208C186.556 265.227 117.933 259.945 15 269Z" fill="#AF6327"/>
</svg>
