<svg width="1662" height="117" viewBox="0 0 1662 117" fill="none" xmlns="http://www.w3.org/2000/svg">
<path d="M1657.44 45.2659C1657.41 45.1927 1657.38 45.1195 1657.34 45.0463C1655.93 42.0608 1651.95 39.968 1647.93 40.0851C1650.24 39.7631 1652.5 39.1485 1654.57 38.285C1655.36 37.9484 1656.21 37.5093 1656.42 36.8215C1656.65 36.0751 1656.02 35.2848 1655.17 34.9189C1654.32 34.5531 1653.3 34.5092 1652.33 34.5531C1648.08 34.7433 1643.97 36.3824 1641.23 38.9582C1641.71 37.9923 1642.55 37.1727 1643.22 36.28C1644.01 35.2263 1644.61 33.9823 1644.04 32.7822C1643.73 32.1383 1643.04 31.6261 1642.19 31.4943C1640.89 31.3041 1639.96 32.0651 1639.25 32.8261C1637.67 34.5531 1636.64 36.5727 1636.27 38.6801C1636.11 36.2361 1635.19 33.8213 1633.64 31.6992C1633.01 30.8358 1632.16 29.9577 1630.72 30.0016C1629.54 30.0455 1628.56 30.7333 1628.16 31.6114C1627.48 33.1335 1628.34 34.6701 1629.39 35.9727C1630.3 37.1142 1631.4 38.1972 1631.87 39.4851C1630.15 37.5825 1628.03 35.8409 1625.14 35.0506C1624.08 34.7579 1622.97 34.6409 1621.86 34.714C1621.01 34.758 1620.1 34.9336 1619.47 35.4019C1618.93 35.8117 1618.67 36.4849 1619.02 37.0117C1619.25 37.363 1619.71 37.5825 1620.15 37.7581C1622.96 38.885 1626.47 39.046 1628.68 40.8168C1625.81 39.4265 1622.36 38.7972 1619.02 39.0899C1618.07 39.1777 1617.09 39.3387 1616.3 39.7631C1614.91 40.5095 1614.37 42.3242 1616.03 43.0706C1616.66 43.3487 1617.4 43.4219 1618.11 43.4365C1620.97 43.4658 1623.96 42.6755 1626.61 43.5536C1622.47 43.495 1618.38 45.3976 1616.43 48.2953C1616.03 48.8807 1615.71 49.5393 1615.71 50.2125C1615.71 50.8857 1616.09 51.5882 1616.82 51.9248C1617.79 52.3785 1619.05 52.1004 1620.04 51.676C1623.23 50.3003 1625.24 47.5928 1628.43 46.1879C1625.9 47.6806 1624.34 50.154 1624.45 52.6712C1624.48 53.5054 1624.89 54.3396 1625.71 54.8811C1627.53 56.0958 1629.86 55.0713 1631.15 53.7688C1633.23 51.6321 1633.69 48.8222 1634.07 46.144C1633.99 48.91 1634.53 51.676 1635.65 54.2957C1636.06 55.2469 1636.64 56.2421 1637.76 56.6958C1638.8 57.1056 1640.28 57.1934 1641.4 56.9592C1642.25 56.7836 1642.96 56.3446 1643.53 55.8177C1644.14 55.2469 1644.42 54.4859 1644.32 53.7395C1643.88 50.5637 1641.48 47.8709 1639.14 45.3098L1649.57 53.3444C1650.04 53.7103 1650.64 53.9737 1651.3 54.0469C1652.7 54.1932 1653.27 53.359 1653.53 52.5687C1654.31 50.2271 1652.99 47.6514 1650.77 45.983C1648.54 44.3146 1645.53 43.4365 1642.52 42.9974C1644.73 42.8657 1646.88 43.5389 1648.84 44.3585C1650.99 45.2512 1653.05 46.3342 1655.42 46.8318C1656.01 46.9489 1656.67 46.905 1657.13 46.5977C1657.69 46.2318 1657.65 45.7488 1657.47 45.3098L1657.44 45.2659Z" fill="#FBFFF5"/>
<path d="M1641.19 41.8996C1641.39 43.3778 1639.02 44.7974 1635.92 45.0608C1632.8 45.3242 1630.12 44.329 1629.92 42.8509C1629.71 41.3728 1632.08 39.9532 1635.19 39.6897C1638.3 39.4263 1640.98 40.4215 1641.19 41.8996Z" fill="url(#paint0_linear_104_22032)"/>
<path d="M1406.05 32.5684C1406.05 32.5684 1406.11 32.4367 1406.14 32.3781C1407.38 29.7292 1410.92 27.8559 1414.51 27.973C1412.44 27.6949 1410.45 27.1388 1408.61 26.3632C1407.91 26.0705 1407.16 25.6753 1406.97 25.0606C1406.77 24.4021 1407.32 23.6996 1408.08 23.363C1408.85 23.041 1409.75 22.9971 1410.62 23.041C1414.39 23.2166 1418.05 24.6655 1420.49 26.9485C1420.05 26.0997 1419.32 25.368 1418.72 24.5777C1418.02 23.641 1417.48 22.5434 1417.99 21.4604C1418.27 20.8897 1418.87 20.4213 1419.63 20.3189C1420.78 20.1579 1421.62 20.8311 1422.25 21.5043C1423.65 23.041 1424.57 24.8411 1424.91 26.7144C1425.06 24.5338 1425.88 22.3971 1427.25 20.5092C1427.81 19.7481 1428.57 18.9578 1429.84 19.0017C1430.89 19.031 1431.77 19.6457 1432.12 20.436C1432.72 21.7824 1431.96 23.1581 1431.04 24.3143C1430.24 25.3241 1429.26 26.29 1428.85 27.4315C1430.37 25.7338 1432.25 24.1972 1434.83 23.4947C1435.77 23.2313 1436.76 23.1288 1437.74 23.1874C1438.49 23.2313 1439.31 23.3776 1439.86 23.802C1440.35 24.1679 1440.58 24.7679 1440.26 25.2363C1440.05 25.5436 1439.64 25.7485 1439.25 25.8948C1436.75 26.89 1433.63 27.0364 1431.66 28.6169C1434.2 27.373 1437.27 26.8315 1440.24 27.0803C1441.09 27.1534 1441.96 27.2998 1442.67 27.6803C1443.9 28.3389 1444.4 29.9487 1442.91 30.6219C1442.35 30.8707 1441.69 30.9293 1441.06 30.9439C1438.52 30.9732 1435.85 30.2707 1433.51 31.0463C1437.2 31.0024 1440.84 32.6855 1442.57 35.2612C1442.92 35.7881 1443.21 36.3588 1443.2 36.9589C1443.2 37.5589 1442.86 38.1736 1442.22 38.4809C1441.36 38.8907 1440.24 38.6419 1439.35 38.2614C1436.51 37.0321 1434.73 34.6319 1431.9 33.3879C1434.16 34.7197 1435.53 36.915 1435.44 39.1395C1435.42 39.8859 1435.05 40.6176 1434.33 41.1006C1432.71 42.1836 1430.63 41.2762 1429.5 40.1054C1427.66 38.2175 1427.25 35.7003 1426.9 33.3294C1426.97 35.7881 1426.5 38.2614 1425.5 40.5737C1425.13 41.4079 1424.62 42.3006 1423.62 42.7104C1422.7 43.0763 1421.38 43.1495 1420.39 42.9446C1419.63 42.7836 1419.01 42.4031 1418.5 41.9348C1417.96 41.4226 1417.7 40.7493 1417.8 40.0908C1418.19 37.2662 1420.33 34.8807 1422.39 32.5977L1413.12 39.7395C1412.69 40.0615 1412.17 40.2957 1411.58 40.3542C1410.34 40.4713 1409.83 39.7395 1409.59 39.037C1408.9 36.9442 1410.07 34.6612 1412.05 33.1831C1414.02 31.7049 1416.7 30.9146 1419.39 30.5341C1417.43 30.417 1415.52 31.0171 1413.78 31.7488C1411.86 32.5391 1410.03 33.505 1407.92 33.9441C1407.4 34.0465 1406.81 34.0026 1406.4 33.7245C1405.92 33.4026 1405.95 32.9782 1406.09 32.583L1406.05 32.5684Z" fill="#FBFFF5"/>
<path d="M1420.51 29.5682C1420.33 30.8854 1422.42 32.144 1425.19 32.3781C1427.95 32.6123 1430.34 31.7342 1430.53 30.417C1430.7 29.0999 1428.61 27.8413 1425.85 27.6071C1423.08 27.373 1420.7 28.2511 1420.51 29.5682Z" fill="url(#paint1_linear_104_22032)"/>
<path d="M1571.2 81.7643C1571.17 81.6765 1571.14 81.5887 1571.11 81.4863C1569.75 77.8129 1565.89 75.2371 1561.98 75.3835C1564.24 74.9883 1566.42 74.2419 1568.42 73.1736C1569.2 72.7638 1570 72.2223 1570.22 71.3735C1570.44 70.4515 1569.84 69.4856 1569.01 69.0319C1568.17 68.5782 1567.19 68.5343 1566.24 68.5928C1562.11 68.827 1558.12 70.832 1555.46 73.9931C1555.94 72.8077 1556.73 71.7979 1557.39 70.7149C1558.16 69.427 1558.73 67.8903 1558.18 66.4122C1557.89 65.6219 1557.21 64.978 1556.39 64.8316C1555.13 64.5975 1554.21 65.5341 1553.54 66.4708C1552 68.5782 1550.99 71.0808 1550.64 73.6712C1550.48 70.6564 1549.59 67.7001 1548.08 65.0804C1547.47 64.0267 1546.65 62.9437 1545.26 63.0023C1544.1 63.0462 1543.15 63.895 1542.77 64.978C1542.11 66.8366 1542.95 68.7392 1543.96 70.3344C1544.85 71.7247 1545.9 73.0565 1546.36 74.6517C1544.69 72.3101 1542.64 70.188 1539.83 69.2075C1538.81 68.8563 1537.72 68.7099 1536.66 68.7977C1535.84 68.8563 1534.94 69.0612 1534.34 69.6319C1533.82 70.1295 1533.57 70.9637 1533.91 71.6076C1534.14 72.0321 1534.56 72.3101 1535 72.5296C1537.74 73.9053 1541.15 74.1102 1543.28 76.2908C1540.5 74.5785 1537.15 73.8175 1533.91 74.1541C1532.98 74.2566 1532.03 74.4468 1531.26 74.9737C1529.91 75.8811 1529.38 78.1202 1531.01 79.0422C1531.61 79.3935 1532.32 79.4666 1533.03 79.4813C1535.81 79.5252 1538.72 78.5593 1541.28 79.613C1537.26 79.5398 1533.28 81.8814 1531.39 85.4377C1531.01 86.1694 1530.69 86.9597 1530.69 87.7793C1530.69 88.5989 1531.05 89.4623 1531.77 89.8867C1532.71 90.4575 1533.93 90.1063 1534.9 89.5794C1538 87.8817 1539.95 84.5596 1543.03 82.8473C1540.58 84.6767 1539.07 87.7354 1539.17 90.8087C1539.2 91.8478 1539.6 92.8576 1540.39 93.5162C1542.16 95.009 1544.42 93.765 1545.67 92.1552C1547.69 89.5355 1548.14 86.067 1548.52 82.7888C1548.43 86.1841 1548.96 89.594 1550.06 92.8137C1550.45 93.9699 1551.01 95.1992 1552.11 95.7554C1553.12 96.2676 1554.55 96.3554 1555.65 96.0773C1556.47 95.8578 1557.15 95.331 1557.71 94.6724C1558.31 93.9699 1558.59 93.0333 1558.49 92.1259C1558.05 88.2183 1555.72 84.9255 1553.47 81.7643L1563.61 91.6283C1564.06 92.082 1564.64 92.4039 1565.29 92.4918C1566.65 92.6674 1567.21 91.6429 1567.45 90.677C1568.2 87.7939 1566.93 84.6328 1564.76 82.5839C1562.6 80.535 1559.67 79.452 1556.74 78.9105C1558.88 78.7495 1560.99 79.5837 1562.89 80.5789C1564.98 81.6765 1566.97 83.0083 1569.28 83.6083C1569.85 83.7547 1570.5 83.6961 1570.95 83.3156C1571.49 82.8619 1571.45 82.2765 1571.27 81.735L1571.2 81.7643Z" fill="#FBFFF5"/>
<path d="M1261.2 41.7643C1261.17 41.6765 1261.14 41.5887 1261.11 41.4863C1259.75 37.8129 1255.89 35.2371 1251.98 35.3835C1254.24 34.9883 1256.42 34.2419 1258.42 33.1736C1259.2 32.7638 1260 32.2223 1260.22 31.3735C1260.44 30.4515 1259.84 29.4856 1259.01 29.0319C1258.17 28.5782 1257.19 28.5343 1256.24 28.5928C1252.11 28.827 1248.12 30.832 1245.46 33.9931C1245.94 32.8077 1246.73 31.7979 1247.39 30.7149C1248.16 29.427 1248.73 27.8903 1248.18 26.4122C1247.89 25.6219 1247.21 24.978 1246.39 24.8316C1245.13 24.5975 1244.21 25.5341 1243.54 26.4708C1242 28.5782 1240.99 31.0808 1240.64 33.6712C1240.48 30.6564 1239.59 27.7001 1238.08 25.0804C1237.47 24.0267 1236.65 22.9437 1235.26 23.0023C1234.1 23.0462 1233.15 23.895 1232.77 24.978C1232.11 26.8366 1232.95 28.7392 1233.96 30.3344C1234.85 31.7247 1235.9 33.0565 1236.36 34.6517C1234.69 32.3101 1232.64 30.188 1229.83 29.2075C1228.81 28.8563 1227.72 28.7099 1226.66 28.7977C1225.84 28.8563 1224.94 29.0612 1224.34 29.6319C1223.82 30.1295 1223.57 30.9637 1223.91 31.6076C1224.14 32.0321 1224.56 32.3101 1225 32.5296C1227.74 33.9053 1231.15 34.1102 1233.28 36.2908C1230.5 34.5785 1227.15 33.8175 1223.91 34.1541C1222.98 34.2566 1222.03 34.4468 1221.26 34.9737C1219.91 35.8811 1219.38 38.1202 1221.01 39.0422C1221.61 39.3935 1222.32 39.4666 1223.03 39.4813C1225.81 39.5252 1228.72 38.5593 1231.28 39.613C1227.26 39.5398 1223.28 41.8814 1221.39 45.4377C1221.01 46.1694 1220.69 46.9597 1220.69 47.7793C1220.69 48.5989 1221.05 49.4623 1221.77 49.8867C1222.71 50.4575 1223.93 50.1063 1224.9 49.5794C1228 47.8817 1229.95 44.5596 1233.03 42.8473C1230.58 44.6767 1229.07 47.7354 1229.17 50.8087C1229.2 51.8478 1229.6 52.8576 1230.39 53.5162C1232.16 55.009 1234.42 53.765 1235.67 52.1552C1237.69 49.5355 1238.14 46.067 1238.52 42.7888C1238.43 46.1841 1238.96 49.594 1240.06 52.8137C1240.45 53.9699 1241.01 55.1992 1242.11 55.7554C1243.12 56.2676 1244.55 56.3554 1245.65 56.0773C1246.47 55.8578 1247.15 55.331 1247.71 54.6724C1248.31 53.9699 1248.59 53.0333 1248.49 52.1259C1248.05 48.2183 1245.72 44.9255 1243.47 41.7643L1253.61 51.6283C1254.06 52.082 1254.64 52.4039 1255.29 52.4918C1256.65 52.6674 1257.21 51.6429 1257.45 50.677C1258.2 47.7939 1256.93 44.6328 1254.76 42.5839C1252.6 40.535 1249.67 39.452 1246.74 38.9105C1248.88 38.7495 1250.99 39.5837 1252.89 40.5789C1254.98 41.6765 1256.97 43.0083 1259.28 43.6083C1259.85 43.7547 1260.5 43.6961 1260.95 43.3156C1261.49 42.8619 1261.45 42.2765 1261.27 41.735L1261.2 41.7643Z" fill="#FBFFF5"/>
<path d="M1555.41 77.6371C1555.6 79.4665 1553.32 81.208 1550.29 81.53C1547.26 81.852 1544.66 80.6373 1544.47 78.8079C1544.28 76.9785 1546.56 75.237 1549.59 74.915C1552.62 74.593 1555.22 75.8077 1555.41 77.6371Z" fill="url(#paint2_linear_104_22032)"/>
<path d="M1245.41 37.6371C1245.6 39.4665 1243.32 41.208 1240.29 41.53C1237.26 41.852 1234.66 40.6373 1234.47 38.8079C1234.28 36.9785 1236.56 35.237 1239.59 34.915C1242.62 34.593 1245.22 35.8077 1245.41 37.6371Z" fill="url(#paint3_linear_104_22032)"/>
<path d="M24.0506 28.5684C24.0506 28.5684 24.1091 28.4367 24.1383 28.3781C25.382 25.7292 28.9227 23.8559 32.5073 23.973C30.4443 23.6949 28.4545 23.1388 26.611 22.3632C25.9087 22.0705 25.1624 21.6753 24.9722 21.0606C24.7674 20.4021 25.3234 19.6996 26.0842 19.363C26.845 19.041 27.7522 18.9971 28.6155 19.041C32.3903 19.2166 36.0481 20.6655 38.4915 22.9485C38.0525 22.0997 37.3209 21.368 36.7211 20.5777C36.0188 19.641 35.4774 18.5434 35.9895 17.4604C36.2675 16.8897 36.8674 16.4213 37.6282 16.3189C38.784 16.1579 39.618 16.8311 40.2471 17.5043C41.6517 19.041 42.5735 20.8411 42.91 22.7144C43.0563 20.5338 43.8757 18.3971 45.251 16.5092C45.807 15.7481 46.5678 14.9578 47.8407 15.0017C48.8941 15.031 49.772 15.6457 50.1231 16.436C50.723 17.7824 49.9622 19.1581 49.0404 20.3143C48.2357 21.3241 47.2554 22.29 46.8458 23.4315C48.3674 21.7338 50.2549 20.1972 52.8299 19.4947C53.7663 19.2313 54.7612 19.1288 55.7415 19.1874C56.4877 19.2313 57.3071 19.3776 57.863 19.802C58.3459 20.1679 58.5799 20.7679 58.258 21.2363C58.0532 21.5436 57.6435 21.7485 57.2485 21.8948C54.7465 22.89 51.6302 23.0364 49.655 24.6169C52.2008 23.373 55.2733 22.8315 58.2435 23.0803C59.0921 23.1534 59.9553 23.2998 60.6722 23.6803C61.9012 24.3389 62.3986 25.9487 60.9062 26.6219C60.3503 26.8707 59.6919 26.9293 59.0628 26.9439C56.517 26.9732 53.8541 26.2707 51.5131 27.0463C55.2001 27.0024 58.8433 28.6855 60.5698 31.2612C60.9209 31.7881 61.2135 32.3588 61.1989 32.9589C61.1989 33.5589 60.8624 34.1736 60.2186 34.4809C59.3554 34.8907 58.2434 34.6419 57.3509 34.2614C54.5125 33.0321 52.7275 30.6319 49.9037 29.3879C52.1569 30.7197 53.5322 32.915 53.4444 35.1395C53.4152 35.8859 53.0494 36.6176 52.3324 37.1006C50.7084 38.1836 48.6308 37.2762 47.5042 36.1054C45.6607 34.2175 45.251 31.7003 44.8999 29.3294C44.9731 31.7881 44.5048 34.2614 43.4953 36.5737C43.1295 37.4079 42.6174 38.3006 41.6224 38.7104C40.7007 39.0763 39.3839 39.1495 38.389 38.9446C37.6282 38.7836 37.0136 38.4031 36.5016 37.9348C35.9602 37.4226 35.6969 36.7493 35.7993 36.0908C36.1943 33.2662 38.3305 30.8807 40.3935 28.5977L31.1173 35.7395C30.693 36.0615 30.1663 36.2957 29.5811 36.3542C28.3374 36.4713 27.8254 35.7395 27.5913 35.037C26.9036 32.9442 28.0741 30.6612 30.0493 29.1831C32.0245 27.7049 34.702 26.9146 37.3941 26.5341C35.4336 26.417 33.5168 27.0171 31.7757 27.7488C29.8591 28.5391 28.0302 29.505 25.9233 29.9441C25.3966 30.0465 24.8114 30.0026 24.4017 29.7245C23.9189 29.4026 23.9481 28.9782 24.0944 28.583L24.0506 28.5684Z" fill="#FBFFF5"/>
<path d="M211.2 82.7643C211.17 82.6765 211.141 82.5887 211.112 82.4863C209.751 78.8129 205.889 76.2371 201.982 76.3835C204.235 75.9883 206.415 75.2419 208.42 74.1736C209.195 73.7638 210 73.2223 210.219 72.3735C210.439 71.4515 209.839 70.4856 209.005 70.0319C208.171 69.5782 207.191 69.5343 206.24 69.5928C202.114 69.827 198.12 71.832 195.457 74.9931C195.939 73.8077 196.73 72.7979 197.388 71.7149C198.163 70.427 198.734 68.8903 198.178 67.4122C197.885 66.6219 197.212 65.978 196.393 65.8316C195.135 65.5975 194.213 66.5341 193.54 67.4708C192.004 69.5782 190.994 72.0808 190.643 74.6712C190.482 71.6564 189.59 68.7001 188.083 66.0804C187.468 65.0267 186.649 63.9437 185.259 64.0023C184.103 64.0462 183.152 64.895 182.772 65.978C182.113 67.8366 182.947 69.7392 183.957 71.3344C184.849 72.7247 185.902 74.0565 186.356 75.6517C184.688 73.3101 182.64 71.188 179.831 70.2075C178.806 69.8563 177.724 69.7099 176.656 69.7977C175.836 69.8563 174.944 70.0612 174.344 70.6319C173.817 71.1295 173.569 71.9637 173.905 72.6076C174.139 73.0321 174.563 73.3101 175.002 73.5296C177.738 74.9053 181.147 75.1102 183.284 77.2908C180.504 75.5785 177.153 74.8175 173.905 75.1541C172.983 75.2566 172.032 75.4468 171.257 75.9737C169.911 76.8811 169.384 79.1202 171.008 80.0422C171.608 80.3935 172.325 80.4666 173.027 80.4813C175.807 80.5252 178.719 79.5593 181.279 80.613C177.256 80.5398 173.276 82.8814 171.388 86.4377C171.008 87.1694 170.686 87.9597 170.686 88.7793C170.686 89.5989 171.052 90.4623 171.769 90.8867C172.705 91.4575 173.934 91.1063 174.9 90.5794C178.002 88.8817 179.948 85.5596 183.035 83.8473C180.577 85.6767 179.07 88.7354 179.172 91.8087C179.201 92.8478 179.597 93.8576 180.387 94.5162C182.157 96.009 184.425 94.765 185.668 93.1552C187.688 90.5355 188.141 87.067 188.522 83.7888C188.434 87.1841 188.96 90.594 190.058 93.8137C190.453 94.9699 191.009 96.1992 192.106 96.7554C193.116 97.2676 194.55 97.3554 195.647 97.0773C196.466 96.8578 197.154 96.331 197.71 95.6724C198.31 94.9699 198.588 94.0333 198.485 93.1259C198.046 89.2183 195.72 85.9255 193.467 82.7643L203.606 92.6283C204.06 93.082 204.645 93.4039 205.289 93.4918C206.649 93.6674 207.205 92.6429 207.454 91.677C208.2 88.7939 206.927 85.6328 204.762 83.5839C202.597 81.535 199.67 80.452 196.744 79.9105C198.88 79.7495 200.987 80.5837 202.889 81.5789C204.982 82.6765 206.971 84.0083 209.283 84.6083C209.854 84.7547 210.497 84.6961 210.951 84.3156C211.492 83.8619 211.448 83.2765 211.273 82.735L211.2 82.7643Z" fill="#FBFFF5"/>
<path d="M307.043 68.9722C307.043 68.9722 307.092 68.8462 307.117 68.7903C308.169 66.2577 311.164 64.4668 314.197 64.5787C312.451 64.3129 310.768 63.7812 309.209 63.0396C308.615 62.7598 307.983 62.382 307.822 61.7943C307.649 61.1647 308.12 60.4931 308.763 60.1713C309.407 59.8634 310.174 59.8215 310.904 59.8634C314.098 60.0313 317.192 61.4165 319.259 63.5993C318.888 62.7877 318.269 62.0882 317.761 61.3326C317.167 60.4371 316.709 59.3877 317.142 58.3523C317.378 57.8066 317.885 57.3589 318.529 57.2609C319.506 57.107 320.212 57.7507 320.744 58.3943C321.932 59.8634 322.712 61.5844 322.997 63.3754C323.12 61.2906 323.814 59.2478 324.977 57.4428C325.447 56.7153 326.091 55.9597 327.168 56.0017C328.059 56.0297 328.802 56.6173 329.099 57.3729C329.606 58.6601 328.962 59.9754 328.183 61.0807C327.502 62.0462 326.673 62.9696 326.326 64.061C327.613 62.438 329.21 60.9688 331.388 60.2972C332.18 60.0453 333.022 59.9474 333.851 60.0034C334.483 60.0453 335.176 60.1853 335.646 60.591C336.054 60.9408 336.252 61.5145 335.98 61.9622C335.807 62.2561 335.46 62.4519 335.126 62.5919C333.01 63.5433 330.373 63.6832 328.703 65.1944C330.856 64.005 333.455 63.4873 335.968 63.7252C336.686 63.7952 337.416 63.9351 338.022 64.2989C339.062 64.9285 339.483 66.4676 338.22 67.1112C337.75 67.3491 337.193 67.4051 336.661 67.4191C334.507 67.4471 332.255 66.7754 330.274 67.517C333.393 67.475 336.475 69.0841 337.936 71.5467C338.233 72.0504 338.48 72.5961 338.468 73.1697C338.468 73.7434 338.183 74.3311 337.639 74.6249C336.908 75.0167 335.968 74.7788 335.213 74.415C332.812 73.2397 331.302 70.945 328.913 69.7557C330.819 71.029 331.982 73.1278 331.908 75.2545C331.883 75.9681 331.574 76.6677 330.967 77.1295C329.594 78.1649 327.836 77.2974 326.883 76.178C325.324 74.3731 324.977 71.9664 324.68 69.6998C324.742 72.0504 324.346 74.415 323.492 76.6257C323.182 77.4233 322.749 78.2768 321.908 78.6686C321.128 79.0184 320.014 79.0883 319.172 78.8924C318.529 78.7385 318.009 78.3747 317.576 77.927C317.118 77.4373 316.895 76.7937 316.981 76.164C317.316 73.4636 319.123 71.1829 320.868 69.0002L313.021 75.8282C312.662 76.136 312.216 76.3599 311.721 76.4159C310.669 76.5278 310.236 75.8282 310.038 75.1566C309.456 73.1558 310.446 70.973 312.117 69.5598C313.788 68.1467 316.053 67.3911 318.331 67.0273C316.672 66.9154 315.051 67.489 313.578 68.1886C311.956 68.9442 310.409 69.8677 308.627 70.2874C308.181 70.3854 307.686 70.3434 307.34 70.0775C306.931 69.7697 306.956 69.3639 307.08 68.9862L307.043 68.9722Z" fill="#FBFFF5"/>
<path d="M319.009 66.0622C318.852 67.421 320.727 68.7194 323.205 68.961C325.683 69.2026 327.82 68.2967 327.991 66.9378C328.148 65.579 326.273 64.2806 323.795 64.039C321.317 63.7974 319.18 64.7033 319.009 66.0622Z" fill="url(#paint4_linear_104_22032)"/>
<path d="M195.413 78.6371C195.603 80.4665 193.32 82.208 190.292 82.53C187.263 82.852 184.659 81.6373 184.469 79.8079C184.278 77.9785 186.561 76.237 189.589 75.915C192.618 75.593 195.222 76.8077 195.413 78.6371Z" fill="url(#paint5_linear_104_22032)"/>
<path d="M38.5064 25.5682C38.3308 26.8854 40.4231 28.144 43.1884 28.3781C45.9536 28.6123 48.3385 27.7342 48.5288 26.417C48.7043 25.0999 46.6121 23.8413 43.8468 23.6071C41.0815 23.373 38.6966 24.2511 38.5064 25.5682Z" fill="url(#paint6_linear_104_22032)"/>
<path d="M1472 65.5L1472.88 75.125L1492.35 76L1495 67.25L1485.27 70.75L1488.81 62L1475.54 69L1472 65.5Z" fill="#13B164"/>
<path d="M1316 18.5L1316.88 28.125L1336.35 29L1339 20.25L1329.27 23.75L1332.81 15L1319.54 22L1316 18.5Z" fill="#13B164"/>
<path d="M1172.92 77C1166.2 79.0211 1162.56 88.5088 1162 92.1579L1181.32 93C1179.3 88.2842 1181.6 83.7368 1183 82.0526C1178.3 81.3789 1173.2 85.1404 1171.24 87.1053C1169.9 85.0842 1171.8 79.5263 1172.92 77Z" fill="#13B164"/>
<path opacity="0.6" d="M196 9.5L196.885 19.125L216.346 20L219 11.25L209.269 14.75L212.808 6L199.538 13L196 9.5Z" fill="#13B164"/>
<path d="M370 69.5L370.885 79.125L390.346 80L393 71.25L383.269 74.75L386.808 66L373.538 73L370 69.5Z" fill="#13B164"/>
<path d="M521 100.5L521.885 110.125L541.346 111L544 102.25L534.269 105.75L537.808 97L524.538 104L521 100.5Z" fill="#13B164"/>
<path d="M1639 95.5L1639.88 105.125L1659.35 106L1662 97.25L1652.27 100.75L1655.81 92L1642.54 99L1639 95.5Z" fill="#13B164"/>
<path d="M1559 3.5L1559.88 13.125L1579.35 14L1582 5.25L1572.27 8.75L1575.81 0L1562.54 7L1559 3.5Z" fill="#13B164"/>
<path d="M111 32.5L111.885 42.125L131.346 43L134 34.25L124.269 37.75L127.808 29L114.538 36L111 32.5Z" fill="#13B164"/>
<path d="M492.2 33.7643C492.17 33.6765 492.141 33.5887 492.112 33.4863C490.751 29.8129 486.889 27.2371 482.982 27.3835C485.235 26.9883 487.415 26.2419 489.42 25.1736C490.195 24.7638 491 24.2223 491.219 23.3735C491.439 22.4515 490.839 21.4856 490.005 21.0319C489.171 20.5782 488.191 20.5343 487.24 20.5928C483.114 20.827 479.12 22.832 476.457 25.9931C476.939 24.8077 477.73 23.7979 478.388 22.7149C479.163 21.427 479.734 19.8903 479.178 18.4122C478.885 17.6219 478.212 16.978 477.393 16.8316C476.135 16.5975 475.213 17.5341 474.54 18.4708C473.004 20.5782 471.994 23.0808 471.643 25.6712C471.482 22.6564 470.59 19.7001 469.083 17.0804C468.468 16.0267 467.649 14.9437 466.259 15.0023C465.103 15.0462 464.152 15.895 463.772 16.978C463.113 18.8366 463.947 20.7392 464.957 22.3344C465.849 23.7247 466.902 25.0565 467.356 26.6517C465.688 24.3101 463.64 22.188 460.831 21.2075C459.806 20.8563 458.724 20.7099 457.656 20.7977C456.836 20.8563 455.944 21.0612 455.344 21.6319C454.817 22.1295 454.569 22.9637 454.905 23.6076C455.139 24.0321 455.563 24.3101 456.002 24.5296C458.738 25.9053 462.147 26.1102 464.284 28.2908C461.504 26.5785 458.153 25.8175 454.905 26.1541C453.983 26.2566 453.032 26.4468 452.257 26.9737C450.911 27.8811 450.384 30.1202 452.008 31.0422C452.608 31.3935 453.325 31.4666 454.027 31.4813C456.807 31.5252 459.719 30.5593 462.279 31.613C458.256 31.5398 454.276 33.8814 452.388 37.4377C452.008 38.1694 451.686 38.9597 451.686 39.7793C451.686 40.5989 452.052 41.4623 452.769 41.8867C453.705 42.4575 454.934 42.1063 455.9 41.5794C459.002 39.8817 460.948 36.5596 464.035 34.8473C461.577 36.6767 460.07 39.7354 460.172 42.8087C460.201 43.8478 460.597 44.8576 461.387 45.5162C463.157 47.009 465.425 45.765 466.668 44.1552C468.688 41.5355 469.141 38.067 469.522 34.7888C469.434 38.1841 469.96 41.594 471.058 44.8137C471.453 45.9699 472.009 47.1992 473.106 47.7554C474.116 48.2676 475.55 48.3554 476.647 48.0773C477.466 47.8578 478.154 47.331 478.71 46.6724C479.31 45.9699 479.588 45.0333 479.485 44.1259C479.046 40.2183 476.72 36.9255 474.467 33.7643L484.606 43.6283C485.06 44.082 485.645 44.4039 486.289 44.4918C487.649 44.6674 488.205 43.6429 488.454 42.677C489.2 39.7939 487.927 36.6328 485.762 34.5839C483.597 32.535 480.67 31.452 477.744 30.9105C479.88 30.7495 481.987 31.5837 483.889 32.5789C485.982 33.6765 487.971 35.0083 490.283 35.6083C490.854 35.7547 491.497 35.6961 491.951 35.3156C492.492 34.8619 492.448 34.2765 492.273 33.735L492.2 33.7643Z" fill="#FBFFF5"/>
<path d="M476.412 29.6371C476.602 31.4665 474.32 33.208 471.291 33.53C468.263 33.852 465.658 32.6373 465.468 30.8079C465.278 28.9785 467.56 27.237 470.589 26.915C473.618 26.593 476.222 27.8077 476.412 29.6371Z" fill="url(#paint7_linear_104_22032)"/>
<path d="M1361.44 104.266C1361.41 104.193 1361.38 104.12 1361.34 104.046C1359.93 101.061 1355.95 98.968 1351.93 99.0851C1354.24 98.7631 1356.5 98.1485 1358.57 97.285C1359.36 96.9484 1360.21 96.5093 1360.42 95.8215C1360.65 95.0751 1360.02 94.2848 1359.17 93.9189C1358.32 93.5531 1357.3 93.5092 1356.33 93.5531C1352.08 93.7433 1347.97 95.3824 1345.23 97.9582C1345.71 96.9923 1346.55 96.1727 1347.22 95.28C1348.01 94.2263 1348.61 92.9823 1348.04 91.7822C1347.73 91.1383 1347.04 90.6261 1346.19 90.4943C1344.89 90.3041 1343.96 91.0651 1343.25 91.8261C1341.67 93.5531 1340.64 95.5727 1340.27 97.6801C1340.11 95.2361 1339.19 92.8213 1337.64 90.6992C1337.01 89.8358 1336.16 88.9577 1334.72 89.0016C1333.54 89.0455 1332.56 89.7333 1332.16 90.6114C1331.48 92.1335 1332.34 93.6701 1333.39 94.9727C1334.3 96.1142 1335.4 97.1972 1335.87 98.4851C1334.15 96.5825 1332.03 94.8409 1329.14 94.0506C1328.08 93.7579 1326.97 93.6409 1325.86 93.714C1325.01 93.758 1324.1 93.9336 1323.47 94.4019C1322.93 94.8117 1322.67 95.4849 1323.02 96.0117C1323.25 96.363 1323.71 96.5825 1324.15 96.7581C1326.96 97.885 1330.47 98.046 1332.68 99.8168C1329.81 98.4265 1326.36 97.7972 1323.02 98.0899C1322.07 98.1777 1321.09 98.3387 1320.3 98.7631C1318.91 99.5095 1318.37 101.324 1320.03 102.071C1320.66 102.349 1321.4 102.422 1322.11 102.436C1324.97 102.466 1327.96 101.675 1330.61 102.554C1326.47 102.495 1322.38 104.398 1320.43 107.295C1320.03 107.881 1319.71 108.539 1319.71 109.212C1319.71 109.886 1320.09 110.588 1320.82 110.925C1321.79 111.378 1323.05 111.1 1324.04 110.676C1327.23 109.3 1329.24 106.593 1332.43 105.188C1329.9 106.681 1328.34 109.154 1328.45 111.671C1328.48 112.505 1328.89 113.34 1329.71 113.881C1331.53 115.096 1333.86 114.071 1335.15 112.769C1337.23 110.632 1337.69 107.822 1338.07 105.144C1337.99 107.91 1338.53 110.676 1339.65 113.296C1340.06 114.247 1340.64 115.242 1341.76 115.696C1342.8 116.106 1344.28 116.193 1345.4 115.959C1346.25 115.784 1346.96 115.345 1347.53 114.818C1348.14 114.247 1348.42 113.486 1348.32 112.74C1347.88 109.564 1345.48 106.871 1343.14 104.31L1353.57 112.344C1354.04 112.71 1354.64 112.974 1355.3 113.047C1356.7 113.193 1357.27 112.359 1357.53 111.569C1358.31 109.227 1356.99 106.651 1354.77 104.983C1352.54 103.315 1349.53 102.436 1346.52 101.997C1348.73 101.866 1350.88 102.539 1352.84 103.358C1354.99 104.251 1357.05 105.334 1359.42 105.832C1360.01 105.949 1360.67 105.905 1361.13 105.598C1361.69 105.232 1361.65 104.749 1361.47 104.31L1361.44 104.266Z" fill="#FBFFF5"/>
<path d="M1345.18 100.9C1345.39 102.378 1343.02 103.797 1339.92 104.061C1336.8 104.324 1334.12 103.329 1333.92 101.851C1333.71 100.373 1336.08 98.9532 1339.19 98.6897C1342.3 98.4263 1344.98 99.4215 1345.18 100.9Z" fill="url(#paint8_linear_104_22032)"/>
<defs>
<linearGradient id="paint0_linear_104_22032" x1="1620.37" y1="43.6015" x2="1631.63" y2="42.6503" gradientUnits="userSpaceOnUse">
<stop stop-color="#FF7300"/>
<stop offset="0.13" stop-color="#F97C00"/>
<stop offset="0.35" stop-color="#EA9502"/>
<stop offset="0.41" stop-color="#E59E03"/>
<stop offset="0.98" stop-color="#E5C500"/>
</linearGradient>
<linearGradient id="paint1_linear_104_22032" x1="1432.16" y1="30.7091" x2="1422.15" y2="29.8633" gradientUnits="userSpaceOnUse">
<stop stop-color="#FF7300"/>
<stop offset="0.13" stop-color="#F97C00"/>
<stop offset="0.35" stop-color="#EA9502"/>
<stop offset="0.41" stop-color="#E59E03"/>
<stop offset="0.98" stop-color="#E5C500"/>
</linearGradient>
<linearGradient id="paint2_linear_104_22032" x1="1544.48" y1="78.7861" x2="1555.42" y2="77.6154" gradientUnits="userSpaceOnUse">
<stop stop-color="#FF7300"/>
<stop offset="0.13" stop-color="#F97C00"/>
<stop offset="0.35" stop-color="#EA9502"/>
<stop offset="0.41" stop-color="#E59E03"/>
<stop offset="0.98" stop-color="#E5C500"/>
</linearGradient>
<linearGradient id="paint3_linear_104_22032" x1="1234.48" y1="38.7861" x2="1245.42" y2="37.6154" gradientUnits="userSpaceOnUse">
<stop stop-color="#FF7300"/>
<stop offset="0.13" stop-color="#F97C00"/>
<stop offset="0.35" stop-color="#EA9502"/>
<stop offset="0.41" stop-color="#E59E03"/>
<stop offset="0.98" stop-color="#E5C500"/>
</linearGradient>
<linearGradient id="paint4_linear_104_22032" x1="331.846" y1="67.4428" x2="322.875" y2="66.7845" gradientUnits="userSpaceOnUse">
<stop stop-color="#FF7300"/>
<stop offset="0.13" stop-color="#F97C00"/>
<stop offset="0.35" stop-color="#EA9502"/>
<stop offset="0.41" stop-color="#E59E03"/>
<stop offset="0.98" stop-color="#E5C500"/>
</linearGradient>
<linearGradient id="paint5_linear_104_22032" x1="184.478" y1="79.7861" x2="195.418" y2="78.6154" gradientUnits="userSpaceOnUse">
<stop stop-color="#FF7300"/>
<stop offset="0.13" stop-color="#F97C00"/>
<stop offset="0.35" stop-color="#EA9502"/>
<stop offset="0.41" stop-color="#E59E03"/>
<stop offset="0.98" stop-color="#E5C500"/>
</linearGradient>
<linearGradient id="paint6_linear_104_22032" x1="50.1612" y1="26.7091" x2="40.1496" y2="25.8633" gradientUnits="userSpaceOnUse">
<stop stop-color="#FF7300"/>
<stop offset="0.13" stop-color="#F97C00"/>
<stop offset="0.35" stop-color="#EA9502"/>
<stop offset="0.41" stop-color="#E59E03"/>
<stop offset="0.98" stop-color="#E5C500"/>
</linearGradient>
<linearGradient id="paint7_linear_104_22032" x1="465.477" y1="30.7861" x2="476.417" y2="29.6154" gradientUnits="userSpaceOnUse">
<stop stop-color="#FF7300"/>
<stop offset="0.13" stop-color="#F97C00"/>
<stop offset="0.35" stop-color="#EA9502"/>
<stop offset="0.41" stop-color="#E59E03"/>
<stop offset="0.98" stop-color="#E5C500"/>
</linearGradient>
<linearGradient id="paint8_linear_104_22032" x1="1324.37" y1="102.602" x2="1335.63" y2="101.65" gradientUnits="userSpaceOnUse">
<stop stop-color="#FF7300"/>
<stop offset="0.13" stop-color="#F97C00"/>
<stop offset="0.35" stop-color="#EA9502"/>
<stop offset="0.41" stop-color="#E59E03"/>
<stop offset="0.98" stop-color="#E5C500"/>
</linearGradient>
</defs>
</svg>
