<svg width="1646" height="1136" viewBox="0 0 1646 1136" fill="none" xmlns="http://www.w3.org/2000/svg">
<g clip-path="url(#clip0_666_11981)">
<path d="M229 1118C128.2 1129.2 5.66667 1130.67 -27 1126V1067L1761 1049C1770.33 1061 1755.86 1065.99 1785 1086C1868 1143 1767 1128 1644 1128C1474 1119 1434 1126 1322 1126H976C800 1126 653 1127 511 1135C369 1143 355 1104 229 1118Z" fill="#FFEFD7"/>
<path d="M228 1109C127.2 1120.2 32.1667 1123.17 -0.5 1118.5L-28 1053L1760 1035C1769.33 1047 1792.2 1043.8 1789 1079C1785.8 1114.2 1732 1120 1658 1120C1614 1114 1429 1109 1317 1109C1179.81 1109 1070 1079 897 1093C721.573 1107.2 652 1110 510 1118C368 1126 354 1095 228 1109Z" fill="#D1BB99"/>
<mask id="mask0_666_11981" style="mask-type:alpha" maskUnits="userSpaceOnUse" x="-2" y="866" width="1780" height="245">
<path d="M160 1106.32C143.307 1107.66 82.5 1111 -2 1109V866H1778V1092.97C1748 1118 1692 1108.32 1590 1108.32C1516.39 1108.32 1445.46 1101.15 1309 1104.65C1166 1108.32 1115.49 1086.91 985 1094C893 1099 810 1104.65 718 1104.65C646.345 1104.65 459 1114.68 398 1108.32C360.667 1104.42 326 1092.97 160 1106.32Z" fill="url(#paint0_linear_666_11981)"/>
</mask>
<g mask="url(#mask0_666_11981)">
<path fill-rule="evenodd" clip-rule="evenodd" d="M1752.15 775.494V1159.33H-43V784.352C-43 784.352 -25.0085 783.932 6.2677 783.231C14.2073 783.054 23.0219 782.861 32.6168 782.634C38.0037 782.529 43.647 782.407 49.5104 782.281C53.6599 782.193 57.907 782.088 62.2767 782C83.3197 781.542 106.935 781.055 132.587 780.526C140.388 780.366 148.405 780.194 156.582 780.034C170.304 779.753 184.505 779.472 199.147 779.173C201.881 779.123 204.632 779.068 207.385 779.035C220.31 778.77 233.533 778.51 247.019 778.262C256.892 778.069 266.925 777.876 277.077 777.682C284.058 777.544 291.1 777.418 298.201 777.296C342.762 776.473 389.335 775.666 436.387 774.91C441.372 774.822 446.38 774.751 451.385 774.667C584.026 772.596 719.202 771 822.762 771C885.93 771 973.076 771.265 1068.9 771.668C1072.67 771.685 1076.42 771.701 1080.19 771.701C1144.41 771.983 1212.19 772.315 1279.01 772.667C1288.44 772.722 1297.8 772.772 1307.15 772.806C1314.01 772.861 1320.86 772.894 1327.68 772.928C1341.9 772.999 1356.04 773.087 1370.04 773.155C1373.73 773.171 1377.42 773.205 1381.09 773.226C1397.99 773.314 1414.64 773.419 1431 773.507C1435.27 773.524 1439.5 773.562 1443.72 773.579C1473.36 773.755 1501.91 773.911 1528.85 774.087C1659.08 774.86 1752.15 775.49 1752.15 775.49L1752.15 775.494Z" fill="url(#paint1_linear_666_11981)"/>
<path d="M1647.32 859.208C1664.29 859.115 1681.27 860.719 1698 864.011C1647.04 867.769 1596.01 870.013 1544.95 870.742C1538.62 870.831 1531.88 870.776 1526.52 866.832C1523.83 864.856 1521.62 861.98 1518.71 860.488C1516.11 859.16 1513.19 859.059 1510.35 858.981C1455.11 857.482 1399.86 856.846 1344.6 857.08C1338.09 857.106 1331.24 857.251 1325.6 861.076C1321.4 863.926 1318.32 868.528 1314.88 872.532C1294.9 895.759 1263.81 898.003 1235.67 898.84C1224.5 899.175 1212.17 899.048 1203.75 890.465C1206.16 884.977 1208.57 879.489 1210.98 874.001C1204.86 867.799 1195.61 870.556 1187.54 871.378C1162.79 873.901 1140.67 854.907 1116.98 846.19C1100.36 840.077 1082.69 839.028 1065.26 839.255C1019.82 839.846 974.772 844.088 929.162 844.471C881.19 844.876 833.229 846.487 785.291 848.686C681.409 853.445 577.628 860.998 473.719 864.953C448.043 865.931 164.4 867.021 164.912 859.989C166.662 835.921 177.625 815.893 185.705 793C310.102 804.657 434.586 816.317 559.467 821.15C655.251 824.856 751.112 824.536 846.937 823.301C895.396 822.676 943.851 821.809 992.308 821.109C1037.67 820.454 1083.48 815.863 1128.69 821.682C1140.32 823.178 1152.17 825.336 1162.45 831.847C1168.69 835.802 1174.22 841.29 1180.78 844.46C1189.66 848.75 1199.6 848.441 1209.21 848.061C1226.63 847.377 1244.26 846.655 1261.04 841.1C1273.59 836.948 1285.41 830.173 1297.89 825.767C1313.1 820.399 1329.04 818.631 1344.89 817.478C1379.9 814.937 1415.07 815.286 1450.04 818.523C1483.27 821.6 1516.7 827.404 1547.55 842.145C1560.05 848.113 1572.16 855.562 1585.36 858.862C1601.7 862.947 1618.64 860.44 1635.33 859.554C1639.33 859.342 1643.33 859.227 1647.33 859.204L1647.32 859.208ZM629.269 872.907C657.33 877.528 687.479 876.732 716.012 876.699C859.875 876.531 1003.93 875.047 1147.52 883.057C1045.56 860.146 937.287 859.643 831.086 862.013C766.495 863.457 691.767 859.61 629.269 872.907ZM1570.32 901.735C1514.97 898.643 1458.73 894.677 1403.57 900.942C1345.58 907.531 1287.44 912.316 1229.24 915.252C1217.85 915.825 1206.34 916.319 1195.17 913.722C1183.76 911.073 1173.08 905.288 1161.91 901.541C1139.26 893.955 1115.23 894.915 1091.71 896.682C1040.34 900.544 989.167 907.967 938.54 918.902C933.487 919.992 928.252 921.115 923.27 919.668C919.919 918.697 916.897 916.617 913.75 914.958C900.578 908 885.532 908.45 871.081 909.031C836.741 910.407 803.066 910.82 768.839 909.704C569.486 903.219 369.54 874.396 171.615 892.362C358.895 888.742 540.63 913.972 727.824 922.31C779.066 924.59 830.068 924.081 881.333 924.635C887.453 924.702 895.09 926 896.932 932.824C897.749 935.849 897.181 939.503 898.935 941.921C900.318 943.826 902.659 944.239 904.789 944.44C934.843 947.305 964.031 933.918 993.109 924.52C1037.09 910.307 1083.75 904.998 1128.51 915.196C1139.49 917.696 1150.35 921.119 1161.49 922.258C1177.57 923.902 1193.7 920.736 1209.81 919.337C1236.73 917 1263.75 919.608 1290.73 920.754C1339.05 922.808 1387.43 920.148 1435.61 915.557C1479.8 911.345 1526.06 899.272 1570.32 901.735H1570.32ZM540.34 951.777C489.762 959.404 439.152 967.943 388.558 972.902C383.052 973.442 376.959 973.743 372.632 969.732C361.767 959.657 374.005 940.154 385.495 931.042C271.629 894.799 147.557 896.387 35.5 940C30.469 941.957 -16.0268 937.739 -19.5 942.427C-25.9157 951.081 18.7186 974.086 25.3249 982.52C31.9311 990.955 41.5634 995.044 50.8475 998.645C73.7448 1007.53 98.649 1020.04 121.747 1026.35C146.758 1033.18 174.427 1011.35 200.121 1012.91C217.53 1013.96 233.81 1022.98 250.923 1026.85C289.631 1035.59 329.286 1017.57 368.653 1020.16C383.534 1021.14 399.16 1025.66 409.442 1038.27C412.143 1041.58 414.528 1045.49 418.059 1047.46C421.243 1049.24 424.922 1049.19 428.452 1049.11C466.981 1048.21 505.51 1047.3 544.039 1046.4C553.654 1046.17 611.43 1043.54 586.6 1014.34C583.644 1010.86 579.581 1008.98 576.369 1005.83C573.156 1002.68 570.834 997.15 572.959 992.916C574.311 990.222 577.006 988.949 579.519 987.889C646.834 959.519 721.278 954.854 790.742 974.647C789.286 990.423 766.711 996.766 768.767 1012.44C769.969 1021.62 779.083 1025.75 786.81 1027.86C858.003 1047.31 935.138 1043.68 1001.52 1007.68C1007.18 1004.61 1012.82 1001.28 1018.9 999.661C1024.15 998.258 1029.58 998.169 1034.95 997.563C1051.73 995.658 1067.75 988.685 1083.95 983.194C1153.29 959.698 1228.48 958.068 1300.05 962.15C1304.32 962.392 1309.59 963.541 1310.78 968.345C1311.46 971.12 1310.4 974.052 1309.2 976.578C1305.57 984.187 1300.43 990.798 1294.3 995.743C1307.95 1003.69 1323.91 1003.32 1339.15 1002.78C1372.41 1001.58 1405.67 1000.39 1438.93 999.203C1508.19 996.725 1578.61 994.013 1644.37 968.345C1654.87 964.245 1665.94 958.898 1671.81 947.919C1656.2 939.767 1638.65 938.71 1621.56 937.813C1570.82 935.157 1520.07 932.846 1469.3 930.874C1431.98 929.427 1394.66 931.522 1357.34 932.084C1325.35 932.567 1295.17 939.644 1263.63 940.083C1185.91 941.169 1108.16 942.717 1030.54 947.703C1003.22 949.459 975.47 951.747 949.771 962.779C935.129 969.063 921.409 978.089 906.638 983.941C891.868 989.794 875.289 992.264 860.908 985.247C858.635 984.139 856.085 982.092 856.363 979.224C856.511 977.695 857.456 976.459 858.354 975.339C863.442 968.988 868.527 962.637 873.615 956.286C865.367 948.48 853.915 947.785 843.302 947.439C815.662 946.538 787.776 946.825 760.188 944.73C740.473 943.234 723.548 935.681 703.291 935.875C648.73 936.396 594.402 943.61 540.34 951.762V951.777ZM773.485 1084.91C1044.43 1009.99 1328.71 1078.71 1605.95 1049.54C1514.36 1087.65 1415.88 1087.43 1319.99 1084.41C1228.45 1081.51 1127.75 1068.62 1037.91 1094.39C1022.59 1098.78 1007.59 1104.75 993.385 1112.82C1006.05 1123.68 1020.68 1131.39 1036.04 1135.29C1007.96 1140.49 979.891 1145.69 951.818 1150.89C926.875 1155.51 899.598 1164.87 874.364 1162.01C822.163 1156.08 769.385 1173.28 716.932 1172.42C648.279 1178.13 579.408 1183.83 510.695 1179.44C473.068 1177.03 433.351 1170.54 404.09 1142.8C408.732 1147.21 443.195 1137.45 450.338 1136.81C466.835 1135.31 483.377 1134.5 499.921 1134.36C528.925 1134.13 557.223 1133.98 586.162 1131.77C650.194 1126.87 711.426 1102.07 773.483 1084.91H773.485ZM1092.51 1005.87C1090.94 1006.63 1089.11 1007.83 1089.07 1009.82C1089.02 1012.26 1091.58 1013.42 1093.64 1013.86C1132.25 1022 1171.88 1019.55 1211.05 1016.7C1227.5 1015.5 1244.47 1014.08 1259.19 1005.38C1261.59 1003.95 1264.28 1001.46 1263.69 998.385C1263.39 996.871 1262.35 995.736 1261.32 994.75C1240.87 975.12 1206.61 978.967 1181.94 981.069C1151.26 983.685 1120.93 992.045 1092.51 1005.87H1092.51Z" fill="url(#paint2_linear_666_11981)"/>
</g>
<g clip-path="url(#clip1_666_11981)">
<path d="M0 894V511L1649.5 508V894C1646.83 894 1632.6 893.9 1617 893.5C1597.5 893 1599.5 891 1597 890C1594.5 889 1591.5 882.5 1589 888.5C1587 893.3 1579.17 895.167 1575.5 895.5C1570 895.5 1558.2 894.6 1555 891C1551.8 887.4 1539.33 888.5 1533.5 889.5C1530.83 890.167 1524.6 890.5 1521 886.5C1516.5 881.5 1487 889 1461 888.5C1440.2 888.1 1431.33 881.667 1429.5 878.5C1428.67 876.833 1426.6 874.5 1425 878.5C1423.4 882.5 1413 885.5 1408 886.5C1406.33 886 1402.4 886.3 1400 891.5C1397 898 1347 896.5 1338.5 896.5C1331.7 896.5 1328 894.167 1327 893C1323.83 889.833 1315.8 884.6 1309 889C1300.5 894.5 1252.5 900.5 1247.5 895.5C1242.5 890.5 1220.5 894.5 1211 890.5C1201.5 886.5 1160.5 888 1140 895.5C1119.5 903 1088 898 1083 896C1078 894 1067 896 1064 896C1061 896 1061 893.5 1057 890.5C1053 887.5 1035 878.5 1027.5 878.5C1021.5 878.5 1009.33 879.167 1004 879.5C1001.17 879.333 995.4 879.4 995 881C994.6 882.6 991.167 883 989.5 883C983.333 882.833 969.9 882.6 965.5 883C960 883.5 958 888 958 892C958 896 947.5 897 937.5 896C929.5 895.2 920.5 895.667 917 896C914.167 896.5 907.4 898.2 903 901C897.5 904.5 894.5 904 882.5 896C872.9 889.6 862.833 889 859 889.5C852.167 890.167 838.5 890.4 838.5 886C838.5 881.6 834.833 883.5 833 885C822.167 890.667 798.5 900.2 790.5 893C782.5 885.8 772.833 889 769 891.5C762 897 746.3 906.8 739.5 902C731 896 720.5 897 715 895.5C709.5 894 694.5 896 689.5 895.5C684.5 895 681.5 888 671 887C660.5 886 657 884 653 881.5C649.8 879.5 648.333 880 648 880.5C641.5 881.333 626.9 882.3 620.5 879.5C612.5 876 588.5 888 582 893C576.8 897 575.833 895.667 576 894.5C574.667 893.5 568.2 892.8 553 898C534 904.5 498 895 491 893C484 891 448.5 891 422 890.5C400.8 890.1 395.167 892 395 893C383.5 901.5 349.5 894 340 891C332.4 888.6 326.167 887.667 324 887.5C322.5 887.167 318.4 887.8 314 893C308.5 899.5 276.5 897 257 897C237.5 897 240 891.5 240 889C240 887 239 887.167 238.5 887.5C229.5 889 216 882.5 214.5 878C213 873.5 211.5 878.5 201.5 885C191.5 891.5 135.5 887.5 128 886C120.5 884.5 119 886 117.5 888.5C116.3 890.5 112 890 110 889.5C102.333 888.333 86.9 886.7 86.5 889.5C86 893 76.5 893.5 72 895C68.4 896.2 66.5 896.5 66 896.5C63 895.833 56.3 893.7 53.5 890.5C50 886.5 54.5 886 41.5 890.5C31.1 894.1 33.5 897.5 0 894Z" fill="#259942"/>
<path d="M0 909V526L1649.5 523V909C1646.83 909 1632.6 908.9 1617 908.5C1597.5 908 1599.5 906 1597 905C1594.5 904 1591.5 897.5 1589 903.5C1587 908.3 1579.17 910.167 1575.5 910.5C1570 910.5 1558.2 909.6 1555 906C1551.8 902.4 1539.33 903.5 1533.5 904.5C1530.83 905.167 1524.6 905.5 1521 901.5C1516.5 896.5 1487 904 1461 903.5C1440.2 903.1 1431.33 896.667 1429.5 893.5C1428.67 891.833 1426.6 889.5 1425 893.5C1423.4 897.5 1413 900.5 1408 901.5C1406.33 901 1402.4 901.3 1400 906.5C1397 913 1347 911.5 1338.5 911.5C1331.7 911.5 1328 909.167 1327 908C1323.83 904.833 1315.8 899.6 1309 904C1300.5 909.5 1252.5 915.5 1247.5 910.5C1242.5 905.5 1220.5 909.5 1211 905.5C1201.5 901.5 1160.5 903 1140 910.5C1119.5 918 1088 913 1083 911C1078 909 1067 911 1064 911C1061 911 1061 908.5 1057 905.5C1053 902.5 1035 893.5 1027.5 893.5C1021.5 893.5 1009.33 894.167 1004 894.5C1001.17 894.333 995.4 894.4 995 896C994.6 897.6 991.167 898 989.5 898C983.333 897.833 969.9 897.6 965.5 898C960 898.5 958 903 958 907C958 911 947.5 912 937.5 911C929.5 910.2 920.5 910.667 917 911C914.167 911.5 907.4 913.2 903 916C897.5 919.5 894.5 919 882.5 911C872.9 904.6 862.833 904 859 904.5C852.167 905.167 838.5 905.4 838.5 901C838.5 896.6 834.833 898.5 833 900C822.167 905.667 798.5 915.2 790.5 908C782.5 900.8 772.833 904 769 906.5C762 912 746.3 921.8 739.5 917C731 911 720.5 912 715 910.5C709.5 909 694.5 911 689.5 910.5C684.5 910 681.5 903 671 902C660.5 901 657 899 653 896.5C649.8 894.5 648.333 895 648 895.5C641.5 896.333 626.9 897.3 620.5 894.5C612.5 891 595 895 588.5 900C583.3 904 582.5 908 576 909.5C571.667 910.5 568.2 907.8 553 913C534 919.5 498 910 491 908C484 906 448.5 906 422 905.5C400.8 905.1 395.167 907 395 908C383.5 916.5 349.5 909 340 906C332.4 903.6 326.167 902.667 324 902.5C322.5 902.167 318.4 902.8 314 908C308.5 914.5 276.5 912 257 912C237.5 912 240 906.5 240 904C240 902 239 902.167 238.5 902.5C229.5 904 216 897.5 214.5 893C213 888.5 211.5 893.5 201.5 900C191.5 906.5 135.5 902.5 128 901C120.5 899.5 119 901 117.5 903.5C116.3 905.5 112 905 110 904.5C102.333 903.333 86.9 901.7 86.5 904.5C86 908 76.5 908.5 72 910C68.4 911.2 66.5 911.5 66 911.5C63 910.833 56.3 908.7 53.5 905.5C50 901.5 54.5 901 41.5 905.5C31.1 909.1 33.5 912.5 0 909Z" fill="#5C4C29"/>
<path d="M45.5 862.5C32 881.5 15 859.5 0 867.5V-20H1646V867.5C1630 875.5 1602.5 873.5 1598 866.5C1593.5 859.5 1595 868.5 1596 871.5C1596.8 873.9 1596 873.5 1595.5 873C1584 866 1591.5 872.5 1591 880C1590.6 886 1588.5 882.833 1587.5 880.5C1587 878.167 1585.5 874.7 1583.5 879.5C1581 885.5 1575 875.5 1574.5 873.5C1574 871.5 1572 868.5 1572 870.5C1572 872.5 1569.5 874 1566 873C1563.2 872.2 1563.5 873 1564 873.5C1564.67 875.333 1565 878.4 1561 876C1556 873 1554 874 1557 877C1560 880 1518.5 872 1516.19 870.5C1513.88 869 1512.5 866 1508.81 871C1505.12 876 1505 872.5 1505 870.5C1505 868.5 1496.5 872.5 1493 876.5C1489.5 880.5 1494.5 868 1495 867C1495.4 866.2 1491.17 864 1489 863C1487.83 862.333 1485.6 861.3 1486 862.5C1486.5 864 1483 870 1481.5 869.5C1480 869 1479 872.5 1480.5 876C1482 879.5 1476 876 1472 874C1468 872 1469.5 875 1470 877.5C1470.5 880 1464.5 874.5 1461 871C1457.5 867.5 1458.5 873 1458.5 875.5C1458.5 877.5 1458.17 877.333 1458 877C1456.83 876.5 1454.7 874.9 1455.5 872.5C1456.3 870.1 1455.83 869.5 1455.5 869.5C1453.5 869 1449 868.7 1447 871.5C1445 874.3 1443.17 873.667 1442.5 873C1436.5 869 1432 869 1430.5 869.5C1429 870 1425.5 869.5 1423.5 867.5C1421.5 865.5 1421 867 1418 866.5C1415 866 1421.5 861 1422.5 859.5C1423.5 858 1419 860 1416.5 861C1414.5 861.8 1413.67 860 1413.5 859C1412.83 856.167 1411.6 851.9 1412 857.5C1412.5 864.5 1410 862.5 1409 862C1408 861.5 1406 862 1407 862.5C1408 863 1412 867.5 1412 869C1412 870.2 1407 869.167 1404.5 868.5C1407.33 869.5 1412.3 872.6 1409.5 877C1406.7 881.4 1404.67 878.167 1404 876C1403.33 872.5 1402.2 867.3 1403 874.5C1404 883.5 1398.5 882 1390 876.5C1381.5 871 1385.5 876 1386 877.5C1386.5 879 1387 879.5 1383 879C1379 878.5 1379.5 880.5 1379.5 883.5C1379.5 885.9 1378.5 884.833 1378 884C1378.17 883 1373.6 881.1 1354 881.5C1334.4 881.9 1328.5 879 1328 877.5C1327.5 876.5 1326.5 875 1326.5 877C1326.5 879.5 1318.5 880 1316.5 878C1314.9 876.4 1314.5 877 1314.5 877.5C1312 886 1307 878.5 1306 876C1305.2 874 1304 874.833 1303.5 875.5C1297 880.5 1282 882 1276.5 879.5C1271 877 1271 883 1270 886.5C1269.2 889.3 1267.67 887.667 1267 886.5C1265.67 884.167 1262.5 879.2 1260.5 878C1258 876.5 1255.5 886 1254.5 888C1253.5 890 1249.5 881 1249.5 877.5C1249.5 874.7 1245.5 875.667 1243.5 876.5C1233.33 878 1210.2 879.6 1199 874C1187.8 868.4 1182.33 871.333 1181 873.5C1179.67 875.167 1177.3 877.7 1178.5 874.5C1179.7 871.3 1179 869.167 1178.5 868.5C1173.5 865 1173.5 875 1173 876.5C1172.5 878 1173 878.5 1171 878.5C1169 878.5 1169 876.5 1169.5 871.5C1170 866.5 1167 873.5 1166 878C1165 882.5 1155.5 876.5 1153 874C1151 872 1150.83 872.833 1151 873.5C1152.5 886.5 1148.5 884.5 1147 881.5C1145.8 879.1 1145.83 879.833 1146 880.5C1148.4 890.5 1142 885.667 1138.5 882C1143 890 1133.5 887.5 1132 885.5C1130.8 883.9 1129.17 883.833 1128.5 884C1121.33 884.5 1104.8 884.2 1096 879C1087.2 873.8 1080.33 875.5 1078 877C1068.8 883 1070.83 877.833 1073 874.5C1074 872.833 1076 869.1 1076 867.5C1076 865.5 1070 871.5 1065 877C1060 882.5 1060 878.5 1060.5 876C1060.9 874 1057.67 869.833 1056 868C1053.67 865.5 1048.4 861.9 1046 867.5C1043 874.5 1038 865.5 1038 863.5C1038 861.9 1037.33 862.167 1037 862.5C1034 865 1023 865 1021.5 863C1020.3 861.4 1020 862 1020 862.5C1019.5 867.5 1013.5 864.5 1005 861C996.5 857.5 1000 859.5 1001.5 865C1003 870.5 996.5 866 995 862.5C993.8 859.7 993.167 860 993 860.5C987.8 869.7 984.167 866 983 863C971 869.8 968.667 864.167 969 860.5C969 858.333 968.7 855.3 967.5 860.5C966.3 865.7 961.333 864.667 959 863.5C967.5 871 970.5 878 969.812 880.5C969.125 883 961.5 881 958 879.5C954.5 878 952 878 951 878.5C950 879 950.5 879.5 950 880.5C949.5 881.5 946 879.5 946 878C946 876.5 944.5 876.5 943 877.5C941.5 878.5 942.5 879.5 937 881.5C931.5 883.5 930.5 885 930.5 887.5C930.5 889.5 929.5 889.333 929 889C927.667 888.5 925.2 886.95 926 884.75C926.8 882.55 926.333 882.667 926 883C918 890.5 918 885 919 882.5C919.8 880.5 919.333 880.667 919 881C905 894.5 901 890.5 901 889C901 887.8 900 887.833 899.5 888L897 889.5C879 899 877.5 885.5 886.5 878C893.7 872 894.833 869.5 894.5 869C893 864 868 872.5 864 874C860 875.5 849.5 877 854 871.5C857.6 867.1 849.167 868.333 844.5 869.5C841.167 870.5 834.7 871.9 835.5 869.5C836.3 867.1 835.833 863.5 835.5 862C833.1 854 827.5 858 825 861C821.333 865.167 811.8 872.7 803 869.5C792 865.5 795 871 798 874C801 877 796 881 789 878.5C782 876 775 871.5 758 868.5C744.4 866.1 745.333 869.167 747.5 871C751 873.667 758 881 758 889C758 897 747.333 891.667 742 888C734.8 894.4 725.667 885.667 722 880.5C724 891.3 717.833 886.667 714.5 883C715.3 885 714.833 886.5 714.5 887C713.5 889.5 711.5 890.5 711.5 888C711.5 886 709.833 884.5 709 884C703.4 883.2 701.667 881 701.5 880C700.333 878 697.6 874.7 696 877.5C694 881 691 881 690 879C689.2 877.4 686.667 878 685.5 878.5C660.5 886.5 674.5 873 679.5 867.5C683.5 863.1 683.167 862.667 682.5 863C679.833 865.5 674.4 868.6 674 861C673.6 853.4 671.958 859.5 671.188 863.5C669.338 869.5 661.625 866 658 863.5C652 869.5 650.167 866 650 863.5C649.833 862.167 649.3 859.7 648.5 860.5C647.7 861.3 645.5 862.833 644.5 863.5C636.9 867.9 639 864.667 641 862.5C643.333 860.333 645.1 857.3 633.5 862.5C621.9 867.7 620.333 864.667 621 862.5C612.5 866 607 864 606 862.5C605 861 603 863 601.5 867C600 871 595.5 872.5 595.5 868C595.5 863.5 580 866 580.5 875C580.9 882.2 577 878.667 575 876C561 861.5 568.5 873 569.5 878C570.3 882 568.5 880.667 567.5 879.5C566 877 560.9 873 552.5 877C544.1 881 539.667 881.333 538.5 881C526.5 879.8 516.833 882.167 513.5 883.5C503.9 888.3 502.167 884.833 502.5 882.5C494.1 890.1 494.333 884.333 495.5 880.5C488.623 884.43 489.467 880.638 490.447 876.237L490.5 876C491.3 872.4 490.167 873.167 489.5 874C485.167 877.833 476.4 884.4 476 880C475.6 875.6 472.833 871.833 471.5 870.5C472.333 872 473.3 875.7 470.5 878.5C467.7 881.3 467.333 879.667 467.5 878.5C467.833 877 468.3 873.3 467.5 870.5C466.5 867 462 864.5 463 872C463.8 878 462.667 877.167 462 876C457.6 869.6 448.5 871.333 444.5 873C440.5 875.667 429.3 880.5 416.5 878.5C403.7 876.5 395.167 876.667 392.5 877L390 884C385.5 893 386 886.5 384.5 882C383.3 878.4 381.667 878.167 381 878.5C370.6 895.3 367.667 885.5 367.5 878.5C352.3 884.9 340.5 878.833 336.5 875C330.5 886.2 327.667 881 327 877C317 880.6 314.833 879.5 315 878.5C315.833 876.167 316.6 872.6 313 877C309.4 881.4 301.167 881.5 297.5 881C293 879.667 281.7 878 272.5 882C263.3 886 261.667 885 262 884V879.5C253.2 881.5 254.667 876.333 256.5 873.5C239.7 883.9 237.5 878.833 238.5 875C228.1 877 231.833 873.5 235 871.5C238.333 870.167 243.1 867.8 235.5 869C227.9 870.2 229 868.5 230.5 867.5C234.833 865 241.8 860.5 235 862.5C228.2 864.5 227.833 860.667 228.5 858.5C226.9 861.7 225.5 862.5 225 862.5C222.5 861.333 218.3 859.7 221.5 862.5C224.7 865.3 224.5 866.667 224 867C222.5 866.167 219.3 865 218.5 867C217.7 869 215.833 869.5 215 869.5C209.8 867.9 206.833 868.833 206 869.5C201.6 873.5 198.833 873.833 198 873.5C195.5 871 191.5 869.5 188.5 869.5C186.1 869.5 185.833 871.5 186 872.5C184.8 878.9 182.833 878.167 182 877C182.333 876.333 183 874.3 183 871.5C183 868.7 182.333 869 182 869.5C171.6 880.3 170.333 876.667 171 873.5C156.5 881 160.5 877 162.5 872.5C164.5 868 161.5 869.5 160.5 869.5C159.5 869.5 157 869.5 156 864.5C155.2 860.5 151.667 862.167 150 863.5C148.667 863.833 146.3 866.3 147.5 873.5C148.7 880.7 144.667 876.5 142.5 873.5C141 871.5 137.7 868.1 136.5 870.5C135 873.5 134.5 873 132 870.5C129.5 868 128 867 125 869.5C122 872 99.5 875 90.5 877C83.3 878.6 83.5 875 84.5 873C77.7 878.6 77.3333 876.667 78 875C79 873.5 80.4 870.9 78 872.5C75 874.5 68.5 874.5 69.5 871.5C70.3 869.1 68.5 871.5 67.5 873C59.5 883.4 56.5 880.667 56 878C47.6 883.6 50.1667 876.667 52.5 872.5C54.1667 870.333 56.5 866.7 52.5 869.5C47.5 873 46.5 871.5 47 866C47.4 861.6 46.1667 861.833 45.5 862.5Z" fill="#0ECC70"/>
<path d="M0 867.5C15 859.5 31.5 882 45.5 862.5C46.1667 861.833 47.4 861.6 47 866C46.5 871.5 47.5 873 52.5 869.5C56.5 866.7 54.1667 870.333 52.5 872.5C50.1667 876.666 47.6 883.6 56 878C56.5 880.666 59.5 883.4 67.5 873C68.5 871.5 70.3 869.1 69.5 871.5C68.5 874.5 75 874.5 78 872.5C80.4 870.9 79 873.5 78 875C77.3333 876.666 77.7 878.6 84.5 873C83.5 875 83.3 878.6 90.5 877C93.3644 876.363 97.5962 875.625 102.132 874.835C111.847 873.141 122.955 871.204 125 869.5C128 867 129.5 868 132 870.5C134.5 873 135 873.5 136.5 870.5C137.7 868.1 141 871.5 142.5 873.5C144.667 876.5 148.7 880.7 147.5 873.5C146.3 866.3 148.667 863.833 150 863.5C151.667 862.166 155.2 860.5 156 864.5C157 869.5 159.5 869.5 160.5 869.5C160.68 869.5 160.926 869.451 161.196 869.397C162.42 869.154 164.139 868.812 162.5 872.5C162.194 873.189 161.841 873.866 161.514 874.492C159.709 877.955 158.72 879.851 171 873.5C170.333 876.667 171.6 880.3 182 869.5C182.333 869 183 868.7 183 871.5C183 874.3 182.333 876.333 182 877C182.833 878.166 184.8 878.9 186 872.5C185.833 871.5 186.1 869.5 188.5 869.5C191.5 869.5 195.5 871 198 873.5C198.833 873.833 201.6 873.5 206 869.5C206.833 868.833 209.8 867.9 215 869.5C215.833 869.5 217.7 869 218.5 867C219.3 865 222.5 866.166 224 867C224.5 866.667 224.7 865.3 221.5 862.5C218.3 859.7 222.5 861.333 225 862.5C225.5 862.5 226.9 861.7 228.5 858.5C227.833 860.666 228.2 864.5 235 862.5C241.8 860.5 234.833 865 230.5 867.5C229 868.5 227.9 870.2 235.5 869C243.1 867.8 238.333 870.166 235 871.5C231.833 873.5 228.1 877 238.5 875C237.5 878.833 239.7 883.9 256.5 873.5C254.667 876.333 253.2 881.5 262 879.5V884C261.667 885 263.3 886 272.5 882C281.7 878 293 879.666 297.5 881C301.167 881.5 309.4 881.4 313 877C316.6 872.6 315.833 876.166 315 878.5C314.833 879.5 317 880.6 327 877C327.667 881 330.5 886.2 336.5 875C340.5 878.833 352.3 884.9 367.5 878.5C367.667 885.5 370.6 895.3 381 878.5C381.667 878.166 383.3 878.4 384.5 882C384.84 883.019 385.077 884.14 385.293 885.161C386.03 888.649 386.519 890.962 390 884L392.5 877C395.167 876.666 403.7 876.5 416.5 878.5C429.3 880.5 440.5 875.666 444.5 873C448.5 871.333 457.6 869.6 462 876C462.667 877.166 463.8 878 463 872C462 864.5 466.5 867 467.5 870.5C468.3 873.3 467.833 877 467.5 878.5C467.333 879.666 467.7 881.3 470.5 878.5C473.3 875.7 472.333 872 471.5 870.5C472.833 871.833 475.6 875.6 476 880C476.4 884.4 485.167 877.833 489.5 874C490.167 873.166 491.3 872.4 490.5 876L490.447 876.237C489.467 880.638 488.623 884.429 495.5 880.5C494.333 884.333 494.1 890.1 502.5 882.5C502.167 884.833 503.9 888.3 513.5 883.5C516.833 882.166 526.5 879.8 538.5 881C539.667 881.333 544.1 881 552.5 877C560.9 873 566 877 567.5 879.5C568.5 880.666 570.3 882 569.5 878C569.24 876.698 568.539 874.956 567.892 873.347C566.052 868.774 564.644 865.274 575 876C577 878.666 580.9 882.2 580.5 875C580 866 595.5 863.5 595.5 868C595.5 872.5 600 871 601.5 867C603 863 605 861 606 862.5C607 864 612.5 866 621 862.5C620.333 864.666 621.9 867.7 633.5 862.5C645.1 857.3 643.333 860.333 641 862.5C639 864.666 636.9 867.9 644.5 863.5C645.5 862.833 647.7 861.3 648.5 860.5C649.3 859.7 649.833 862.166 650 863.5C650.167 866 652 869.5 658 863.5C661.625 866 669.338 869.5 671.188 863.5C671.958 859.5 673.6 853.4 674 861C674.4 868.6 679.833 865.5 682.5 863C683.167 862.666 683.5 863.1 679.5 867.5C679.121 867.916 678.691 868.378 678.23 868.874C672.604 874.921 662.393 885.894 685.5 878.5C686.667 878 689.2 877.4 690 879C691 881 694 881 696 877.5C697.6 874.7 700.333 878 701.5 880C701.667 881 703.4 883.2 709 884C709.833 884.5 711.5 886 711.5 888C711.5 890.5 713.5 889.5 714.5 887C714.833 886.5 715.3 885 714.5 883C717.833 886.666 724 891.3 722 880.5C725.667 885.666 734.8 894.4 742 888C747.333 891.666 758 897 758 889C758 881 751 873.666 747.5 871C745.333 869.166 744.4 866.1 758 868.5C770.643 870.731 777.755 873.792 783.45 876.242C785.412 877.087 787.206 877.859 789 878.5C796 881 801 877 798 874C795 871 792 865.5 803 869.5C811.8 872.7 821.333 865.166 825 861C827.5 858 833.1 854 835.5 862C835.833 863.5 836.3 867.1 835.5 869.5C834.7 871.9 841.167 870.5 844.5 869.5C849.167 868.333 857.6 867.1 854 871.5C849.5 877 860 875.5 864 874C868 872.5 893 864 894.5 869C894.833 869.5 893.7 872 886.5 878C877.5 885.5 879 899 897 889.5L899.5 888C900 887.833 901 887.8 901 889C901 890.5 905 894.5 919 881C919.333 880.666 919.8 880.5 919 882.5C918 885 918 890.5 926 883C926.333 882.666 926.8 882.55 926 884.75C925.2 886.95 927.667 888.5 929 889C929.5 889.333 930.5 889.5 930.5 887.5C930.5 885 931.5 883.5 937 881.5C940.835 880.105 941.51 879.197 942.075 878.436C942.321 878.105 942.546 877.803 943 877.5C944.5 876.5 946 876.5 946 878C946 879.5 949.5 881.5 950 880.5C950.191 880.118 950.236 879.809 950.275 879.545C950.337 879.118 950.382 878.809 951 878.5C952 878 954.5 878 958 879.5C961.5 881 969.125 883 969.812 880.5C970.5 878 967.5 871 959 863.5C961.333 864.666 966.3 865.7 967.5 860.5C968.7 855.3 969 858.333 969 860.5C968.667 864.166 971 869.8 983 863C984.167 866 987.8 869.7 993 860.5C993.167 860 993.8 859.7 995 862.5C996.5 866 1003 870.5 1001.5 865C1001.09 863.498 1000.53 862.258 1000.11 861.319C998.983 858.818 998.82 858.455 1005 861C1005.74 861.304 1006.46 861.605 1007.16 861.897C1014.5 864.961 1019.54 867.065 1020 862.5C1020 862 1020.3 861.4 1021.5 863C1023 865 1034 865 1037 862.5C1037.33 862.166 1038 861.9 1038 863.5C1038 865.5 1043 874.5 1046 867.5C1048.4 861.9 1053.67 865.5 1056 868C1057.67 869.833 1060.9 874 1060.5 876C1060 878.5 1060 882.5 1065 877C1070 871.5 1076 865.5 1076 867.5C1076 869.1 1074 872.833 1073 874.5C1070.83 877.833 1068.8 883 1078 877C1080.33 875.5 1087.2 873.8 1096 879C1104.8 884.2 1121.33 884.5 1128.5 884C1129.17 883.833 1130.8 883.9 1132 885.5C1133.5 887.5 1143 890 1138.5 882C1142 885.666 1148.4 890.5 1146 880.5C1145.83 879.833 1145.8 879.1 1147 881.5C1148.5 884.5 1152.5 886.5 1151 873.5C1150.83 872.833 1151 872 1153 874C1155.5 876.5 1165 882.5 1166 878C1167 873.5 1170 866.5 1169.5 871.5C1169 876.5 1169 878.5 1171 878.5C1172.54 878.5 1172.6 878.205 1172.77 877.39C1172.82 877.143 1172.88 876.848 1173 876.5C1173.1 876.212 1173.17 875.613 1173.27 874.856C1173.68 871.664 1174.46 865.67 1178.5 868.5C1179 869.166 1179.7 871.3 1178.5 874.5C1177.3 877.7 1179.67 875.166 1181 873.5C1182.33 871.333 1187.8 868.4 1199 874C1210.2 879.6 1233.33 878 1243.5 876.5C1245.5 875.666 1249.5 874.7 1249.5 877.5C1249.5 881 1253.5 890 1254.5 888C1254.73 887.534 1255.05 886.663 1255.42 885.618C1256.66 882.174 1258.58 876.849 1260.5 878C1262.5 879.2 1265.67 884.166 1267 886.5C1267.67 887.666 1269.2 889.3 1270 886.5C1270.17 885.894 1270.32 885.213 1270.46 884.514C1271.16 881.177 1271.95 877.433 1276.5 879.5C1282 882 1297 880.5 1303.5 875.5C1304 874.833 1305.2 874 1306 876C1307 878.5 1312 886 1314.5 877.5C1314.5 877 1314.9 876.4 1316.5 878C1318.5 880 1326.5 879.5 1326.5 877C1326.5 875 1327.5 876.5 1328 877.5C1328.5 879 1334.4 881.9 1354 881.5C1373.6 881.1 1378.17 883 1378 884C1378.5 884.833 1379.5 885.9 1379.5 883.5C1379.5 883.187 1379.49 882.886 1379.49 882.597C1379.44 880.11 1379.42 878.552 1383 879C1386.69 879.461 1386.55 879.072 1386.12 877.833C1386.08 877.728 1386.04 877.617 1386 877.5C1385.9 877.213 1385.68 876.8 1385.44 876.356C1384.43 874.474 1383.12 872.05 1390 876.5C1398.5 882 1404 883.5 1403 874.5C1402.2 867.3 1403.33 872.5 1404 876C1404.67 878.166 1406.7 881.4 1409.5 877C1412.3 872.6 1407.33 869.5 1404.5 868.5C1407 869.166 1412 870.2 1412 869C1412 867.5 1408 863 1407 862.5C1406 862 1408 861.5 1409 862C1409.08 862.041 1409.18 862.094 1409.28 862.15C1410.4 862.771 1412.46 863.916 1412 857.5C1411.6 851.9 1412.83 856.166 1413.5 859C1413.67 860 1414.5 861.8 1416.5 861C1416.82 860.873 1417.17 860.73 1417.53 860.58C1420.05 859.549 1423.37 858.19 1422.5 859.5C1422.22 859.922 1421.5 860.62 1420.68 861.418C1418.6 863.456 1415.84 866.14 1418 866.5C1419.16 866.693 1419.95 866.587 1420.59 866.5C1421.61 866.363 1422.27 866.274 1423.5 867.5C1425.5 869.5 1429 870 1430.5 869.5C1432 869 1436.5 869 1442.5 873C1443.17 873.666 1445 874.3 1447 871.5C1449 868.7 1453.5 869 1455.5 869.5C1455.83 869.5 1456.3 870.1 1455.5 872.5C1454.7 874.9 1456.83 876.5 1458 877C1458.17 877.333 1458.5 877.5 1458.5 875.5C1458.5 875.069 1458.47 874.55 1458.44 874.003C1458.29 871.373 1458.1 868.102 1461 871C1464.5 874.5 1470.5 880 1470 877.5C1469.91 877.071 1469.8 876.627 1469.69 876.197C1469.15 874.118 1468.69 872.343 1472 874C1472.52 874.26 1473.08 874.546 1473.64 874.839C1477.44 876.793 1481.8 879.044 1480.5 876C1479 872.5 1480 869 1481.5 869.5C1483 870 1486.5 864 1486 862.5C1485.6 861.3 1487.83 862.333 1489 863C1491.17 864 1495.4 866.2 1495 867C1494.5 868 1489.5 880.5 1493 876.5C1496.5 872.5 1505 868.5 1505 870.5C1505 872.5 1505.12 876 1508.81 871C1511.81 866.934 1513.28 868.158 1514.97 869.564C1515.36 869.887 1515.76 870.219 1516.19 870.5C1518.5 872 1560 880 1557 877C1554 874 1556 873 1561 876C1565 878.4 1564.67 875.333 1564 873.5C1563.5 873 1563.2 872.2 1566 873C1569.5 874 1572 872.5 1572 870.5C1572 868.5 1574 871.5 1574.5 873.5C1575 875.5 1581 885.5 1583.5 879.5C1585.5 874.7 1587 878.166 1587.5 880.5C1588.5 882.833 1590.6 886 1591 880C1591.18 877.248 1590.29 874.63 1589.65 872.765C1588.55 869.547 1588.22 868.568 1595.5 873C1596 873.5 1596.8 873.9 1596 871.5C1595 868.5 1593.5 859.5 1598 866.5C1602.5 873.5 1630 875.5 1646 867.5V857.214C1638.95 859.819 1632.15 862.136 1627 863.5C1613.4 867.1 1610 865 1610 863.5C1592 838 1586 857 1584.5 862C1583 867 1567.5 873 1551 868C1539.02 864.369 1534.95 864.429 1527.3 864.543C1524.41 864.586 1521.02 864.637 1516.5 864.5C1503.3 864.1 1501 860.666 1501.5 859C1502 855.166 1500.1 849.4 1488.5 857C1476.31 864.984 1470.13 863.079 1464.61 861.378C1463.56 861.055 1462.54 860.739 1461.5 860.5C1456.3 859.3 1454.33 861 1454 862L1447 863.5C1441 865.5 1428.2 867 1425 857C1421.89 847.273 1419.38 848.445 1417.24 849.444C1416.63 849.729 1416.05 850 1415.5 850C1413 850 1409 850 1408.5 851.5C1408.1 852.7 1406.33 854.666 1405.5 855.5C1401.9 855.1 1400 858.666 1399.5 860.5C1400.33 864 1400.2 870.2 1393 867C1385.8 863.8 1379.67 866.333 1377.5 868C1370.5 873.166 1354 881.4 1344 873C1334 864.6 1320.83 866.166 1315.5 868C1308 871.666 1291.7 878 1286.5 874C1281.3 870 1278.67 871.666 1278 873C1273 874.166 1262.7 875.4 1261.5 871C1260 865.5 1259.5 865.5 1256 868C1252.5 870.5 1188.5 865.5 1184.5 863.5C1180.5 861.5 1175.5 860.5 1178 863.5C1180.5 866.5 1165.5 867 1161 865.5C1156.5 864 1149 863 1150 867C1151 871 1140.5 877.5 1125.5 876.5C1110.5 875.5 1079.5 871 1084.5 867C1089.5 863 1070 858.5 1060 860.5C1050 862.5 1045.5 857 1049.5 851.5C1052.7 847.1 1044.5 847.667 1040 848.5C1036.33 849.5 1027.1 851.5 1019.5 851.5C1010 851.5 1012 850 1016.5 848.5C1020.1 847.3 1016.33 846 1014 845.5C1012 845.666 1006 845.2 998 842C989.519 838.607 990.748 843.846 991.927 848.871C992.139 849.771 992.348 850.664 992.5 851.5C993.5 857 981 858.5 977 856C973 853.5 964.5 853 964 857C963.6 860.2 961.5 860.666 960.5 860.5C954.1 858.5 953.5 866.667 954 871C951 873 943.8 876.4 939 874C934.2 871.6 922.333 873 917 874C908.167 876.333 892.9 879 902.5 871C914.5 861 906 858.5 890.5 864C878.1 868.4 869.667 865.833 867 864C864.5 862.166 859.3 859.4 858.5 863C857.7 866.6 855.5 866.166 854.5 865.5C840.5 863.1 838.667 859.833 839.5 858.5C852 851.5 837 851.5 818.501 851.5C802.598 851.5 802.581 856.672 802.573 859.395C802.571 859.84 802.57 860.219 802.5 860.5C802.392 860.932 802.588 861.482 802.789 862.047C803.519 864.096 804.323 866.351 791 864C777.4 861.6 774.333 863 774.5 864C772.667 865.5 765.4 867.6 751 864C733 859.5 732 863 738 871C744 879 733.5 877 728 874C723.6 871.6 716.5 873 713.5 874C703.833 875 685 875 687 867C689 859 684.833 859.333 682.5 860.5C681.167 861.333 678.4 861.8 678 857C677.656 852.867 673.279 853.716 667.647 854.808C665.102 855.301 662.301 855.844 659.5 856C652.3 856.4 652.167 851.166 653 848.5C654.167 846 655.8 840.6 653 839C650.964 837.836 647.235 838.534 642.503 839.42C639.102 840.057 635.182 840.791 631 841C623 841.4 626.667 846.167 629.5 848.5C635.333 851.5 640.9 856.3 616.5 851.5C590.615 846.408 591.02 848.158 591.735 851.25C591.863 851.801 592 852.395 592 853C592 853.493 592.023 853.978 592.045 854.451C592.203 857.81 592.329 860.5 584 860.5C576.4 860.5 568.167 862.167 565 863C558.5 864.833 547.8 868.5 557 868.5C566.2 868.5 558.5 870.167 553.5 871C544 873 522.7 877 513.5 877C502 877 490 873 491.5 867C492.366 863.536 490.399 864.072 486.464 865.143C483.584 865.928 479.649 867 475 867C466.2 867 462.667 864.333 462 863C464.667 860.167 467.3 856.2 456.5 863C446.911 869.037 425.717 869.273 410.659 869.44C404.518 869.508 399.397 869.565 396.5 870C388.5 871.2 386.833 868.5 387 867C386.333 863.833 384.2 859.7 381 868.5C377.8 877.3 369.667 875.167 366 873C363.333 871 357.8 868.4 357 874C356.2 879.6 345.667 875.667 340.5 873C333.667 869.667 317.3 864.4 306.5 870C295.7 875.6 283.333 874.333 278.5 873C276.333 871.5 269.4 868.5 259 868.5C248.6 868.5 247.667 866.167 248.5 865C248.5 863.5 247.7 860.5 244.5 860.5C240.5 860.5 240.5 860.5 236.5 854.5C233.3 849.7 227.833 848.833 225.5 849C222.167 850.333 215.5 854.3 215.5 859.5C215.5 866 197 868.5 190 863C184.4 858.6 180.667 859.5 179.5 860.5C173.833 862.667 160.9 865.5 154.5 859.5C146.5 852 143 850 142 857.5C141.2 863.5 131.333 865 126.5 865C124.5 864 118.3 862.6 109.5 865C98.5 868 74 870 72.5 868.5C71 867 69 866.5 64.5 867C60 867.5 55 865.5 53.5 856C52 846.5 43 845.5 35.5 859.5C29.9546 869.851 13 852 0 857V867.5Z" fill="black" fill-opacity="0.15"/>
</g>
</g>
<defs>
<linearGradient id="paint0_linear_666_11981" x1="-2" y1="999" x2="1778" y2="999" gradientUnits="userSpaceOnUse">
<stop offset="0.0202247" stop-color="#679FF8"/>
<stop offset="1" stop-color="#5677F6"/>
</linearGradient>
<linearGradient id="paint1_linear_666_11981" x1="854.573" y1="760.28" x2="854.573" y2="1146.62" gradientUnits="userSpaceOnUse">
<stop stop-color="#56B3FF"/>
<stop offset="0.23" stop-color="#54A3FF"/>
<stop offset="0.72" stop-color="#5286FF"/>
<stop offset="1" stop-color="#527CFF"/>
</linearGradient>
<linearGradient id="paint2_linear_666_11981" x1="858.503" y1="1181" x2="858.503" y2="793" gradientUnits="userSpaceOnUse">
<stop stop-color="#56B3FF"/>
<stop offset="0.23" stop-color="#54A3FF"/>
<stop offset="0.72" stop-color="#5286FF"/>
<stop offset="1" stop-color="#527CFF"/>
</linearGradient>
<clipPath id="clip0_666_11981">
<rect width="1646" height="1136" fill="white"/>
</clipPath>
<clipPath id="clip1_666_11981">
<rect width="1646" height="978" fill="white"/>
</clipPath>
</defs>
</svg>
