<svg width="500" height="371" viewBox="0 0 500 371" fill="none" xmlns="http://www.w3.org/2000/svg">
<rect x="1" y="1" width="498" height="369" rx="19" fill="#C17633" stroke="#732D00" stroke-width="2"/>
<path d="M7.91763 343.921L7.91763 154L1.22562 158.123C0.928196 165.584 0.690255 343.449 2.1179 355.7C3.54555 367.952 17.2745 368.432 20.5462 367.843C292.543 367.254 482.403 367.363 489.185 366.891C495.966 366.42 498.554 359.627 499 356.289V162.993L491.416 158.281V346.277C491.416 349.81 489.185 353.933 479.37 353.933H21.748C10.3268 353.933 7.76892 347.258 7.91763 343.921Z" fill="#AA612A"/>
<path d="M492.811 153.121C492.811 155.024 489.236 156.5 487.449 156.5L499.066 157.284V51.6301H485.661C489.593 52.1059 492.066 56.5857 492.811 58.7662V153.121Z" fill="#AA612A"/>
<path d="M492.925 42.1686C492.21 47.8775 488.159 48.9083 486.222 48.7101L498.734 51.6834V15.7041C498.376 9.51953 493.819 5.99112 491.584 5L474.604 9.16272C485.686 9.16272 491.436 17.0917 492.925 21.0562C493.223 29.3817 493.64 36.4598 492.925 42.1686Z" fill="#AA612A"/>
<path d="M6.8317 26.1657C6.8317 10.942 12.7896 3.56805 15.7685 1.78403C7.77018 0.5 1.71156 12.1479 0.817871 17.5L1.02275 47.568L6.8317 44V26.1657Z" fill="#AA612A"/>
<path d="M7.14952 151.5L7.14953 46L1.34059 47L1.34058 155.5L12.0648 154.5C8.13258 154.1 7.14952 152.333 7.14952 151.5Z" fill="#AA612A"/>
<path d="M2 341V350.667C2 361.344 8.37925 370 16.2484 370L483.5 369.5C491.369 369.5 499 358.5 499 350.667V341C499 351.678 492.621 360.333 484.752 360.333H16.2484C8.37925 360.333 2 351.678 2 341Z" fill="#82400E"/>
<path d="M1.02271 29.7338V20.219C1.63574 10 6.13427 3 13.0028 1.18938L482.909 1.18938C492.86 2 497.972 8.92015 497.972 20.219V29.7338C497.972 19.224 490.806 10.7042 482.909 10.7042H16.0864C8.1894 10.7042 1.02271 19.224 1.02271 29.7338Z" fill="#CD915C"/>
<path d="M21.4486 42.4971H2.38332L0.595947 48.4438L21.4486 42.4971Z" fill="#CD915C"/>
<path d="M21.4483 42.4971H0.893555V46.0651L21.4483 42.4971Z" fill="#732D00"/>
<path d="M466 48.2781H496.504L499.364 54L466 48.2781Z" fill="#CD915C"/>
<path d="M466 48.2781H498.888V51.7112L466 48.2781Z" fill="#732D00"/>
<path d="M12.5116 153.965H1.07242L0 163.479L12.5116 153.965Z" fill="#CD915C"/>
<path d="M12.5116 153.965H1.39018L0 159.911L12.5116 153.965Z" fill="#732D00"/>
<path d="M481.192 156H498.351L499.066 162.503L481.192 156Z" fill="#CD915C"/>
<path d="M481.192 156H499.066V158.89L481.192 156Z" fill="#732D00"/>
<rect x="1" y="1" width="498" height="369" rx="19" stroke="#732D00" stroke-width="2"/>
<rect x="1" y="1" width="498" height="369" rx="19" stroke="#732D00" stroke-width="2"/>
<path d="M15 126H279.643C250.238 122.227 156.143 116.945 15 126Z" fill="#AF6327"/>
<path d="M271 188H483C459.444 184.227 384.067 178.945 271 188Z" fill="#AF6327"/>
<path d="M15.3008 269H339.812C303.755 265.227 188.374 259.945 15.3008 269Z" fill="#AF6327"/>
</svg>
