<svg width="477" height="121" viewBox="0 0 477 121" fill="none" xmlns="http://www.w3.org/2000/svg">
<path d="M37.3276 12.2557L37.0298 12.2928L36.9224 12.573C35.3253 16.7408 34.471 22.8215 34.5699 29.4058C34.6688 35.9966 35.7235 43.1371 37.9786 49.4325C40.2316 55.7218 43.7013 61.2174 48.6652 64.4446C53.6524 67.6869 60.0746 68.592 68.1073 65.8328C72.1276 64.4519 74.9966 62.5289 76.8697 60.1965C78.7468 57.8594 79.5968 55.1445 79.6325 52.2348C79.7036 46.4455 76.5547 39.8816 71.8924 33.8082C67.219 27.7203 60.9692 22.0521 54.7144 18.0472C48.4842 14.0581 42.1491 11.6555 37.3276 12.2557Z" fill="#207D37" stroke="#0A4E1B"/>
<path d="M39.7996 14.9549C34.2628 29.4034 36.4335 71.005 67.1819 64.1443C97.9302 57.2835 58.2623 14.185 39.7996 14.9549Z" fill="#249D4D"/>
<path d="M70.0934 35.9406C69.9168 34.6139 63.6698 28.9527 60.5684 26.2879C55.3338 22.0206 59.7876 28.3774 62.8434 31.4454C66.5101 35.1267 70.27 37.2672 70.0934 35.9406Z" fill="#42D56C"/>
<path d="M68.9419 64.7678C66.5766 58.4307 61.1833 45.7691 57.1888 41.929C56.8195 41.626 56.4784 41.3601 56.1711 41.1313C56.4976 41.3223 56.8378 41.5916 57.1888 41.929C61.0765 45.1192 68.0916 52.4235 71.7296 63.7909L68.9419 64.7678Z" fill="#207D37"/>
<path d="M11.3883 67.3425C11.2828 67.4377 11.2227 67.5732 11.2232 67.7153C11.2236 67.8574 11.2844 67.9926 11.3905 68.0871C24.5459 79.8117 43.0804 86.0274 55.8955 85.8088C62.2734 85.7 67.4227 83.9901 69.6575 80.345C71.9167 76.6603 71.0336 71.2971 66.0802 64.3154C62.0812 58.6788 57.365 55.3815 52.348 53.7916C47.3378 52.2038 42.0635 52.3299 36.9564 53.4778C26.7552 55.7709 17.1343 62.1598 11.3883 67.3425Z" fill="#207D37" stroke="#0A4E1B" stroke-linejoin="round"/>
<path d="M15.064 67.7141C27.8432 55.0205 51.6694 46.5741 64.9799 65.191C78.6347 84.2897 43.086 88.4771 15.064 67.7141Z" fill="#249D4D"/>
<path d="M45.5989 55.4622C41.7457 54.7297 34.8653 56.5436 31.9067 57.5422C31.3444 59.3494 37.3128 58.5927 40.3674 57.9884C43.7167 57.4516 49.4521 56.1947 45.5989 55.4622Z" fill="#42D56C"/>
<path d="M65.278 64.7006C60.8024 62.7833 50.3279 63.3284 46.6733 65.4707C54.26 64.0417 62.1241 65.4683 67.5164 68.7495L65.278 64.7006Z" fill="#207D37"/>
<path d="M439.341 12.2557L439.639 12.2928L439.747 12.573C441.344 16.7408 442.198 22.8215 442.099 29.4058C442 35.9966 440.946 43.1371 438.69 49.4325C436.437 55.7218 432.968 61.2174 428.004 64.4446C423.017 67.6869 416.595 68.592 408.562 65.8328C404.541 64.4519 401.673 62.5289 399.799 60.1965C397.922 57.8594 397.072 55.1445 397.037 52.2348C396.965 46.4455 400.114 39.8816 404.777 33.8082C409.45 27.7203 415.7 22.0521 421.955 18.0472C428.185 14.0581 434.52 11.6555 439.341 12.2557Z" fill="#207D37" stroke="#0A4E1B"/>
<path d="M436.87 14.9549C442.406 29.4034 440.236 71.005 409.487 64.1443C378.739 57.2835 418.407 14.185 436.87 14.9549Z" fill="#249D4D"/>
<path d="M406.576 35.9406C406.752 34.6139 412.999 28.9527 416.101 26.2879C421.335 22.0206 416.881 28.3774 413.826 31.4454C410.159 35.1267 406.399 37.2672 406.576 35.9406Z" fill="#42D56C"/>
<path d="M407.727 64.7678C410.093 58.4307 415.486 45.7691 419.48 41.929C419.85 41.626 420.191 41.3601 420.498 41.1313C420.172 41.3223 419.831 41.5916 419.48 41.929C415.593 45.1192 408.577 52.4235 404.939 63.7909L407.727 64.7678Z" fill="#207D37"/>
<path d="M465.281 67.3425C465.386 67.4377 465.446 67.5732 465.446 67.7153C465.445 67.8574 465.385 67.9926 465.279 68.0871C452.123 79.8117 433.589 86.0274 420.774 85.8088C414.396 85.7 409.246 83.9901 407.012 80.345C404.752 76.6603 405.636 71.2971 410.589 64.3154C414.588 58.6788 419.304 55.3815 424.321 53.7916C429.331 52.2038 434.606 52.3299 439.713 53.4778C449.914 55.7709 459.535 62.1598 465.281 67.3425Z" fill="#207D37" stroke="#0A4E1B" stroke-linejoin="round"/>
<path d="M461.605 67.7141C448.826 55.0205 425 46.5741 411.689 65.191C398.034 84.2897 433.583 88.4771 461.605 67.7141Z" fill="#249D4D"/>
<path d="M431.07 55.4622C434.923 54.7297 441.804 56.5436 444.762 57.5422C445.325 59.3494 439.356 58.5927 436.302 57.9884C432.952 57.4516 427.217 56.1947 431.07 55.4622Z" fill="#42D56C"/>
<path d="M411.391 64.7006C415.867 62.7833 426.341 63.3284 429.996 65.4707C422.409 64.0417 414.545 65.4683 409.153 68.7495L411.391 64.7006Z" fill="#207D37"/>
<path d="M70.9167 49.2939C151.471 39.9327 220.854 38.1355 245.604 38.6442C350.569 40.6793 397.152 48.3107 407.323 51.872L411.391 60.521V64.5911L404.272 103.766C403.051 112.72 391.897 113.263 386.472 112.415H291.882L245.604 119.537C220.787 109.362 123.382 112.584 77.7822 115.467C68.018 113.025 62.5257 77.8189 61 60.521L70.9167 49.2939Z" fill="#C17633"/>
<path d="M245.542 42.0777L245.546 42.0778C297.968 43.0941 335.772 45.5074 361.712 48.1049C385.88 50.5251 399.552 53.0881 405.163 54.762L408.391 61.6255V64.7547L401.32 103.663L401.308 103.729L401.299 103.795C400.898 106.74 398.979 108.408 396.041 109.341C392.998 110.307 389.351 110.262 386.936 109.885L386.705 109.849H386.472H291.882H291.652L291.426 109.884L245.949 116.883C239.194 114.324 228.377 112.689 215.567 111.647C202.124 110.555 186.111 110.093 169.496 110.04C136.54 109.934 101.044 111.437 78.1733 112.871C77.7643 112.685 77.2228 112.303 76.5678 111.562C75.722 110.605 74.8389 109.22 73.9509 107.402C72.1748 103.765 70.5855 98.8305 69.2141 93.2796C66.6117 82.7469 64.9141 70.5023 64.1055 61.9709L72.4041 52.5758C152.35 43.344 221.059 41.5744 245.542 42.0777Z" fill="#C17633" stroke="#AA612A" stroke-width="6"/>
<path d="M62.2392 60.4503L70.917 50.5335C76.7019 46.8148 208.563 38.1526 251.122 38.5658C293.682 38.979 402.251 47.0903 405.658 52.2013C408.137 55.9201 404.143 56.7465 401.939 55.9201C384.75 49.6395 294.646 45.3147 251.122 43.9373C209.472 40.9623 115.955 49.7071 73.8093 54.2523L67.1982 61.6899C62.2398 66.6482 61.9638 62.5162 62.2392 60.4503Z" fill="#CD915C"/>
<path d="M86.0089 78.2178L63.4788 78.631L64.3052 82.3497L86.0089 78.2178Z" fill="#CD915C"/>
<path d="M86.0083 78.2178H63.0657L63.8001 80.697L86.0083 78.2178Z" fill="#732D00"/>
<path d="M388.252 64.1691L410.782 64.5823L409.955 68.301L388.252 64.1691Z" fill="#CD915C"/>
<path d="M388.253 64.1691H411.195L410.461 66.6483L388.253 64.1691Z" fill="#732D00"/>
<path d="M82.4868 98.8776L68.6909 99.3734L70.0903 103.423L82.4868 98.8776Z" fill="#CD915C"/>
<path d="M82.486 98.8776H68.4375L68.8872 101.853L82.486 98.8776Z" fill="#732D00"/>
<path d="M391.558 93.0928L405.354 93.5886L404.78 97.2247L391.558 93.0928Z" fill="#CD915C"/>
<path d="M391.559 93.0928H405.607L405.158 96.0678L391.559 93.0928Z" fill="#732D00"/>
<path d="M69.9733 50.4662C69.9733 45.0947 221.15 38.0681 245.9 38.5769C350.865 40.612 397.448 48.2434 407.619 51.8047L411.687 60.4537V64.5238L404.568 103.699C403.347 112.653 394.037 112.347 386.768 112.347H292.178L245.9 119.47C221.083 109.295 123.678 112.517 78.0781 115.4C68.314 112.958 59.2303 61.6226 61.296 60.4537L69.9733 50.4662Z" stroke="#732D00" stroke-width="2" stroke-linejoin="round"/>
<path d="M74.636 53.4259C70.0082 53.7565 71.6059 51.6354 72.9832 50.5335C74.3057 49.5418 81.7979 48.743 85.3787 48.4675C86.7561 48.4675 89.5107 48.7981 89.5107 50.1203C89.5107 51.4425 87.8579 52.0486 87.0315 52.1863C84.8279 52.4618 79.2638 53.0953 74.636 53.4259Z" fill="#FDBE6F"/>
<path d="M385.773 49.7071C386.434 48.7154 389.63 48.8807 391.145 49.2939C394.037 49.8448 399.408 50.1203 400.235 52.5995C401.061 55.0787 397.618 54.5277 396.516 54.2523C394.312 53.8391 389.574 52.93 388.252 52.5995C386.599 52.1863 384.947 50.9467 385.773 49.7071Z" fill="#FDBE6F"/>
<circle cx="90.3371" cy="79.4573" r="8.02435" fill="#CD915C" stroke="url(#paint0_linear_94_13405)" stroke-width="2"/>
<ellipse cx="90.3371" cy="79.4573" rx="7.02435" ry="7.85075" fill="url(#paint1_linear_94_13405)"/>
<path d="M92.7432 77.1831L87.8945 81.9694" stroke="#595959" stroke-width="2" stroke-linecap="round" stroke-linejoin="round"/>
<path d="M87.8945 77.1831L92.7432 81.9694" stroke="#595959" stroke-width="2" stroke-linecap="round" stroke-linejoin="round"/>
<path d="M97.4508 79.9366C97.4875 79.7853 97.5166 79.6312 97.538 79.4746C97.9603 76.3916 95.377 72.5269 91.5769 72.0197C87.7768 71.5126 83.7986 74.5774 83.3763 77.6603C83.3549 77.817 83.3415 77.9732 83.3361 78.1286C84.0198 75.3022 87.534 73.325 91.1409 73.8064C94.7477 74.2878 97.5521 77.0324 97.4508 79.9366Z" fill="white"/>
<circle cx="90.3371" cy="79.4573" r="7.35075" stroke="#7D624F"/>
<circle cx="383.707" cy="79.4573" r="8.02435" fill="#CD915C" stroke="url(#paint2_linear_94_13405)" stroke-width="2"/>
<ellipse cx="383.707" cy="79.4573" rx="7.02435" ry="7.85075" fill="url(#paint3_linear_94_13405)"/>
<path d="M386.113 77.1831L381.264 81.9694" stroke="#595959" stroke-width="2" stroke-linecap="round" stroke-linejoin="round"/>
<path d="M381.264 77.1831L386.113 81.9694" stroke="#595959" stroke-width="2" stroke-linecap="round" stroke-linejoin="round"/>
<path d="M390.821 79.9366C390.858 79.7853 390.887 79.6312 390.908 79.4746C391.33 76.3916 388.747 72.5269 384.947 72.0197C381.147 71.5126 377.169 74.5774 376.746 77.6603C376.725 77.817 376.712 77.9732 376.706 78.1286C377.39 75.3022 380.904 73.325 384.511 73.8064C388.118 74.2878 390.922 77.0324 390.821 79.9366Z" fill="white"/>
<circle cx="383.707" cy="79.4573" r="7.35075" stroke="#7D624F"/>
<g filter="url(#filter0_d_94_13405)">
<path d="M166.474 91.816H159.202C157.042 91.816 155.602 90.376 155.602 88.216V65.32C155.602 63.16 157.042 61.72 159.202 61.72H166.51C175.798 61.72 180.694 67.984 180.694 76.732C180.694 85.48 175.798 91.816 166.474 91.816ZM165.97 67.408H162.01V86.128H165.97C171.982 86.128 174.286 82.42 174.286 76.732C174.286 71.044 172.018 67.408 165.97 67.408ZM194.423 71.26H201.335C203.675 71.26 204.935 72.664 204.935 74.86V89.548C204.935 91.42 203.495 92.176 201.731 92.176C200.363 92.176 199.031 91.384 198.887 90.124C198.023 91.348 196.079 92.176 193.991 92.176C187.943 92.176 183.947 87.892 183.947 81.628C183.947 75.364 188.375 71.26 194.423 71.26ZM198.671 76.804H194.711C191.831 76.804 190.211 78.856 190.211 81.628C190.211 84.364 191.831 86.632 194.423 86.632C197.051 86.632 198.671 84.76 198.671 81.34V76.804ZM215.866 73.888V89.296C215.866 91.168 214.534 92.284 212.734 92.284C210.934 92.284 209.602 91.168 209.602 89.296V73.888C209.602 72.016 210.934 70.9 212.734 70.9C214.534 70.9 215.866 72.016 215.866 73.888ZM209.098 64.888C209.098 62.908 210.754 61.252 212.734 61.252C214.714 61.252 216.37 62.908 216.37 64.888C216.37 66.868 214.714 68.524 212.734 68.524C210.754 68.524 209.098 66.868 209.098 64.888ZM227.186 64.24V89.296C227.186 91.168 225.854 92.284 224.054 92.284C222.254 92.284 220.922 91.168 220.922 89.296V64.24C220.922 62.368 222.254 61.252 224.054 61.252C225.854 61.252 227.186 62.368 227.186 64.24ZM250.422 73.888V90.376C250.422 96.064 246.75 98.8 241.098 98.8C239.478 98.8 236.742 98.62 235.05 97.972C233.538 97.396 232.998 95.992 233.358 94.624C233.718 93.292 234.87 92.248 236.454 92.68C237.678 93.004 239.334 93.256 241.026 93.256C242.79 93.256 244.266 92.392 244.266 90.664V88.468C243.222 89.872 241.386 90.556 239.406 90.556C235.554 90.556 231.882 88.324 231.882 82.564V73.888C231.882 72.016 233.214 70.9 235.014 70.9C236.814 70.9 238.146 72.016 238.146 73.888V81.916C238.146 83.716 239.334 85.012 241.134 85.012C242.898 85.012 244.158 83.752 244.158 82.024V73.888C244.158 72.016 245.49 70.9 247.29 70.9C249.09 70.9 250.422 72.016 250.422 73.888ZM272.295 81.088V89.224C272.295 91.096 270.891 92.284 269.091 92.284C267.291 92.284 265.887 91.096 265.887 89.224V65.32C265.887 63.16 267.327 61.72 269.487 61.72H279.639C286.839 61.72 289.791 66.364 289.791 71.404C289.791 74.896 288.351 78.208 285.075 79.9L289.683 87.64C290.547 89.08 290.223 90.88 288.675 91.816C287.163 92.716 285.435 92.356 284.499 90.736L278.775 81.088H272.295ZM272.295 67.408V75.4H279.099C282.339 75.4 283.383 73.564 283.383 71.404C283.383 69.244 282.339 67.408 279.099 67.408H272.295ZM307.729 86.848C311.797 86.848 314.749 84.112 315.145 80.764H308.809C307.261 80.764 306.217 79.432 306.217 77.992C306.217 76.516 307.261 75.22 308.809 75.22H318.385C320.545 75.22 321.625 76.624 321.625 78.424C321.625 85.444 316.981 92.5 307.729 92.536C299.557 92.572 292.897 87.064 292.897 76.732C292.897 66.544 299.521 61 307.657 61C312.877 61 317.521 63.52 319.357 66.688C320.113 67.984 319.861 69.784 318.493 70.648C317.233 71.44 315.361 71.26 314.389 70C313.057 68.272 311.005 66.76 307.657 66.76C303.229 66.76 299.305 70.072 299.305 76.732C299.305 83.356 303.229 86.848 307.729 86.848Z" fill="#FFC37C"/>
</g>
<defs>
<filter id="filter0_d_94_13405" x="153.602" y="61" width="170.023" height="41.8" filterUnits="userSpaceOnUse" color-interpolation-filters="sRGB">
<feFlood flood-opacity="0" result="BackgroundImageFix"/>
<feColorMatrix in="SourceAlpha" type="matrix" values="0 0 0 0 0 0 0 0 0 0 0 0 0 0 0 0 0 0 127 0" result="hardAlpha"/>
<feOffset dy="2"/>
<feGaussianBlur stdDeviation="1"/>
<feComposite in2="hardAlpha" operator="out"/>
<feColorMatrix type="matrix" values="0 0 0 0 0 0 0 0 0 0 0 0 0 0 0 0 0 0 0.6 0"/>
<feBlend mode="normal" in2="BackgroundImageFix" result="effect1_dropShadow_94_13405"/>
<feBlend mode="normal" in="SourceGraphic" in2="effect1_dropShadow_94_13405" result="shape"/>
</filter>
<linearGradient id="paint0_linear_94_13405" x1="90.3371" y1="72.433" x2="90.3371" y2="86.4817" gradientUnits="userSpaceOnUse">
<stop offset="0.415" stop-color="#945014"/>
<stop offset="1" stop-color="#FDBE6F"/>
</linearGradient>
<linearGradient id="paint1_linear_94_13405" x1="90.3371" y1="71.6066" x2="90.3371" y2="87.3081" gradientUnits="userSpaceOnUse">
<stop offset="0.333333" stop-color="#D6D9DE"/>
<stop offset="1" stop-color="#91999C"/>
</linearGradient>
<linearGradient id="paint2_linear_94_13405" x1="383.707" y1="72.433" x2="383.707" y2="86.4817" gradientUnits="userSpaceOnUse">
<stop offset="0.415" stop-color="#945014"/>
<stop offset="1" stop-color="#FDBE6F"/>
</linearGradient>
<linearGradient id="paint3_linear_94_13405" x1="383.707" y1="71.6066" x2="383.707" y2="87.3081" gradientUnits="userSpaceOnUse">
<stop offset="0.333333" stop-color="#D6D9DE"/>
<stop offset="1" stop-color="#91999C"/>
</linearGradient>
</defs>
</svg>
