<svg width="313" height="237" viewBox="0 0 313 237" fill="none" xmlns="http://www.w3.org/2000/svg">
<path d="M1.22978 176.5C-13.9702 111.7 115.563 93.3335 178.23 92.0001C208.23 99.0001 262.537 97.5057 285.5 114C321 139.5 300.5 161 281.5 164C267.276 166.246 253.563 171.5 246.23 176.5C231.897 188.5 193.83 209.1 156.23 195.5C118.63 181.9 101.73 188 88.23 190.5C27.43 208.1 4.89651 188.5 1.22978 176.5Z" fill="#0CAD5F"/>
<mask id="mask0_322_3960" style="mask-type:alpha" maskUnits="userSpaceOnUse" x="0" y="92" width="305" height="108">
<path d="M1.22978 176.5C-13.9702 111.7 115.563 93.3335 178.23 92.0001C208.23 99.0001 262.537 97.5057 285.5 114C321 139.5 300.5 161 281.5 164C267.276 166.246 253.563 171.5 246.23 176.5C231.897 188.5 193.83 209.1 156.23 195.5C118.63 181.9 101.73 188 88.23 190.5C27.43 208.1 4.89651 188.5 1.22978 176.5Z" fill="#0CAD5F"/>
</mask>
<g mask="url(#mask0_322_3960)">
<g filter="url(#filter0_f_322_3960)">
<path d="M14.9996 134C52.9997 99.0176 93.859 99.274 125.905 99.0176C168.463 104.145 233.976 104.522 258.842 106.351C297.198 109.171 318.069 146.963 283.096 155.988C240.959 166.863 228.431 181.423 209.204 187.576C193.821 192.498 176.64 196.805 152.797 187.576C136.264 181.176 104 173 64.9998 187.576C32.7808 199.618 -20.3134 166.509 14.9996 134Z" fill="#0ECC70"/>
</g>
</g>
<path style="mix-blend-mode:multiply" opacity="0.64" d="M83.7892 156.266C80.7201 163.121 71.8216 159.589 66.9801 156.991C68.3748 157.895 70.0383 159.077 71.4911 160.398C72.2574 161.079 72.9657 161.814 73.5577 162.554L73.5686 162.583L73.6158 162.652L73.9463 163.084C75.1377 164.753 75.6825 166.503 74.9016 168.131C72.1158 173.9 56.7595 177.556 54.8817 173.691C53.6322 171.133 54.3151 165.211 54.9071 161.525C54.9434 161.346 54.9652 161.247 54.9652 161.247C55.2122 159.732 55.4374 158.634 55.4955 158.381V158.352C55.2485 158.993 50.9736 169.654 42.4637 168.779C34.909 168 29.3483 159.52 32.8787 155.168V155.153C33.4453 154.443 34.248 153.861 35.3085 153.415C41.8135 150.747 47.2907 151.19 48.8234 151.383C48.3985 151.285 47.8682 151.16 47.287 150.996C47.287 150.996 47.2761 150.996 47.2507 150.981C41.0544 149.272 28.0081 143.822 37.7493 138.636C38.719 138.12 39.9212 137.607 41.3741 137.091C52.7533 133.102 57.2861 145.209 57.5585 145.974C57.4895 145.447 56.6723 139.441 60.3443 137.091C63.555 135.02 71.9814 135.576 75.3229 138.845C75.973 139.485 76.4343 140.235 76.6195 141.084C77.4803 145.118 69.9511 148.243 66.5733 149.425L66.537 149.44C65.5926 149.758 64.9897 149.941 64.9897 149.941C75.6498 148.675 83.8401 148.913 84.3958 153.21V153.224C84.5011 154.074 84.3122 155.087 83.782 156.27L83.7892 156.266Z" fill="url(#paint0_linear_322_3960)"/>
<path d="M82.9977 154.394C79.9286 161.249 71.0301 157.717 66.1886 155.119C67.5833 156.023 69.2467 157.205 70.6996 158.526C71.4659 159.207 72.1742 159.943 72.7662 160.682L72.7771 160.711L72.8243 160.781L73.1548 161.213C74.3462 162.882 74.891 164.631 74.1101 166.26C71.3243 172.028 55.968 175.684 54.0902 171.819C52.8407 169.261 53.5236 163.339 54.1156 159.653C54.1519 159.474 54.1737 159.375 54.1737 159.375C54.4207 157.86 54.6459 156.762 54.704 156.51V156.48C54.457 157.121 50.1821 167.782 41.6722 166.907C34.1175 166.128 28.5568 157.648 32.0872 153.296V153.281C32.6538 152.571 33.4565 151.99 34.517 151.543C41.022 148.875 46.4992 149.318 48.0319 149.512C47.607 149.413 47.0767 149.288 46.4992 149.124C46.4992 149.124 46.4883 149.124 46.4629 149.109C40.2666 147.4 27.2238 141.95 36.9614 136.764C37.9275 136.248 39.1334 135.736 40.5862 135.22C51.9654 131.23 56.4982 143.337 56.7706 144.102C56.7016 143.575 55.8844 137.569 59.5564 135.22C62.7672 133.148 71.1935 133.704 74.535 136.973C75.1852 137.613 75.6464 138.364 75.8317 139.213C76.6925 143.246 69.1632 146.372 65.7854 147.554L65.7491 147.568C64.8047 147.887 64.2018 148.07 64.2018 148.07C74.8619 146.803 83.0522 147.041 83.6079 151.338V151.353C83.7132 152.202 83.5244 153.216 82.9941 154.398L82.9977 154.394Z" fill="url(#paint1_linear_322_3960)"/>
<mask id="mask1_322_3960" style="mask-type:alpha" maskUnits="userSpaceOnUse" x="31" y="134" width="53" height="40">
<path d="M82.9977 154.394C79.9286 161.249 71.0301 157.717 66.1886 155.119C67.5833 156.023 69.2467 157.205 70.6996 158.526C71.4659 159.207 72.1742 159.943 72.7662 160.682L72.7771 160.711L72.8243 160.781L73.1548 161.213C74.3462 162.882 74.891 164.631 74.1101 166.26C71.3243 172.028 55.968 175.684 54.0902 171.819C52.8407 169.261 53.5236 163.339 54.1156 159.653C54.1519 159.474 54.1737 159.375 54.1737 159.375C54.4207 157.86 54.6459 156.762 54.704 156.51V156.48C54.457 157.121 50.1821 167.782 41.6722 166.907C34.1175 166.128 28.5568 157.648 32.0872 153.296V153.281C32.6538 152.571 33.4565 151.99 34.517 151.543C41.022 148.875 46.4992 149.318 48.0319 149.512C47.607 149.413 47.0767 149.288 46.4992 149.124C46.4992 149.124 46.4883 149.124 46.4629 149.109C40.2666 147.4 27.2238 141.95 36.9614 136.764C37.9275 136.248 39.1334 135.736 40.5862 135.22C51.9654 131.23 56.4982 143.337 56.7706 144.102C56.7016 143.575 55.8844 137.569 59.5564 135.22C62.7672 133.148 71.1935 133.704 74.535 136.973C75.1852 137.613 75.6464 138.364 75.8317 139.213C76.6925 143.246 69.1632 146.372 65.7854 147.554L65.7491 147.568C64.8047 147.887 64.2018 148.07 64.2018 148.07C74.8619 146.803 83.0522 147.041 83.6079 151.338V151.353C83.7132 152.202 83.5244 153.216 82.9941 154.398L82.9977 154.394Z" fill="url(#paint2_linear_322_3960)"/>
</mask>
<g mask="url(#mask1_322_3960)">
<g style="mix-blend-mode:multiply" opacity="0.8" filter="url(#filter1_f_322_3960)">
<path d="M46.5 149.5C40.0225 147.728 26.5 141.5 36.5 137C33 142 45.76 148.655 46.5 149V149.5Z" fill="url(#paint3_linear_322_3960)" style="mix-blend-mode:multiply"/>
<path d="M54.7651 156.442C54.507 157.106 52.0888 168.375 41.1498 167.254C31.8201 166.299 27.4472 157.652 31.1357 153.14C29.1131 156.859 33.3669 163.288 40.4478 164.499C47.3275 165.679 54.359 156.946 54.7651 156.442Z" fill="url(#paint4_linear_322_3960)" style="mix-blend-mode:multiply"/>
<path d="M75.0403 166.579C72.1297 172.56 54.9618 176.508 53 172.5C51.0382 168.492 53.3813 163.322 53.9998 159.5C54.0378 159.314 54.0605 159.212 54.0605 159.212C54.0605 159.212 53.7674 167.786 56.75 170.31C59.7212 172.834 72.7938 169.619 73.6324 165.797C74.3345 162.624 73.8677 161.269 73.6932 160.893C73.6704 160.863 73.6552 160.837 73.6438 160.821L74.0385 161.341C75.2831 163.072 75.8523 164.886 75.0365 166.575L75.0403 166.579Z" fill="url(#paint5_linear_322_3960)" style="mix-blend-mode:multiply"/>
<path d="M83.3255 154.282C80.119 161.391 72.0583 158.195 67 155.5L64 154C64.5199 154.247 71.9718 157.542 77.9636 156.347C82.9232 155.352 83.3368 151.68 83.5 150.5C83.61 151.381 83.8833 153.06 83.3293 154.286L83.3255 154.282Z" fill="url(#paint6_linear_322_3960)" style="mix-blend-mode:multiply"/>
<path d="M66.0038 147.5C66.683 147.037 76.1518 140.526 74.6453 136.677C75.3245 137.341 75.8065 138.119 76 139C76.8993 143.182 70.5 146.5 66 147.5H66.0038Z" fill="url(#paint7_linear_322_3960)" style="mix-blend-mode:multiply"/>
</g>
</g>
<path d="M47.117 147.861C43.2053 152.736 56.3606 161.165 64.115 152.908C71.8695 144.655 54.0107 139.275 47.117 147.861Z" fill="url(#paint8_linear_322_3960)"/>
<g style="mix-blend-mode:multiply" opacity="0.8" filter="url(#filter2_f_322_3960)">
<path d="M48.3221 146.606C46.4989 149.124 48.8561 153.922 56.8829 154.046C64.9098 154.171 66.0175 148.688 66.0175 148.688C66.0175 148.688 66.6132 153.651 61.7644 155.935C56.9192 158.219 48.9723 156.788 46.4044 153.706C43.8366 150.624 48.3221 146.606 48.3221 146.606Z" fill="url(#paint9_linear_322_3960)" style="mix-blend-mode:multiply"/>
</g>
<path d="M87.7896 132.993L90.866 105.305L260.84 101.46L263.147 124.533C265.293 132.993 269.3 134.531 268.531 138.377H260.84L253.918 143.761L252.379 146.837L250.072 150.683H244.688L236.228 156.067L232.382 156.836L230.075 159.143L223.922 156.836L220.077 160.681L213.924 159.143V162.989L200.08 163.758L193.927 161.45L191.62 164.527H177.776H173.161H169.315L162.393 166.065L157.01 164.527L144.704 160.681L133.167 161.45L122.4 156.067L113.17 152.99L111.632 148.375L105.479 144.53L100.095 146.837L90.866 139.146V135.301L87.7896 132.993Z" fill="#C17633"/>
<g clip-path="url(#clip0_322_3960)">
<path d="M238.73 102.036C236.082 80.6468 222.971 37.1285 191.715 34.1649C184.477 44.9116 183.748 73.531 238.73 102.036Z" fill="url(#paint10_linear_322_3960)"/>
<path d="M238.904 108.406C244.312 109.526 284.85 117.134 290.421 112.555C295.992 107.977 258.728 80.9832 238.904 108.406Z" fill="#0EA95E"/>
<path d="M245.383 17.037C194.238 53.7146 239.186 108.71 239.186 108.71C254.51 92.7202 277.204 52.0006 245.383 17.037Z" fill="url(#paint11_linear_322_3960)"/>
<mask id="mask2_322_3960" style="mask-type:alpha" maskUnits="userSpaceOnUse" x="220" y="17" width="42" height="92">
<path d="M245.383 17.037C194.238 53.7146 239.186 108.71 239.186 108.71C254.51 92.7202 277.204 52.0006 245.383 17.037Z" fill="url(#paint12_linear_322_3960)"/>
</mask>
<g mask="url(#mask2_322_3960)">
<path d="M248.699 10.692C242.159 34.3029 233.937 86.0871 253.37 104.337C269.735 83.9667 291.712 36.7189 248.699 10.692Z" fill="#0FCD71"/>
</g>
<circle cx="251.454" cy="44.6601" r="3" transform="rotate(15.483 251.454 44.6601)" fill="#12BD6B"/>
<circle cx="247.739" cy="52.4512" r="1.5" transform="rotate(15.483 247.739 52.4512)" fill="#12BD6B"/>
<path d="M285.118 42.9582C229.721 46.8539 238.05 108.97 238.05 108.97C256.961 104.046 292.851 83.9499 285.118 42.9582Z" fill="url(#paint13_linear_322_3960)"/>
<mask id="mask3_322_3960" style="mask-type:alpha" maskUnits="userSpaceOnUse" x="237" y="42" width="50" height="67">
<path d="M285.118 42.9583C229.721 46.854 238.05 108.97 238.05 108.97C256.961 104.046 292.851 83.9501 285.118 42.9583Z" fill="url(#paint14_linear_322_3960)"/>
</mask>
<g mask="url(#mask3_322_3960)">
<path d="M290.545 39.725C274.707 54.4393 244.572 89.5436 250.73 112.247C272.45 104.512 310.822 79.1802 290.545 39.725Z" fill="#0FCD71"/>
</g>
<circle cx="276.9" cy="66.5215" r="2.6471" transform="rotate(47.1056 276.9 66.5215)" fill="#12BD6B"/>
<circle cx="270.503" cy="70.6567" r="1.32355" transform="rotate(47.1056 270.503 70.6567)" fill="#12BD6B"/>
</g>
<mask id="mask4_322_3960" style="mask-type:alpha" maskUnits="userSpaceOnUse" x="87" y="101" width="182" height="66">
<path d="M87.7896 132.993L90.866 105.305L260.84 101.46L263.147 124.533C264.907 132.993 269.3 134.531 268.531 138.377H260.84L253.918 143.761L252.379 146.837L250.072 150.683H244.688L236.228 156.067L232.382 156.836L230.075 159.143L223.922 156.836L220.077 160.681L213.924 159.143V162.989L200.08 163.758L193.927 161.45L191.62 164.527H177.776H173.161H169.315L162.393 166.065L157.01 164.527L144.704 160.681L133.167 161.45L122.4 156.067L113.17 152.99L111.632 148.375L105.479 144.53L100.095 146.837L90.866 139.146V135.301L87.7896 132.993Z" fill="#C17633"/>
</mask>
<g mask="url(#mask4_322_3960)">
<path d="M215.845 165.601L207.385 130.991L222.767 120.992V161.755L215.845 165.601Z" fill="#AA612A"/>
<path d="M255.531 149.449L250.455 114.839L259.684 104.841V145.604L255.531 149.449Z" fill="#AA612A"/>
<path d="M189.387 167.908L184.311 133.298L193.54 123.3V164.063L189.387 167.908Z" fill="#AA612A"/>
<path d="M141.241 164.832L143.548 126.376L152.008 124.069L145.855 162.524L141.241 164.832Z" fill="#AA612A"/>
<path d="M101.247 157.141L103.554 118.685L112.015 116.378L105.862 154.833L101.247 157.141Z" fill="#AA612A"/>
<path d="M84.3267 146.373L86.634 107.917L95.0942 105.61L88.9413 144.066L84.3267 146.373Z" fill="#AA612A"/>
</g>
<ellipse cx="175.851" cy="105.61" rx="85.3714" ry="34.61" fill="#E69A3A"/>
<path d="M250.493 104.841C250.493 108.549 248.639 112.229 244.973 115.731C241.303 119.237 235.913 122.463 229.129 125.204C215.569 130.683 196.733 134.105 175.851 134.105C154.968 134.105 136.132 130.683 122.572 125.204C115.788 122.463 110.398 119.237 106.728 115.731C103.062 112.229 101.208 108.549 101.208 104.841C101.208 101.133 103.062 97.4528 106.728 93.9507C110.398 90.4451 115.788 87.219 122.572 84.478C136.132 78.9992 154.968 75.5766 175.851 75.5766C196.733 75.5766 215.569 78.9992 229.129 84.478C235.913 87.219 241.303 90.4451 244.973 93.9507C248.639 97.4528 250.493 101.133 250.493 104.841Z" fill="#F1A43A" stroke="#F2B042" stroke-width="3"/>
<path d="M227.457 101.765C227.457 104.927 226.309 107.297 224.159 109.233C221.9 111.266 218.423 112.909 213.701 114.149C204.241 116.634 190.952 117.223 175.851 117.223C160.786 117.223 147.488 116.445 138.026 113.868C133.298 112.58 129.8 110.912 127.526 108.894C125.355 106.968 124.244 104.689 124.244 101.765C124.244 99.5694 125.222 97.5632 127.475 95.6525C129.798 93.683 133.359 91.9355 138.104 90.5044C147.576 87.6478 160.89 86.3059 175.851 86.3059C190.845 86.3059 204.156 87.4605 213.623 90.2236C218.363 91.6069 221.903 93.3278 224.209 95.3133C226.43 97.2263 227.457 99.324 227.457 101.765Z" fill="#F2B042" stroke="#EE9D36" stroke-width="6"/>
<path opacity="0.5" d="M199.693 100.995C199.693 105.706 189.707 106.379 177.389 106.379C165.071 106.379 155.085 105.482 155.085 100.995C155.085 97.182 165.071 95.6117 177.389 95.6117C189.707 95.6117 199.693 96.9576 199.693 100.995Z" fill="#EE9D36"/>
<path d="M246.609 124.069L241.225 115.609L251.224 121.761L248.916 135.605L246.609 124.069Z" fill="#631000"/>
<path d="M93.4304 114.689L101.121 111.613L95.1226 117.254L92.3022 122.894L93.4304 114.689Z" fill="#631000"/>
<path d="M146.5 154.5C148.5 155.7 150.333 162.667 151 166H175.5C174.7 163.2 176.833 159.5 178 158C173.6 157.6 167.833 160.834 165.5 162.5C165.5 158.9 169.167 154.334 171 152.5C162.2 152.9 156.333 158 154.5 160.5C152 155 144 153 146.5 154.5Z" fill="#0FCD71"/>
<path d="M124 173.75L123.346 184.062L108.962 185L107 175.625L114.192 181V170L119.5 179.375L124 173.75Z" fill="#0CAD5F"/>
<g filter="url(#filter3_i_322_3960)">
<path d="M159.078 204.176C153.443 200.362 136.952 198.29 129.421 198.671C113.547 199.88 125.361 205.634 128.837 209.854C132.313 214.074 142.59 218.788 156.174 214.909C167.041 211.805 165.535 208.545 159.078 204.176Z" fill="black" fill-opacity="0.1"/>
</g>
<g filter="url(#filter4_i_322_3960)">
<path d="M121.388 212.346C108.429 199.511 86.1511 204.496 77.4944 207.636C53.2068 217.49 72.9832 228.165 85.9073 232.271C97.1244 235.29 123.436 239.952 138.945 234.445C154.454 228.938 147.294 227.532 137.848 223.214C133.092 221.04 128.703 219.591 121.388 212.346Z" fill="black" fill-opacity="0.1"/>
</g>
<defs>
<filter id="filter0_f_322_3960" x="-0.667969" y="95.0176" width="305.613" height="101.983" filterUnits="userSpaceOnUse" color-interpolation-filters="sRGB">
<feFlood flood-opacity="0" result="BackgroundImageFix"/>
<feBlend mode="normal" in="SourceGraphic" in2="BackgroundImageFix" result="shape"/>
<feGaussianBlur stdDeviation="2" result="effect1_foregroundBlur_322_3960"/>
</filter>
<filter id="filter1_f_322_3960" x="28.8301" y="135.677" width="55.835" height="39.4481" filterUnits="userSpaceOnUse" color-interpolation-filters="sRGB">
<feFlood flood-opacity="0" result="BackgroundImageFix"/>
<feBlend mode="normal" in="SourceGraphic" in2="BackgroundImageFix" result="shape"/>
<feGaussianBlur stdDeviation="0.5" result="effect1_foregroundBlur_322_3960"/>
</filter>
<filter id="filter2_f_322_3960" x="43.6108" y="144.606" width="24.4297" height="14.4515" filterUnits="userSpaceOnUse" color-interpolation-filters="sRGB">
<feFlood flood-opacity="0" result="BackgroundImageFix"/>
<feBlend mode="normal" in="SourceGraphic" in2="BackgroundImageFix" result="shape"/>
<feGaussianBlur stdDeviation="1" result="effect1_foregroundBlur_322_3960"/>
</filter>
<filter id="filter3_i_322_3960" x="121.342" y="198.626" width="42.791" height="18.7251" filterUnits="userSpaceOnUse" color-interpolation-filters="sRGB">
<feFlood flood-opacity="0" result="BackgroundImageFix"/>
<feBlend mode="normal" in="SourceGraphic" in2="BackgroundImageFix" result="shape"/>
<feColorMatrix in="SourceAlpha" type="matrix" values="0 0 0 0 0 0 0 0 0 0 0 0 0 0 0 0 0 0 127 0" result="hardAlpha"/>
<feOffset dy="1"/>
<feGaussianBlur stdDeviation="1"/>
<feComposite in2="hardAlpha" operator="arithmetic" k2="-1" k3="1"/>
<feColorMatrix type="matrix" values="0 0 0 0 0 0 0 0 0 0 0 0 0 0 0 0 0 0 0.25 0"/>
<feBlend mode="normal" in2="shape" result="effect1_innerShadow_322_3960"/>
</filter>
<filter id="filter4_i_322_3960" x="66" y="204" width="82" height="34" filterUnits="userSpaceOnUse" color-interpolation-filters="sRGB">
<feFlood flood-opacity="0" result="BackgroundImageFix"/>
<feBlend mode="normal" in="SourceGraphic" in2="BackgroundImageFix" result="shape"/>
<feColorMatrix in="SourceAlpha" type="matrix" values="0 0 0 0 0 0 0 0 0 0 0 0 0 0 0 0 0 0 127 0" result="hardAlpha"/>
<feOffset dy="1"/>
<feGaussianBlur stdDeviation="1"/>
<feComposite in2="hardAlpha" operator="arithmetic" k2="-1" k3="1"/>
<feColorMatrix type="matrix" values="0 0 0 0 0 0 0 0 0 0 0 0 0 0 0 0 0 0 0.25 0"/>
<feBlend mode="normal" in2="shape" result="effect1_innerShadow_322_3960"/>
</filter>
<linearGradient id="paint0_linear_322_3960" x1="58.1142" y1="175.283" x2="58.1142" y2="135.876" gradientUnits="userSpaceOnUse">
<stop stop-color="#BF8BC0"/>
<stop offset="1" stop-color="#F4E5F6"/>
</linearGradient>
<linearGradient id="paint1_linear_322_3960" x1="57.3227" y1="173.411" x2="57.3227" y2="134.001" gradientUnits="userSpaceOnUse">
<stop stop-color="#FFEAE5"/>
<stop offset="0.43" stop-color="#FFF0EC"/>
<stop offset="0.99" stop-color="white"/>
</linearGradient>
<linearGradient id="paint2_linear_322_3960" x1="57.3227" y1="173.411" x2="57.3227" y2="134.001" gradientUnits="userSpaceOnUse">
<stop stop-color="#FFEAE5"/>
<stop offset="0.43" stop-color="#FFF0EC"/>
<stop offset="0.99" stop-color="white"/>
</linearGradient>
<linearGradient id="paint3_linear_322_3960" x1="56.7455" y1="174.125" x2="56.7455" y2="136.677" gradientUnits="userSpaceOnUse">
<stop stop-color="#C770FE"/>
<stop offset="1" stop-color="#E7CCF6"/>
</linearGradient>
<linearGradient id="paint4_linear_322_3960" x1="56.7489" y1="174.126" x2="56.7489" y2="136.687" gradientUnits="userSpaceOnUse">
<stop stop-color="#C770FE"/>
<stop offset="1" stop-color="#E7CCF6"/>
</linearGradient>
<linearGradient id="paint5_linear_322_3960" x1="56.756" y1="174.132" x2="56.756" y2="136.687" gradientUnits="userSpaceOnUse">
<stop stop-color="#C770FE"/>
<stop offset="1" stop-color="#E7CCF6"/>
</linearGradient>
<linearGradient id="paint6_linear_322_3960" x1="56.744" y1="174.106" x2="56.744" y2="136.658" gradientUnits="userSpaceOnUse">
<stop stop-color="#C770FE"/>
<stop offset="1" stop-color="#E7CCF6"/>
</linearGradient>
<linearGradient id="paint7_linear_322_3960" x1="71.629" y1="147.189" x2="71.629" y2="136.216" gradientUnits="userSpaceOnUse">
<stop stop-color="#C770FE"/>
<stop offset="1" stop-color="#E7CCF6"/>
</linearGradient>
<linearGradient id="paint8_linear_322_3960" x1="56.2189" y1="156.381" x2="56.2189" y2="143.502" gradientUnits="userSpaceOnUse">
<stop stop-color="#FF9500"/>
<stop offset="1" stop-color="#FFDE00"/>
</linearGradient>
<linearGradient id="paint9_linear_322_3960" x1="55.826" y1="157.059" x2="55.826" y2="146.606" gradientUnits="userSpaceOnUse">
<stop stop-color="#C770FE"/>
<stop offset="1" stop-color="#E7CCF6"/>
</linearGradient>
<linearGradient id="paint10_linear_322_3960" x1="224" y1="51" x2="196.967" y2="72.007" gradientUnits="userSpaceOnUse">
<stop offset="0.416667" stop-color="#0FCD71"/>
<stop offset="1" stop-color="#0A7642"/>
</linearGradient>
<linearGradient id="paint11_linear_322_3960" x1="242.226" y1="16.1626" x2="237.475" y2="108.236" gradientUnits="userSpaceOnUse">
<stop offset="0.416667" stop-color="#12C06B"/>
<stop offset="1" stop-color="#068045"/>
</linearGradient>
<linearGradient id="paint12_linear_322_3960" x1="241.263" y1="15.8957" x2="239.884" y2="108.903" gradientUnits="userSpaceOnUse">
<stop stop-color="#2FA104"/>
<stop offset="1" stop-color="#247607"/>
</linearGradient>
<linearGradient id="paint13_linear_322_3960" x1="283.15" y1="40.8407" x2="236.983" y2="107.822" gradientUnits="userSpaceOnUse">
<stop offset="0.416667" stop-color="#12C06B"/>
<stop offset="1" stop-color="#068045"/>
</linearGradient>
<linearGradient id="paint14_linear_322_3960" x1="282.55" y1="40.1945" x2="238.485" y2="109.438" gradientUnits="userSpaceOnUse">
<stop stop-color="#2FA104"/>
<stop offset="1" stop-color="#247607"/>
</linearGradient>
<clipPath id="clip0_322_3960">
<rect width="131.588" height="89" fill="white" transform="translate(185.208 0.368286) rotate(15.483)"/>
</clipPath>
</defs>
</svg>
