<svg width="951" height="169" viewBox="0 0 951 169" fill="none" xmlns="http://www.w3.org/2000/svg">
<g clip-path="url(#clip0_196_3058)">
<rect x="-44" y="-31" width="1036" height="199" rx="19" fill="#C17633" stroke="#732D00" stroke-width="2"/>
<path d="M-36.5291 138.672V126L-44.7237 130.163C-45.0879 137.695 -45.3793 138.196 -43.6311 150.565C-41.8829 162.934 -33.4332 164.837 -29.4269 164.243C303.644 163.648 971.861 162.34 980.165 161.864C988.469 161.388 991.637 154.53 992.184 151.16V131.757L982.896 127V141.05C982.896 144.618 980.165 148.781 968.146 148.781H-19.5933C-33.579 148.781 -36.7112 142.041 -36.5291 138.672Z" fill="#AA612A"/>
<path d="M-45 140.456V149.97C-45 160.48 -37.173 169 -27.5179 169H975.518C985.173 169 993 160.48 993 149.97V140.456C993 150.965 985.173 159.485 975.518 159.485H-27.5179C-37.173 159.485 -45 150.965 -45 140.456Z" fill="#82400E"/>
<rect x="-44" y="-31" width="1036" height="199" rx="19" stroke="#732D00" stroke-width="2"/>
<path d="M296.994 71H724.213C676.745 67.2269 524.844 61.9446 296.994 71Z" fill="#AF6327"/>
<path d="M607.301 127H931.812C895.755 123.227 780.374 117.945 607.301 127Z" fill="#AF6327"/>
<path d="M-0.113159 97H264.53C235.125 93.2269 141.03 87.9446 -0.113159 97Z" fill="#AF6327"/>
</g>
<defs>
<clipPath id="clip0_196_3058">
<rect width="951" height="169" fill="white"/>
</clipPath>
</defs>
</svg>
