<svg width="25" height="26" viewBox="0 0 25 26" fill="none" xmlns="http://www.w3.org/2000/svg">
<path fill-rule="evenodd" clip-rule="evenodd" d="M5 6H20V23C20 24.1046 19.1046 25 18 25H7C5.89543 25 5 24.1046 5 23V6ZM8.9999 21.8125L8.9999 10.8125H10.9999L10.9999 21.8125H8.9999ZM13.9999 10.8125L13.9999 21.8125H15.9999L15.9999 10.8125H13.9999Z" fill="#732D00"/>
<path d="M3 6H22V8H3V6Z" fill="#732D00"/>
<path d="M10 2.25H15C15.9665 2.25 16.75 3.0335 16.75 4V7.75H8.25V4C8.25 3.0335 9.0335 2.25 10 2.25Z" stroke="#732D00" stroke-width="2.5"/>
</svg>
