<svg width="240" height="162" viewBox="0 0 240 162" fill="none" xmlns="http://www.w3.org/2000/svg">
<g filter="url(#filter0_f_687_7344)">
<path d="M118.367 92.0832L133 70.8269C134.408 68.3677 157.974 64.2122 170.296 62.5728C182.619 60.9333 184.397 62.0888 202 67.8269C216.082 72.4174 217.12 76.2339 218 77.3269L233.667 102.74V112.577C237.892 115.2 235.428 122.413 233.667 125.692C226.626 142.743 216.651 148.645 211.664 149.465C210.197 149.465 204.446 150.776 193.18 156.022C181.914 161.269 159.735 153.836 150.053 149.465C114.847 137.169 118.367 131.43 115.727 125.692C113.614 121.102 116.607 101.373 118.367 92.0832Z" fill="#3A71E9"/>
</g>
<path d="M124 88.3269L136.454 64.3129C137.729 61.9311 159.57 61.1372 170.729 59.5493C181.889 57.9615 188.265 58.7554 204.207 64.3129C216.961 68.7589 220.149 71.9876 220.946 73.0461L228.12 98.4519V107.979C231.946 110.52 229.714 117.506 228.12 120.682C221.743 137.196 212.709 142.912 208.193 143.706C206.864 143.706 201.656 144.976 191.454 150.057C181.251 155.138 161.164 147.94 152.396 143.706C120.513 131.797 124.891 126.239 122.5 120.682C120.587 116.236 122.406 97.3248 124 88.3269Z" fill="#A69C83"/>
<mask id="mask0_687_7344" style="mask-type:alpha" maskUnits="userSpaceOnUse" x="120" y="58" width="111" height="94">
<path d="M124 88.3269L136.5 64.3269C137.772 61.9423 159.81 61.1399 170.938 59.5502C182.066 57.9604 188.425 58.7553 204.323 64.3194C217.041 68.7707 220.22 72.0032 221.015 73.0631L228.169 98.499V108.038C231.985 110.581 229.759 117.576 228.169 120.756C221.81 137.289 212.802 143.012 208.297 143.807C206.973 143.807 201.779 145.079 191.605 150.166C181.431 155.253 161.4 148.046 152.656 143.807C120.861 131.884 124.04 126.32 121.655 120.756C119.748 116.304 122.41 97.3355 124 88.3269Z" fill="#A69C83"/>
</mask>
<g mask="url(#mask0_687_7344)">
<path d="M130.357 96.9093C124.634 96.2734 124.793 86.046 125.588 81.0118C125.891 77.8323 121.475 79.687 119.229 81.0118L114.46 112.807L125.588 145.397L182.819 160.499L229.717 137.448L248.794 102.473C241.11 90.8152 225.742 70.2015 225.742 81.0118C225.742 91.8221 222.033 104.593 220.178 109.627H212.23L213.957 114.468C209.983 119.961 209.983 118.635 193.947 121.55C186.953 122.822 168.692 124.719 169.499 122.827L170.896 119.961C176.499 115.827 142.999 122.327 138.306 112.807L130.357 96.9093Z" fill="#827C64"/>
<path opacity="0.5" d="M129.086 126.596L116.368 131.366C118.276 142.812 161.556 149.972 182.958 152.622C185.873 153.947 188.953 155.484 181.958 151.032C174.963 146.581 167.385 137.519 164.471 133.545L147.779 125.596L129.086 126.596Z" fill="#A69C83"/>
<path d="M160.7 93.8013C139.715 83.6269 145.067 67.8354 150.366 61.2114L195.674 46.9037L264.829 61.2114L221.905 118.442L173.418 114.468C181.632 114.468 193.131 113.673 173.418 110.494C153.705 107.314 156.725 98.0406 160.7 93.8013Z" fill="#9D9172"/>
<path d="M130.493 127.186L117.775 131.955C119.683 143.402 160.964 151.562 181.365 154.212C184.28 155.537 188.36 157.073 181.365 152.622C174.37 148.171 166.793 139.109 163.878 135.135L147.186 127.186H130.493Z" fill="#6E684F"/>
<path d="M207.598 102.545L227.47 98.5706V121.622L220.316 125.596L217.932 111.289L205.214 106.519H192.496L182.957 98.5706L192.496 102.545H207.598Z" fill="#827C64"/>
<path d="M226.499 120.827L225.499 101.827L222.999 107.827L224.999 121.827L226.499 120.827Z" fill="#76705B"/>
<path d="M225.494 101.836L212.063 104.821C211.886 104.86 211.849 105.093 212.006 105.182C215.104 106.945 219.282 108.355 222.551 108.88C222.64 108.895 222.727 108.847 222.764 108.764L225.72 102.113C225.787 101.963 225.654 101.801 225.494 101.836Z" fill="#A69C83"/>
<path d="M136.119 97.8623H130.555C128.012 101.042 128.966 107.136 129.76 109.785C130.025 110.845 130.555 112.17 130.555 108.99C130.555 105.811 133.645 103.122 135.5 102.327L140.5 100.327C145 99.3269 140.5 99.8269 150.427 97.8623C163.287 95.3172 159.966 94.6828 158.376 93.8879C157.104 93.252 143.008 96.2725 136.119 97.8623Z" fill="#6E684F"/>
<path d="M209.284 124.007C206.104 126.391 212.463 144.673 212.463 146.263C215.007 149.443 226.241 135.93 231.54 128.776V108.109L225.181 113.673H219.616C217.232 116.323 211.827 122.099 209.284 124.007Z" fill="#76705B"/>
</g>
<g filter="url(#filter1_f_687_7344)">
<path d="M94.6834 15.2119C84.7349 4.14026 69.2941 3.80034 62.8173 5.01434C28.62 7.19953 20.0701 15.2119 10.7435 26.8664C3.28215 36.1899 3.48941 52.6032 4.52571 59.6444C5.82107 67.6568 14.0078 85.1384 36.3918 90.9656C64.3717 98.2496 90.7973 82.9532 100.901 79.3112C108.984 76.3976 115.668 64.986 118 59.6444C117.741 57.4592 116.756 51.1949 114.891 43.6196C112.559 34.1504 107.119 29.0515 94.6834 15.2119Z" fill="#2055D3" fill-opacity="0.5"/>
</g>
<path d="M91.954 11.5675C82.7261 0.609393 68.4037 0.272961 62.396 1.47451C30.6757 3.63728 22.745 11.5675 14.0939 23.1023C7.17301 32.3302 7.36526 48.5751 8.3265 55.544C9.52804 63.4742 17.1218 80.7765 37.8845 86.5439C63.8379 93.7531 88.3494 78.6137 97.7214 75.009C105.219 72.1253 111.419 60.8308 113.582 55.544C113.341 53.3812 112.428 47.1813 110.698 39.6836C108.535 30.3116 103.489 25.2651 91.954 11.5675Z" fill="#9A9172"/>
<mask id="mask1_687_7344" style="mask-type:alpha" maskUnits="userSpaceOnUse" x="7" y="1" width="107" height="88">
<path d="M91.9521 11.5675C82.7242 0.609393 68.4018 0.272961 62.3941 1.47451C30.6737 3.63728 22.7431 11.5675 14.092 23.1023C7.17106 32.3302 7.36331 48.5751 8.32454 55.544C9.52609 63.4742 17.1199 80.7765 37.8825 86.5439C63.8359 93.7531 88.3474 78.6137 97.7195 75.009C105.217 72.1253 111.417 60.8308 113.58 55.544C113.34 53.3812 112.426 47.1813 110.696 39.6836C108.533 30.3116 103.487 25.2651 91.9521 11.5675Z" fill="#9A9172"/>
</mask>
<g mask="url(#mask1_687_7344)">
<path d="M20.9443 19.2565L23.1603 11.0929L-14.5127 29.6464C-9.83437 45.9735 0.11324 79.2215 2.47703 81.5963C5.43176 84.5649 50.4915 109.056 52.7075 110.54C54.4804 111.727 108.601 86.7913 135.44 74.1749L115.496 29.6464L105.154 27.42C106.336 33.9509 101.214 45.4788 98.5059 50.4264C93.7783 58.7384 83.2398 58.3426 78.5614 57.1057C54.9236 52.356 38.1801 59.0847 32.7631 63.0428L16.5122 57.1057V48.2C8.82985 33.9509 13.3112 22.9672 16.5122 19.2565H20.9443Z" fill="#73715A"/>
<path d="M17.2079 59.3951L12.1615 70.93C0.626628 63.7207 -0.0942986 21.9069 9.99868 19.7441C18.0731 18.0139 18.1692 26.2325 17.2079 30.5581V59.3951Z" fill="url(#paint0_linear_687_7344)"/>
<path d="M42.3842 74.3005L37.199 66.0111C35.2712 64.4385 25.9532 77.7689 21.5352 84.6307L34.1868 99.0459L77.5637 93.6402C77.9653 89.636 78.0457 81.8678 75.1539 82.8288C72.2621 83.7898 65.9162 82.4284 63.1047 81.6276C63.5867 72.0174 61.699 72.0174 60.6949 73.2187C60.2933 75.6212 59.249 81.2672 58.2851 84.6307C57.3211 87.9943 48.2441 86.0322 43.8261 84.6307L42.3842 74.3005Z" fill="#6D6954"/>
<path d="M100.32 52.1017L105.883 37.6832C106.524 36.5297 107.843 36.3254 109.488 37.6832L112.575 52.8226C112.575 57.4366 106.808 64.8381 103.924 67.9621C96.7148 75.1714 96.7166 68.6827 95.2734 63.6365C94.6789 61.5578 98.1571 54.7451 100.32 52.1017Z" fill="url(#paint1_linear_687_7344)"/>
<path d="M46.0462 73.1468C44.316 73.7235 40.5191 67.6197 38.8369 64.4957C40.0385 62.3329 46.4787 58.1515 62.6275 58.7282C78.7763 59.305 79.9297 63.7207 79.9297 66.6584C79.9297 68.0462 74.1623 64.4416 68.3949 66.6584C61.6663 68.5809 47.7764 72.57 46.0462 73.1468Z" fill="#9A9172"/>
<path d="M18.6509 49.3018L18.6567 33.3575C19.372 30.5578 21.5338 45.6375 21.5338 49.302C21.5338 52.9666 22.2548 52.9067 22.5251 53.9706C24.4176 55.0694 26.9632 55.7053 30.9059 57.2322C33.5253 58.2466 35.4267 57.4867 35.9524 57.2322C47.4872 50.7439 67.5464 51.6803 67.5464 53.9706C48.6216 53.2072 39.0346 57.8679 36.669 59.3948C34.7765 60.6163 32.3252 60.5872 31.2738 60.0782C28.3823 59.0603 22.1262 56.8717 20.2337 56.261C18.3413 55.6502 18.6503 52.9065 18.6509 49.3018Z" fill="url(#paint2_linear_687_7344)"/>
<path d="M103.72 27.6743C103.144 25.3674 97.2321 19.0232 94.3484 16.1395C92.0415 13.7402 92.426 15.1398 92.9066 16.1395C95.3097 18.7829 100.548 24.7906 102.279 27.6743C104.441 31.279 100.837 38.4882 99.3949 42.8138C98.2414 46.2742 99.3949 45.6975 100.116 44.9766C105.307 34.5952 104.682 29.1162 103.72 27.6743Z" fill="#AEAC93"/>
<path d="M38.8352 66.6045C39.5556 70.2091 36.6712 65.6432 37.3921 62.9998C38.5717 58.6742 62.6254 57.9533 71.2765 58.6742C79.9277 59.3951 79.2074 62.2789 79.9283 65.1626C80.6493 68.0463 79.5632 64.2808 79.2067 63.7206C74.1609 55.7906 49.2521 60.2293 44.6021 61.558C39.5554 62.9999 39.5561 64.4417 38.8352 66.6045Z" fill="#6D5D46"/>
</g>
<defs>
<filter id="filter0_f_687_7344" x="111" y="57.8912" width="129" height="103.936" filterUnits="userSpaceOnUse" color-interpolation-filters="sRGB">
<feFlood flood-opacity="0" result="BackgroundImageFix"/>
<feBlend mode="normal" in="SourceGraphic" in2="BackgroundImageFix" result="shape"/>
<feGaussianBlur stdDeviation="2" result="effect1_foregroundBlur_687_7344"/>
</filter>
<filter id="filter1_f_687_7344" x="0" y="0.534912" width="122" height="96.3721" filterUnits="userSpaceOnUse" color-interpolation-filters="sRGB">
<feFlood flood-opacity="0" result="BackgroundImageFix"/>
<feBlend mode="normal" in="SourceGraphic" in2="BackgroundImageFix" result="shape"/>
<feGaussianBlur stdDeviation="2" result="effect1_foregroundBlur_687_7344"/>
</filter>
<linearGradient id="paint0_linear_687_7344" x1="17.2085" y1="33.4417" x2="9.99924" y2="52.1858" gradientUnits="userSpaceOnUse">
<stop stop-color="#726C56"/>
<stop offset="1" stop-color="#616042"/>
</linearGradient>
<linearGradient id="paint1_linear_687_7344" x1="102.279" y1="50.023" x2="108.046" y2="62.9997" gradientUnits="userSpaceOnUse">
<stop offset="0.133621" stop-color="#655D50"/>
<stop offset="1" stop-color="#727057"/>
</linearGradient>
<linearGradient id="paint2_linear_687_7344" x1="30.1317" y1="38.4153" x2="37.8348" y2="55.4885" gradientUnits="userSpaceOnUse">
<stop stop-color="#BAAF99"/>
<stop offset="1" stop-color="#AEAC93"/>
</linearGradient>
</defs>
</svg>
