<svg width="100" height="1000" viewBox="0 0 100 1000" fill="none" xmlns="http://www.w3.org/2000/svg">
<g clip-path="url(#clip0_180_1563)">
<path d="M0 1000H60C60 991 57 982 50 975C36 962 36 939 50 925C64 911 64 889 50 875C36 862 36 839 50 825C64 811 64 789 50 775C36 762 36 739 50 725C64 711 64 689 50 675C36 662 36 639 50 625C64 611 64 589 50 575C36 562 36 539 50 525C64 511 64 489 50 475C36 462 36 439 50 425C64 411 64 389 50 375C36 362 36 339 50 325C64 311 64 289 50 275C36 262 36 239 50 225C64 211 64 189 50 175C36 162 36 139 50 125C64 111 63 88 50 75C36 61 36 38 50 25C57 18 60 9 60 0H0L0 1000Z" fill="white"/>
</g>
<defs>
<clipPath id="clip0_180_1563">
<rect width="1000" height="100" fill="white" transform="matrix(0 -1 1 0 0 1000)"/>
</clipPath>
</defs>
</svg>
