<svg width="1000" height="100" viewBox="0 0 1000 100" fill="none" xmlns="http://www.w3.org/2000/svg">
<path d="M0 0L0 60C9 60 18 57 25 50C38 36 61 36 75 50C89 64 111 64 125 50C138 36 161 36 175 50C189 64 211 64 225 50C238 36 261 36 275 50C289 64 311 64 325 50C338 36 361 36 375 50C389 64 411 64 425 50C438 36 461 36 475 50C489 64 511 64 525 50C538 36 561 36 575 50C589 64 611 64 625 50C638 36 661 36 675 50C689 64 711 64 725 50C738 36 761 36 775 50C789 64 811 64 825 50C838 36 861 36 875 50C889 64 912 63 925 50C939 36 962 36 975 50C982 57 991 60 1000 60V0L0 0Z" fill="white"/>
</svg>
