<svg width="151" height="55" viewBox="0 0 151 55" fill="none" xmlns="http://www.w3.org/2000/svg">
<path d="M151 10C151 4.47715 146.523 0 141 0H11C5.47715 0 1 4.47715 1 10V45C1 50.5228 5.47715 55 11 55H141C146.523 55 151 50.5228 151 45V10Z" fill="#C17537"/>
<path d="M145.402 44.2208V35.1748H150.5L149.5 48C148.026 52.9211 142.3 54 138 54C114.657 53.8794 38.2304 53.3291 23.5 54C2.92621 54.9371 4.07381 50.4474 2.53809 49V34.0234H5.90952V44.8787C5.90952 48.9313 10.0523 49.7033 16.1952 49.5826C33.7023 49.5826 121.715 49.6484 137.195 49.6484C143.195 49.6484 145.402 46 145.402 44.2208Z" fill="#AA652E"/>
<path opacity="0.8" fill-rule="evenodd" clip-rule="evenodd" d="M148.856 9.3623C148.864 9.53214 148.869 9.7031 148.869 9.87507V40.8751C148.869 46.3979 144.392 50.8751 138.869 50.8751H12.4924C6.96957 50.8751 2.49242 46.3979 2.49242 40.8751V9.89191C2.17281 10.8702 2 11.9149 2 13V44C2 49.5228 6.47716 54 12 54H139.538C145.061 54 149.538 49.5228 149.538 44V13C149.538 11.7166 149.296 10.4897 148.856 9.3623Z" fill="#732D00"/>
<path d="M145.962 7.75012C145.962 3.11854 138.697 1.23696 135.626 0.875122C145.209 0.875122 148.833 4.49354 149.448 6.30275V20.0528C145.762 20.0528 138.205 20.5988 123.462 19.8751C141.962 18.8751 145.962 18.2435 145.962 16.4343V7.75012Z" fill="#AA652E"/>
<path d="M142.94 21.2099C143.476 21.273 143.917 21.2543 144.279 21.2049C144.858 21.2005 145.381 21.1934 145.854 21.1847C145.967 21.5294 145.962 22.2996 145.962 23.875V32.5592C145.962 34.3684 141.821 34.2763 128 35C142.743 35.7237 146.626 36.0454 150.312 36.0454V22.2954C149.77 20.7009 151.901 21.0738 145.854 21.1847C145.693 20.6928 145.289 21.0675 144.279 21.2049C143.862 21.2081 143.417 21.2099 142.94 21.2099Z" fill="#AA652E"/>
<path d="M6.25457 16.8816L11.9618 17.8751L1.88314 18.329V6.75007C4.09457 1.82902 15.7046 0.598755 21.2331 0.598755L35.0546 1.32244C16.626 1.32244 7.17599 5.90577 6.25457 8.19744V16.8816Z" fill="#AA652E"/>
<path fill-rule="evenodd" clip-rule="evenodd" d="M149.79 49.6676C150.562 48.2495 151 46.6239 151 44.8959V11C151 5.47717 146.523 1.00002 141 1.00002H11C5.47716 1.00002 1 5.47718 1 11V15.8947C1.01347 10.3834 5.48546 5.91971 11 5.91971H139.79C145.313 5.91971 149.79 10.3969 149.79 15.9197V49.6676Z" fill="#DA8F34"/>
<path d="M6.46179 30.9539V19.375L1.80478 20.1382V33.8882C12.6 33.6056 19.2048 33.2826 30 33C20.4171 32.7105 7.99751 31.557 6.46179 30.9539Z" fill="#AA652E"/>
<path d="M126 4C126 3.44772 126.448 3 127 3H133C133.552 3 134 3.44772 134 4C134 4.55228 133.552 5 133 5H127C126.448 5 126 4.55228 126 4Z" fill="#FFC37C"/>
<path d="M150 10C150 5.02944 145.971 1 141 1H11C6.02945 1 2 5.02944 2 10V45C2 49.9706 6.02945 54 11 54H141C145.971 54 150 49.9706 150 45V10Z" stroke="#732D00" stroke-width="2"/>
<path d="M118 20L149 23V20.6848L118 20Z" fill="#DC9553"/>
<path d="M30 33L3 36V34L30 33Z" fill="#DC9553"/>
<path d="M128 35L149 38V35.3953L128 35Z" fill="#DC9553"/>
<path d="M13 18L3 21V18.75L13 18Z" fill="#DC9553"/>
<path d="M118 20L149.212 18.6909L149.962 20.8751L118 20Z" fill="#732D00"/>
<path d="M30 33L1.53809 32.4409V34.612L30 33Z" fill="#732D00"/>
<path d="M128 35L149.612 34.875L149.612 37.0234L128 35Z" fill="#732D00"/>
<path d="M13.9618 17.8751L1.66449 16.8751L0.961792 19.8751L13.9618 17.8751Z" fill="#732D00"/>
</svg>
