<svg width="150" height="150" viewBox="0 0 150 150" fill="none" xmlns="http://www.w3.org/2000/svg">
<mask id="path-1-inside-1_427_6192" fill="white">
<path d="M23.8784 61.4863H124.581V128C124.581 130.761 122.343 133 119.581 133H28.8784C26.117 133 23.8784 130.761 23.8784 128V61.4863Z"/>
</mask>
<path d="M23.8784 61.4863H124.581V128C124.581 130.761 122.343 133 119.581 133H28.8784C26.117 133 23.8784 130.761 23.8784 128V61.4863Z" fill="#F9FCFF"/>
<path d="M23.8784 61.4863H124.581V128C124.581 130.761 122.343 133 119.581 133H28.8784C26.117 133 23.8784 130.761 23.8784 128V61.4863Z" fill="#EDE2D1"/>
<path d="M23.8784 61.4863H124.581H23.8784ZM125.581 128C125.581 131.314 122.895 134 119.581 134H28.8784C25.5647 134 22.8784 131.314 22.8784 128H24.8784C24.8784 130.209 26.6693 132 28.8784 132H119.581C121.79 132 123.581 130.209 123.581 128H125.581ZM28.8784 134C25.5647 134 22.8784 131.314 22.8784 128V61.4863H24.8784V128C24.8784 130.209 26.6693 132 28.8784 132V134ZM125.581 61.4863V128C125.581 131.314 122.895 134 119.581 134V132C121.79 132 123.581 130.209 123.581 128V61.4863H125.581Z" fill="#E5DCCE" mask="url(#path-1-inside-1_427_6192)"/>
<mask id="path-3-inside-2_427_6192" fill="white">
<path d="M20.9595 61.4863H127.5V125.081C127.5 127.842 125.261 130.081 122.5 130.081H25.9595C23.198 130.081 20.9595 127.842 20.9595 125.081V61.4863Z"/>
</mask>
<path d="M20.9595 61.4863H127.5V125.081C127.5 127.842 125.261 130.081 122.5 130.081H25.9595C23.198 130.081 20.9595 127.842 20.9595 125.081V61.4863Z" fill="#F2E7D5"/>
<path d="M20.9595 61.4863H127.5H20.9595ZM128.5 125.081C128.5 128.395 125.814 131.081 122.5 131.081H25.9595C22.6458 131.081 19.9595 128.395 19.9595 125.081H21.9595C21.9595 127.29 23.7503 129.081 25.9595 129.081H122.5C124.709 129.081 126.5 127.29 126.5 125.081H128.5ZM25.9595 131.081C22.6458 131.081 19.9595 128.395 19.9595 125.081V61.4863H21.9595V125.081C21.9595 127.29 23.7503 129.081 25.9595 129.081V131.081ZM128.5 61.4863V125.081C128.5 128.395 125.814 131.081 122.5 131.081V129.081C124.709 129.081 126.5 127.29 126.5 125.081V61.4863H128.5Z" fill="#E5DCCE" mask="url(#path-3-inside-2_427_6192)"/>
<mask id="path-5-inside-3_427_6192" fill="white">
<path d="M19.5 57.1079H128.959V117.162C128.959 122.685 124.482 127.162 118.959 127.162H24.5C21.7386 127.162 19.5 124.923 19.5 122.162V57.1079Z"/>
</mask>
<path d="M19.5 57.1079H128.959V117.162C128.959 122.685 124.482 127.162 118.959 127.162H24.5C21.7386 127.162 19.5 124.923 19.5 122.162V57.1079Z" fill="url(#paint0_linear_427_6192)"/>
<path d="M19.5 57.1079H128.959H19.5ZM129.959 117.162C129.959 123.237 125.035 128.162 118.959 128.162H24.5C21.1863 128.162 18.5 125.476 18.5 122.162H20.5C20.5 124.371 22.2909 126.162 24.5 126.162H118.959C123.93 126.162 127.959 122.133 127.959 117.162H129.959ZM24.5 128.162C21.1863 128.162 18.5 125.476 18.5 122.162V57.1079H20.5V122.162C20.5 124.371 22.2909 126.162 24.5 126.162V128.162ZM129.959 57.1079V117.162C129.959 123.237 125.035 128.162 118.959 128.162V126.162C123.93 126.162 127.959 122.133 127.959 117.162V57.1079H129.959Z" fill="#E5DCCE" mask="url(#path-5-inside-3_427_6192)"/>
<path d="M119.743 122.324C119.225 124.601 117.473 126.014 116.5 126.5C128.5 126.5 128.486 118.135 128 114C127.757 114.973 126.6 116.68 125 117C121.351 117.73 120.5 119 119.743 122.324Z" fill="#E5DCCE"/>
<path d="M19.5 37.2974C19.5 34.5359 21.7386 32.2974 24.5 32.2974H123.959C126.721 32.2974 128.959 34.5359 128.959 37.2974V57.1082H19.5V37.2974Z" fill="url(#paint1_linear_427_6192)"/>
<circle cx="46.4997" cy="44.7028" r="6.56757" fill="#A9987E"/>
<rect x="42.8511" y="25" width="7.2973" height="23.3514" rx="3.64865" fill="url(#paint2_linear_427_6192)"/>
<circle cx="102.067" cy="44.7028" r="6.56757" fill="#A9987E"/>
<rect x="98.5" y="25" width="7.2973" height="23.3514" rx="3.64865" fill="url(#paint3_linear_427_6192)"/>
<path d="M88.0947 77.54L60.365 105.27" stroke="#CEB898" stroke-width="6" stroke-linecap="round" stroke-linejoin="round"/>
<path d="M60.365 77.54L88.0947 105.27" stroke="#CEB898" stroke-width="6" stroke-linecap="round" stroke-linejoin="round"/>
<defs>
<linearGradient id="paint0_linear_427_6192" x1="74.2297" y1="57.1079" x2="74.2297" y2="127.162" gradientUnits="userSpaceOnUse">
<stop stop-color="#FDF9F2"/>
<stop offset="1" stop-color="#F6ECDC"/>
</linearGradient>
<linearGradient id="paint1_linear_427_6192" x1="69.1216" y1="32.2974" x2="69.1216" y2="57.1082" gradientUnits="userSpaceOnUse">
<stop stop-color="#D3C5B1"/>
<stop offset="1" stop-color="#D2BEA1"/>
</linearGradient>
<linearGradient id="paint2_linear_427_6192" x1="46.4997" y1="25" x2="46.4997" y2="48.3514" gradientUnits="userSpaceOnUse">
<stop stop-color="white"/>
<stop offset="1" stop-color="#F2E7D5"/>
</linearGradient>
<linearGradient id="paint3_linear_427_6192" x1="102.149" y1="25" x2="102.149" y2="48.3514" gradientUnits="userSpaceOnUse">
<stop stop-color="white"/>
<stop offset="1" stop-color="#F2E7D5"/>
</linearGradient>
</defs>
</svg>
