<svg width="152" height="150" viewBox="0 0 152 150" fill="none" xmlns="http://www.w3.org/2000/svg">
<path d="M135.5 126.5H139V123V43C139 38.3056 135.194 34.5 130.5 34.5H21.5C16.8056 34.5 13 38.3056 13 43V123V126.5H16.5H135.5Z" fill="url(#paint0_linear_427_6212)" stroke="#E6D6BE" stroke-width="7"/>
<g clip-path="url(#clip0_427_6212)">
<path d="M63.824 102.307C64.8645 102.908 66.1953 102.551 66.796 101.51L70.8636 94.4652C71.4645 93.4244 71.108 92.0939 70.0674 91.493C69.0268 90.8922 67.6961 91.2487 67.0952 92.2894L63.0276 99.3347C62.4267 100.375 62.7834 101.706 63.824 102.307Z" fill="url(#paint1_angular_427_6212)"/>
<path d="M82.9324 69.2102C83.973 69.8111 85.3037 69.4545 85.9044 68.4138L89.9721 61.3685C90.573 60.3277 90.2164 58.9972 89.1759 58.3963C88.1353 57.7955 86.8046 58.152 86.2037 59.1928L82.136 66.238C81.5352 67.2786 81.8919 68.6095 82.9324 69.2102Z" fill="url(#paint2_angular_427_6212)"/>
<path d="M55.733 94.8929C56.4221 95.8771 57.7789 96.1163 58.7631 95.4272L65.4272 90.7609C66.4116 90.0716 66.6508 88.715 65.9615 87.7308C65.2724 86.7466 63.9156 86.5072 62.9312 87.1965L56.2671 91.8628C55.2829 92.5519 55.0439 93.9085 55.733 94.8929Z" fill="url(#paint3_angular_427_6212)"/>
<path d="M86.8937 73.09C87.5828 74.0742 88.9396 74.3135 89.9238 73.6243L96.5879 68.9581C97.5723 68.2688 97.8115 66.9122 97.1222 65.928C96.433 64.9438 95.0763 64.7044 94.0919 65.3937L87.4278 70.0599C86.4436 70.7491 86.2046 72.1058 86.8937 73.09Z" fill="url(#paint4_angular_427_6212)"/>
<path d="M51.5334 84.7541C51.742 85.9373 52.8706 86.7276 54.0539 86.5188L62.0656 85.1062C63.249 84.8975 64.0391 83.7692 63.8305 82.5857C63.6219 81.4025 62.4935 80.6122 61.31 80.8208L53.2983 82.2334C52.1151 82.442 51.3248 83.5708 51.5334 84.7541Z" fill="url(#paint5_angular_427_6212)"/>
<path d="M89.1695 78.1177C89.3781 79.3009 90.5066 80.0912 91.69 79.8824L99.7017 78.4698C100.885 78.261 101.675 77.1328 101.467 75.9493C101.258 74.7661 100.13 73.9758 98.9461 74.1844L90.9344 75.597C89.7512 75.8056 88.9608 76.9344 89.1695 78.1177Z" fill="url(#paint6_angular_427_6212)"/>
<path d="M52.012 73.7901C51.7011 74.9509 52.3899 76.1438 53.5506 76.4547L61.4087 78.5603C62.5694 78.8714 63.7623 78.1827 64.0734 77.0219C64.3843 75.8612 63.6957 74.6683 62.535 74.3572L54.6769 72.2516C53.5162 71.9407 52.3231 72.6296 52.012 73.7901Z" fill="url(#paint7_angular_427_6212)"/>
<path d="M88.9266 83.6814C88.6157 84.8422 89.3045 86.0351 90.465 86.346L98.3231 88.4516C99.4838 88.7627 100.677 88.074 100.988 86.9133C101.299 85.7525 100.61 84.5596 99.4494 84.2485L91.5913 82.1429C90.4306 81.832 89.2375 82.5207 88.9266 83.6814Z" fill="url(#paint8_angular_427_6212)"/>
<path d="M57.0794 64.056C56.3071 64.9764 56.4271 66.3488 57.3477 67.1211L63.5796 72.3504C64.5003 73.1229 65.8725 73.0027 66.6448 72.0823C67.4171 71.1619 67.2971 69.7894 66.3767 69.0171L60.1447 63.7879C59.2243 63.0156 57.8517 63.1355 57.0794 64.056Z" fill="url(#paint9_angular_427_6212)"/>
<path d="M86.355 88.6213C85.5828 89.5417 85.7027 90.914 86.6231 91.6865L92.8551 96.9157C93.7757 97.6882 95.148 97.568 95.9203 96.6476C96.6926 95.7272 96.5726 94.3547 95.6522 93.5825L89.4202 88.3532C88.4998 87.5809 87.1273 87.7007 86.355 88.6213Z" fill="url(#paint10_angular_427_6212)"/>
<path d="M65.7857 57.3753C64.6967 57.8832 64.2256 59.1776 64.7333 60.2666L68.1714 67.6396C68.6793 68.7286 69.9737 69.1998 71.0627 68.6919C72.1517 68.1841 72.6229 66.8897 72.1151 65.8005L68.677 58.4275C68.1691 57.3385 66.8747 56.8675 65.7857 57.3753Z" fill="url(#paint11_angular_427_6212)"/>
<path d="M81.9368 92.0115C80.8478 92.5193 80.3766 93.8137 80.8844 94.9028L84.3225 102.276C84.8304 103.365 86.1248 103.836 87.2138 103.328C88.3028 102.82 88.774 101.526 88.2662 100.437L84.8281 93.0637C84.3202 91.9746 83.0258 91.5038 81.9368 92.0115Z" fill="url(#paint12_angular_427_6212)"/>
<path d="M76.4998 55C75.2983 55 74.3241 55.9742 74.3241 57.1757V65.3109C74.3241 66.5125 75.2983 67.4867 76.4998 67.4867C77.7014 67.4867 78.6756 66.5125 78.6756 65.3109V57.1757C78.6756 55.9742 77.7014 55 76.4998 55Z" fill="url(#paint13_angular_427_6212)"/>
<path d="M76.4998 93.2167C75.2983 93.2167 74.3241 94.1909 74.3241 95.3925V103.528C74.3241 104.729 75.2983 105.703 76.4998 105.703C77.7014 105.703 78.6756 104.729 78.6756 103.528V95.3925C78.6756 94.1909 77.7014 93.2167 76.4998 93.2167Z" fill="url(#paint14_angular_427_6212)"/>
</g>
<path d="M0.5 128C0.5 125.239 2.73858 123 5.5 123H146.5C149.261 123 151.5 125.239 151.5 128V133H0.5V128Z" fill="url(#paint15_linear_427_6212)"/>
<path d="M107 116H128V120C128 121.657 126.657 123 125 123H110C108.343 123 107 121.657 107 120V116Z" fill="#AC916A"/>
<path d="M106 116C106 115.448 106.448 115 107 115H128C128.552 115 129 115.448 129 116V117C129 118.105 128.105 119 127 119H108C106.895 119 106 118.105 106 117V116Z" fill="#675B4A"/>
<defs>
<linearGradient id="paint0_linear_427_6212" x1="76" y1="38" x2="76" y2="123" gradientUnits="userSpaceOnUse">
<stop stop-color="#FDF9F2"/>
<stop offset="1" stop-color="#F6ECDC"/>
</linearGradient>
<radialGradient id="paint1_angular_427_6212" cx="0" cy="0" r="1" gradientUnits="userSpaceOnUse" gradientTransform="translate(76.5 80.3517) rotate(-77.0874) scale(29.0873 28.6837)">
<stop stop-color="#CEB898" stop-opacity="0"/>
<stop offset="1" stop-color="#CEB898"/>
</radialGradient>
<radialGradient id="paint2_angular_427_6212" cx="0" cy="0" r="1" gradientUnits="userSpaceOnUse" gradientTransform="translate(76.5 80.3517) rotate(-77.0874) scale(29.0873 28.6837)">
<stop stop-color="#CEB898" stop-opacity="0"/>
<stop offset="1" stop-color="#CEB898"/>
</radialGradient>
<radialGradient id="paint3_angular_427_6212" cx="0" cy="0" r="1" gradientUnits="userSpaceOnUse" gradientTransform="translate(76.5 80.3517) rotate(-77.0874) scale(29.0873 28.6837)">
<stop stop-color="#CEB898" stop-opacity="0"/>
<stop offset="1" stop-color="#CEB898"/>
</radialGradient>
<radialGradient id="paint4_angular_427_6212" cx="0" cy="0" r="1" gradientUnits="userSpaceOnUse" gradientTransform="translate(76.5 80.3517) rotate(-77.0874) scale(29.0873 28.6837)">
<stop stop-color="#CEB898" stop-opacity="0"/>
<stop offset="1" stop-color="#CEB898"/>
</radialGradient>
<radialGradient id="paint5_angular_427_6212" cx="0" cy="0" r="1" gradientUnits="userSpaceOnUse" gradientTransform="translate(76.5 80.3517) rotate(-77.0874) scale(29.0873 28.6837)">
<stop stop-color="#CEB898" stop-opacity="0"/>
<stop offset="1" stop-color="#CEB898"/>
</radialGradient>
<radialGradient id="paint6_angular_427_6212" cx="0" cy="0" r="1" gradientUnits="userSpaceOnUse" gradientTransform="translate(76.5 80.3517) rotate(-77.0874) scale(29.0873 28.6837)">
<stop stop-color="#CEB898" stop-opacity="0"/>
<stop offset="1" stop-color="#CEB898"/>
</radialGradient>
<radialGradient id="paint7_angular_427_6212" cx="0" cy="0" r="1" gradientUnits="userSpaceOnUse" gradientTransform="translate(76.5 80.3517) rotate(-77.0874) scale(29.0873 28.6837)">
<stop stop-color="#CEB898" stop-opacity="0"/>
<stop offset="1" stop-color="#CEB898"/>
</radialGradient>
<radialGradient id="paint8_angular_427_6212" cx="0" cy="0" r="1" gradientUnits="userSpaceOnUse" gradientTransform="translate(76.5 80.3517) rotate(-77.0874) scale(29.0873 28.6837)">
<stop stop-color="#CEB898" stop-opacity="0"/>
<stop offset="1" stop-color="#CEB898"/>
</radialGradient>
<radialGradient id="paint9_angular_427_6212" cx="0" cy="0" r="1" gradientUnits="userSpaceOnUse" gradientTransform="translate(76.5 80.3517) rotate(-77.0874) scale(29.0873 28.6837)">
<stop stop-color="#CEB898" stop-opacity="0"/>
<stop offset="1" stop-color="#CEB898"/>
</radialGradient>
<radialGradient id="paint10_angular_427_6212" cx="0" cy="0" r="1" gradientUnits="userSpaceOnUse" gradientTransform="translate(76.5 80.3517) rotate(-77.0874) scale(29.0873 28.6837)">
<stop stop-color="#CEB898" stop-opacity="0"/>
<stop offset="1" stop-color="#CEB898"/>
</radialGradient>
<radialGradient id="paint11_angular_427_6212" cx="0" cy="0" r="1" gradientUnits="userSpaceOnUse" gradientTransform="translate(76.5 80.3517) rotate(-77.0874) scale(29.0873 28.6837)">
<stop stop-color="#CEB898" stop-opacity="0"/>
<stop offset="1" stop-color="#CEB898"/>
</radialGradient>
<radialGradient id="paint12_angular_427_6212" cx="0" cy="0" r="1" gradientUnits="userSpaceOnUse" gradientTransform="translate(76.5 80.3517) rotate(-77.0874) scale(29.0873 28.6837)">
<stop stop-color="#CEB898" stop-opacity="0"/>
<stop offset="1" stop-color="#CEB898"/>
</radialGradient>
<radialGradient id="paint13_angular_427_6212" cx="0" cy="0" r="1" gradientUnits="userSpaceOnUse" gradientTransform="translate(76.5 80.3517) rotate(-77.0874) scale(29.0873 28.6837)">
<stop stop-color="#CEB898" stop-opacity="0"/>
<stop offset="1" stop-color="#CEB898"/>
</radialGradient>
<radialGradient id="paint14_angular_427_6212" cx="0" cy="0" r="1" gradientUnits="userSpaceOnUse" gradientTransform="translate(76.5 80.3517) rotate(-77.0874) scale(29.0873 28.6837)">
<stop stop-color="#CEB898" stop-opacity="0"/>
<stop offset="1" stop-color="#CEB898"/>
</radialGradient>
<linearGradient id="paint15_linear_427_6212" x1="68.9533" y1="123" x2="68.9533" y2="133" gradientUnits="userSpaceOnUse">
<stop stop-color="#D3C5B1"/>
<stop offset="1" stop-color="#D2BEA1"/>
</linearGradient>
<clipPath id="clip0_427_6212">
<rect width="50" height="50.7034" fill="white" transform="translate(51.5 55)"/>
</clipPath>
</defs>
</svg>
