<svg width="152" height="150" viewBox="0 0 152 150" fill="none" xmlns="http://www.w3.org/2000/svg">
<path d="M135.5 126.5H139V123V43C139 38.3056 135.194 34.5 130.5 34.5H21.5C16.8056 34.5 13 38.3056 13 43V123V126.5H16.5H135.5Z" fill="url(#paint0_linear_427_6236)" stroke="#E6D6BE" stroke-width="7"/>
<path d="M62.6836 69.366C62.6836 68.662 62.8816 68.057 63.2776 67.551C63.6736 67.045 64.1576 66.671 64.7296 66.429C65.3236 66.165 65.9066 66.033 66.4786 66.033C67.2706 66.033 68.0186 66.209 68.7226 66.561C69.4266 66.891 69.9326 67.364 70.2406 67.98L78.2926 84.48V69.135C78.2926 68.167 78.5786 67.408 79.1506 66.858C79.7446 66.286 80.4596 66 81.2956 66C82.1316 66 82.8356 66.286 83.4076 66.858C84.0016 67.408 84.2986 68.167 84.2986 69.135V92.697C84.2986 93.379 84.1116 93.962 83.7376 94.446C83.3636 94.93 82.8906 95.293 82.3186 95.535C81.7466 95.777 81.1856 95.898 80.6356 95.898C79.8216 95.898 79.0406 95.722 78.2926 95.37C77.5446 95.04 77.0276 94.567 76.7416 93.951L68.6896 77.319V95.469H62.6836V69.366Z" fill="#CEB898"/>
<path d="M54.9259 77.9788C55.8059 77.9788 56.4659 78.2758 56.9059 78.8698C57.3679 79.4638 57.5989 80.1348 57.5989 80.8828C57.5989 81.6308 57.3789 82.2908 56.9389 82.8628C56.4989 83.4128 55.8279 83.6878 54.9259 83.6878H45.9169V88.7368C45.9169 89.1328 45.9829 89.3968 46.1149 89.5288C46.2469 89.6388 46.4999 89.6938 46.8739 89.6938H55.5529C56.4549 89.6938 57.1259 89.9798 57.5659 90.5518C58.0059 91.1018 58.2259 91.7618 58.2259 92.5318C58.2259 93.3018 57.9949 93.9838 57.5329 94.5778C57.0929 95.1718 56.4329 95.4688 55.5529 95.4688H44.2999C42.9799 95.4688 41.9459 95.2928 41.1979 94.9408C40.4499 94.6108 39.9219 94.0718 39.6139 93.3238C39.3059 92.5758 39.1519 91.5528 39.1519 90.2548V71.7418C39.1519 70.4438 39.3059 69.4208 39.6139 68.6728C39.9219 67.9248 40.4499 67.3858 41.1979 67.0558C41.9459 66.7038 42.9799 66.5278 44.2999 66.5278H55.2229C56.1029 66.5278 56.7629 66.8248 57.2029 67.4188C57.6649 68.0128 57.8959 68.6948 57.8959 69.4648C57.8959 70.2348 57.6759 70.9058 57.2359 71.4778C56.7959 72.0278 56.1249 72.3028 55.2229 72.3028H46.8739C46.4999 72.3028 46.2469 72.3688 46.1149 72.5008C45.9829 72.6108 45.9169 72.8638 45.9169 73.2598V77.9788H54.9259Z" fill="#CEB898"/>
<path d="M106.374 67.7493C104.614 66.9353 102.7 66.5283 100.632 66.5283H95.7149C94.3949 66.5283 93.3609 66.7043 92.6129 67.0563C91.8649 67.3863 91.3369 67.9253 91.0289 68.6733C90.7209 69.4213 90.5669 70.4443 90.5669 71.7423V89.6873C90.5669 94.6873 97.2989 94.6873 97.2989 89.6873V73.1943C97.2989 72.7983 97.3649 72.5453 97.4969 72.4353C97.6289 72.3033 97.8819 72.2373 98.2559 72.2373H100.434C102.018 72.2373 103.272 72.7653 104.196 73.8213C105.142 74.8553 105.615 76.3183 105.615 78.2103V83.7873C105.615 84.476 105.552 85.1093 105.427 85.6873H111.5C111.599 84.9245 112.347 84.5431 112.347 83.6873V78.7383C112.347 75.8563 111.786 73.5023 110.664 71.6763C109.564 69.8503 108.134 68.5413 106.374 67.7493Z" fill="#CEB898"/>
<path d="M110 89.1868C112 88.1872 112.347 87.1873 112.347 83.6873C110.514 83.1873 106.3 83.1871 105.5 85.1871C104.7 87.1871 105.5 88.1871 106 88.6871C106.5 89.1871 108.176 90.0986 110 89.1868Z" fill="#CEB898"/>
<path d="M0.5 128C0.5 125.239 2.73858 123 5.5 123H146.5C149.261 123 151.5 125.239 151.5 128V133H0.5V128Z" fill="url(#paint1_linear_427_6236)"/>
<path d="M107.206 85.1021L123.466 105.287L119.541 112.016L104.709 89.5877C103.281 86.7842 105.524 84.5414 107.206 85.1021Z" fill="url(#paint2_linear_427_6236)"/>
<g filter="url(#filter0_d_427_6236)">
<path d="M104 87.5001C104 85.1001 106.5 85.5 107 85.5L107.5 88.0001C106.333 88.8334 104 89.9001 104 87.5001Z" fill="black"/>
</g>
<path d="M107.206 85.1021L127.952 95.1947L124.027 101.923L104.709 89.5876C102.754 86.5156 105.254 84.5156 107.206 85.1021Z" fill="#F8F8F8"/>
<mask id="mask0_427_6236" style="mask-type:alpha" maskUnits="userSpaceOnUse" x="104" y="85" width="24" height="17">
<path d="M107.206 85.1021L127.952 95.1947L124.027 101.923L104.709 89.5876C102.754 86.5156 105.254 84.5156 107.206 85.1021Z" fill="#E8E8E8"/>
</mask>
<g mask="url(#mask0_427_6236)">
<g filter="url(#filter1_f_427_6236)">
<path d="M130 103L103 88L102 86.5L131 101.5L130 103Z" fill="#E8E8E8"/>
</g>
</g>
<ellipse cx="126.284" cy="98.7291" rx="3.3999" ry="3.96655" transform="rotate(37.4692 126.284 98.7291)" fill="url(#paint3_linear_427_6236)"/>
<path d="M107 116H128V120C128 121.657 126.657 123 125 123H110C108.343 123 107 121.657 107 120V116Z" fill="#AC916A"/>
<path d="M106 116C106 115.448 106.448 115 107 115H128C128.552 115 129 115.448 129 116V117C129 118.105 128.105 119 127 119H108C106.895 119 106 118.105 106 117V116Z" fill="#675B4A"/>
<defs>
<filter id="filter0_d_427_6236" x="103" y="85.4751" width="5.5" height="5.49658" filterUnits="userSpaceOnUse" color-interpolation-filters="sRGB">
<feFlood flood-opacity="0" result="BackgroundImageFix"/>
<feColorMatrix in="SourceAlpha" type="matrix" values="0 0 0 0 0 0 0 0 0 0 0 0 0 0 0 0 0 0 127 0" result="hardAlpha"/>
<feOffset dy="1"/>
<feGaussianBlur stdDeviation="0.5"/>
<feComposite in2="hardAlpha" operator="out"/>
<feColorMatrix type="matrix" values="0 0 0 0 0 0 0 0 0 0 0 0 0 0 0 0 0 0 0.25 0"/>
<feBlend mode="normal" in2="BackgroundImageFix" result="effect1_dropShadow_427_6236"/>
<feBlend mode="normal" in="SourceGraphic" in2="effect1_dropShadow_427_6236" result="shape"/>
</filter>
<filter id="filter1_f_427_6236" x="101" y="85.5" width="31" height="18.5" filterUnits="userSpaceOnUse" color-interpolation-filters="sRGB">
<feFlood flood-opacity="0" result="BackgroundImageFix"/>
<feBlend mode="normal" in="SourceGraphic" in2="BackgroundImageFix" result="shape"/>
<feGaussianBlur stdDeviation="0.5" result="effect1_foregroundBlur_427_6236"/>
</filter>
<linearGradient id="paint0_linear_427_6236" x1="76" y1="38" x2="76" y2="123" gradientUnits="userSpaceOnUse">
<stop stop-color="#FDF9F2"/>
<stop offset="1" stop-color="#F6ECDC"/>
</linearGradient>
<linearGradient id="paint1_linear_427_6236" x1="68.9533" y1="123" x2="68.9533" y2="133" gradientUnits="userSpaceOnUse">
<stop stop-color="#D3C5B1"/>
<stop offset="1" stop-color="#D2BEA1"/>
</linearGradient>
<linearGradient id="paint2_linear_427_6236" x1="121.784" y1="107.53" x2="104.963" y2="86.7842" gradientUnits="userSpaceOnUse">
<stop stop-color="#B1A089" stop-opacity="0"/>
<stop offset="1" stop-color="#B1A089"/>
</linearGradient>
<linearGradient id="paint3_linear_427_6236" x1="130.545" y1="98.7814" x2="124.152" y2="98.7361" gradientUnits="userSpaceOnUse">
<stop stop-color="#F2F1F1"/>
<stop offset="1" stop-color="#E8E8E8"/>
</linearGradient>
</defs>
</svg>
