<svg width="70" height="70" viewBox="0 0 70 70" fill="none" xmlns="http://www.w3.org/2000/svg">
<rect width="70" height="70" rx="10" transform="matrix(-1 0 0 1 70 0)" fill="#C17633"/>
<path d="M65.4999 56.6447V45.1316H69L69.5 60.7895C68.7 67.0526 63.8333 68.6184 61.5 68.6184C48.8333 68.4649 21.5 68.25 13.5 68.6184C5.5 68.9868 1.83334 65.3947 1 63.5526V43.75H5V57.5658C5 62.7237 11.6667 63.7061 15 63.5526H55.9999C64.3999 63.5526 65.8333 58.9474 65.4999 56.6447Z" fill="#C17633"/>
<path fill-rule="evenodd" clip-rule="evenodd" d="M69 55.3334V59.079C69 64.6019 64.5228 69.079 59 69.079H11C5.47715 69.079 1 64.6019 1 59.0791V13.6843C1 12.0982 1.36927 10.5983 2.02654 9.26599C2.00895 9.5084 2 9.75321 2 10.0001V55.3334C2 60.8563 6.47715 65.3334 12 65.3334H59C64.5228 65.3334 69 60.8563 69 55.3334Z" fill="#904913"/>
<path d="M66 10.1316C66 4.23685 62.6667 1.84212 61 1.38159C66.2 1.38159 68.1667 5.98685 68.5 8.28949V25.7895C66.5 25.7895 60.5 25.7895 52.5 24.8684C62.5 23.9474 66 23.4869 66 21.1842V10.1316Z" fill="#C17633"/>
<path d="M64.5 26.7105C64.7701 26.7852 64.9921 26.7655 65.1744 26.7051C65.4715 26.7002 65.7421 26.6923 65.9887 26.6824C66.0159 27.1522 66 28.1119 66 29.9342V40.9869C66 43.2895 65.5 44.2106 58 45.1316C66 46.0527 66.5 45.5921 68.5 45.5921V28.0921C68.2035 26.0439 69.3839 26.5464 65.9887 26.6824C65.9421 25.8787 65.7692 26.5082 65.1744 26.7051C64.9632 26.7086 64.7387 26.7105 64.5 26.7105Z" fill="#C17633"/>
<path d="M4.5 21.6447L10.5 23.0263L0.5 23.4868V8.74997C1.7 2.48681 8 0.921021 11 0.921021L18.5 1.84207C8.5 1.84207 5 7.67541 4.5 10.5921V21.6447Z" fill="#C17633"/>
<path fill-rule="evenodd" clip-rule="evenodd" d="M68 15.5264V10C68 4.4772 63.5228 4.673e-05 58 4.673e-05H12C6.47715 4.673e-05 2 4.4772 2 10V15.5264C2 10.0035 6.47715 5.52636 12 5.52636H58C63.5228 5.52636 68 10.0035 68 15.5264Z" fill="#DA8F34"/>
<path d="M5 39.6052V24.8684L1 25.7895V43.2895L16 42.3684C10.8 42 5.83333 40.3728 5 39.6052Z" fill="#C17633"/>
<path d="M69 10C69 5.02944 64.9706 1 60 1H10C5.02943 1 1 5.02944 1 10V60C1 64.9706 5.02943 69 10 69H60C64.9706 69 69 64.9706 69 60V10Z" stroke="#732D00" stroke-width="2"/>
<path d="M51 24.8684L68 29.0131V25.7895L51 24.8684Z" fill="#CD915C"/>
<path d="M21.0001 42.3684L2 46.0526V42.8289L21.0001 42.3684Z" fill="#CD915C"/>
<path d="M57 45.1316L68 48.8158V45.5921L57 45.1316Z" fill="#CD915C"/>
<path d="M13 23.0264L2 26.7106V23.9474L13 23.0264Z" fill="#CD915C"/>
<path d="M50.5 24.8684L68 23.9474L69 26.7105L50.5 24.8684Z" fill="#732D00"/>
<path d="M22 42.3684L0.5 41.4474V44.2105L22 42.3684Z" fill="#732D00"/>
<path d="M57 45.1316L68.3514 44.2106L69 46.9737L57 45.1316Z" fill="#732D00"/>
<path d="M13 23.0263L1.64865 22.1052L1 24.8684L13 23.0263Z" fill="#732D00"/>
<rect x="51" y="2.76318" width="8" height="1.84211" rx="0.921053" fill="#FFC37C"/>
<mask id="path-19-outside-1_358_18921" maskUnits="userSpaceOnUse" x="16" y="16" width="38" height="38" fill="black">
<rect fill="white" x="16" y="16" width="38" height="38"/>
<path fill-rule="evenodd" clip-rule="evenodd" d="M26 33.3333C26 29.2832 29.2832 26 33.3333 26C37.3834 26 40.6667 29.2832 40.6667 33.3333C40.6667 35.2628 39.9215 37.0183 38.7032 38.3276C38.6371 38.3856 38.5725 38.4461 38.5095 38.5091C38.4464 38.5722 38.3858 38.6368 38.3279 38.703C37.0185 39.9214 35.263 40.6667 33.3333 40.6667C29.2832 40.6667 26 37.3834 26 33.3333ZM40.9739 46.6304C38.7245 47.9257 36.1154 48.6667 33.3333 48.6667C24.865 48.6667 18 41.8017 18 33.3333C18 24.865 24.865 18 33.3333 18C41.8017 18 48.6667 24.865 48.6667 33.3333C48.6667 36.1152 47.9258 38.7241 46.6307 40.9734L50.3288 44.6716C51.8909 46.2337 51.8909 48.7664 50.3288 50.3285C48.7667 51.8905 46.2341 51.8905 44.672 50.3285L40.9739 46.6304Z"/>
</mask>
<path fill-rule="evenodd" clip-rule="evenodd" d="M26 33.3333C26 29.2832 29.2832 26 33.3333 26C37.3834 26 40.6667 29.2832 40.6667 33.3333C40.6667 35.2628 39.9215 37.0183 38.7032 38.3276C38.6371 38.3856 38.5725 38.4461 38.5095 38.5091C38.4464 38.5722 38.3858 38.6368 38.3279 38.703C37.0185 39.9214 35.263 40.6667 33.3333 40.6667C29.2832 40.6667 26 37.3834 26 33.3333ZM40.9739 46.6304C38.7245 47.9257 36.1154 48.6667 33.3333 48.6667C24.865 48.6667 18 41.8017 18 33.3333C18 24.865 24.865 18 33.3333 18C41.8017 18 48.6667 24.865 48.6667 33.3333C48.6667 36.1152 47.9258 38.7241 46.6307 40.9734L50.3288 44.6716C51.8909 46.2337 51.8909 48.7664 50.3288 50.3285C48.7667 51.8905 46.2341 51.8905 44.672 50.3285L40.9739 46.6304Z" fill="#0EEB92"/>
<path d="M38.7032 38.3276L40.022 39.8312C40.0728 39.7866 40.1213 39.7395 40.1674 39.69L38.7032 38.3276ZM38.3279 38.703L39.6903 40.1671C39.7398 40.121 39.7869 40.0725 39.8315 40.0217L38.3279 38.703ZM40.9739 46.6304L42.3881 45.2162C41.7486 44.5767 40.7596 44.4459 39.9759 44.8972L40.9739 46.6304ZM46.6307 40.9734L44.8975 39.9755C44.4462 40.7592 44.577 41.7482 45.2165 42.3877L46.6307 40.9734ZM50.3288 44.6716L51.743 43.2574L50.3288 44.6716ZM50.3288 50.3285L51.743 51.7427L51.743 51.7427L50.3288 50.3285ZM44.672 50.3285L43.2578 51.7427L44.672 50.3285ZM33.3333 24C28.1787 24 24 28.1787 24 33.3333H28C28 30.3878 30.3878 28 33.3333 28V24ZM42.6667 33.3333C42.6667 28.1787 38.488 24 33.3333 24V28C36.2789 28 38.6667 30.3878 38.6667 33.3333H42.6667ZM40.1674 39.69C41.7164 38.0253 42.6667 35.788 42.6667 33.3333H38.6667C38.6667 34.7376 38.1266 36.0113 37.239 36.9652L40.1674 39.69ZM39.9237 39.9233C39.9559 39.8911 39.9886 39.8605 40.022 39.8312L37.3844 36.824C37.2856 36.9107 37.1891 37.001 37.0953 37.0949L39.9237 39.9233ZM39.8315 40.0217C39.8608 39.9883 39.8915 39.9555 39.9237 39.9233L37.0953 37.0949C37.0013 37.1888 36.9109 37.2854 36.8242 37.3843L39.8315 40.0217ZM33.3333 42.6667C35.7882 42.6667 38.0255 41.7163 39.6903 40.1671L36.9654 37.2388C36.0115 38.1265 34.7377 38.6667 33.3333 38.6667V42.6667ZM24 33.3333C24 38.488 28.1787 42.6667 33.3333 42.6667V38.6667C30.3878 38.6667 28 36.2789 28 33.3333H24ZM39.9759 44.8972C38.0219 46.0224 35.7559 46.6667 33.3333 46.6667V50.6667C36.475 50.6667 39.4271 49.829 41.972 48.3636L39.9759 44.8972ZM33.3333 46.6667C25.9695 46.6667 20 40.6971 20 33.3333H16C16 42.9063 23.7604 50.6667 33.3333 50.6667V46.6667ZM20 33.3333C20 25.9695 25.9695 20 33.3333 20V16C23.7604 16 16 23.7604 16 33.3333H20ZM33.3333 20C40.6971 20 46.6667 25.9695 46.6667 33.3333H50.6667C50.6667 23.7604 42.9063 16 33.3333 16V20ZM46.6667 33.3333C46.6667 35.7557 46.0225 38.0216 44.8975 39.9755L48.3639 41.9714C49.8292 39.4267 50.6667 36.4748 50.6667 33.3333H46.6667ZM45.2165 42.3877L48.9146 46.0858L51.743 43.2574L48.0449 39.5592L45.2165 42.3877ZM48.9146 46.0858C49.6957 46.8669 49.6957 48.1332 48.9146 48.9142L51.743 51.7427C54.0862 49.3995 54.0862 45.6005 51.743 43.2574L48.9146 46.0858ZM48.9146 48.9142C48.1336 49.6953 46.8672 49.6953 46.0862 48.9142L43.2578 51.7427C45.6009 54.0858 49.3999 54.0858 51.743 51.7427L48.9146 48.9142ZM46.0862 48.9142L42.3881 45.2162L39.5597 48.0446L43.2578 51.7427L46.0862 48.9142Z" fill="url(#paint0_linear_358_18921)" mask="url(#path-19-outside-1_358_18921)"/>
<path fill-rule="evenodd" clip-rule="evenodd" d="M26 33.3333C26 29.2832 29.2832 26 33.3333 26C37.3834 26 40.6667 29.2832 40.6667 33.3333C40.6667 35.2628 39.9215 37.0183 38.7032 38.3276C38.6371 38.3856 38.5725 38.4461 38.5095 38.5091C38.4464 38.5722 38.3858 38.6368 38.3279 38.703C37.0185 39.9214 35.263 40.6667 33.3333 40.6667C29.2832 40.6667 26 37.3834 26 33.3333ZM40.9739 46.6304C38.7245 47.9257 36.1154 48.6667 33.3333 48.6667C24.865 48.6667 18 41.8017 18 33.3333C18 24.865 24.865 18 33.3333 18C41.8017 18 48.6667 24.865 48.6667 33.3333C48.6667 36.1152 47.9258 38.7241 46.6307 40.9734L50.3288 44.6716C51.8909 46.2337 51.8909 48.7664 50.3288 50.3285C48.7667 51.8905 46.2341 51.8905 44.672 50.3285L40.9739 46.6304Z" fill="#0BE983"/>
<path d="M38.7032 38.3276L39.0329 38.7035C39.0456 38.6924 39.0577 38.6806 39.0692 38.6682L38.7032 38.3276ZM38.3279 38.703L38.6685 39.069C38.6808 39.0575 38.6926 39.0453 38.7038 39.0326L38.3279 38.703ZM40.9739 46.6304L41.3275 46.2768C41.1676 46.117 40.9203 46.0843 40.7244 46.1971L40.9739 46.6304ZM46.6307 40.9734L46.1974 40.7239C46.0845 40.9199 46.1172 41.1671 46.2771 41.327L46.6307 40.9734ZM50.3288 44.6716L50.6824 44.318L50.3288 44.6716ZM50.3288 50.3285L50.6824 50.682L50.3288 50.3285ZM44.672 50.3285L44.3184 50.682L44.672 50.3285ZM33.3333 25.5C29.0071 25.5 25.5 29.0071 25.5 33.3333H26.5C26.5 29.5594 29.5594 26.5 33.3333 26.5V25.5ZM41.1667 33.3333C41.1667 29.0071 37.6596 25.5 33.3333 25.5V26.5C37.1073 26.5 40.1667 29.5594 40.1667 33.3333H41.1667ZM39.0692 38.6682C40.3702 37.27 41.1667 35.3941 41.1667 33.3333H40.1667C40.1667 35.1315 39.4727 36.7666 38.3371 37.987L39.0692 38.6682ZM38.863 38.8627C38.9183 38.8073 38.975 38.7543 39.0329 38.7035L38.3735 37.9517C38.2992 38.0168 38.2267 38.0848 38.1559 38.1555L38.863 38.8627ZM38.7038 39.0326C38.7546 38.9747 38.8077 38.918 38.863 38.8627L38.1559 38.1555C38.0851 38.2263 38.0171 38.299 37.9519 38.3733L38.7038 39.0326ZM33.3333 41.1667C35.3943 41.1667 37.2703 40.3701 38.6685 39.069L37.9872 38.3369C36.7668 39.4727 35.1317 40.1667 33.3333 40.1667V41.1667ZM25.5 33.3333C25.5 37.6596 29.0071 41.1667 33.3333 41.1667V40.1667C29.5594 40.1667 26.5 37.1073 26.5 33.3333H25.5ZM40.7244 46.1971C38.5488 47.4499 36.0256 48.1667 33.3333 48.1667V49.1667C36.2053 49.1667 38.9001 48.4016 41.2234 47.0637L40.7244 46.1971ZM33.3333 48.1667C25.1411 48.1667 18.5 41.5256 18.5 33.3333H17.5C17.5 42.0778 24.5888 49.1667 33.3333 49.1667V48.1667ZM18.5 33.3333C18.5 25.1411 25.1411 18.5 33.3333 18.5V17.5C24.5888 17.5 17.5 24.5888 17.5 33.3333H18.5ZM33.3333 18.5C41.5256 18.5 48.1667 25.1411 48.1667 33.3333H49.1667C49.1667 24.5888 42.0778 17.5 33.3333 17.5V18.5ZM48.1667 33.3333C48.1667 36.0254 47.45 38.5485 46.1974 40.7239L47.064 41.2229C48.4017 38.8998 49.1667 36.2051 49.1667 33.3333H48.1667ZM46.2771 41.327L49.9753 45.0252L50.6824 44.318L46.9842 40.6199L46.2771 41.327ZM49.9753 45.0252C51.3421 46.392 51.3421 48.6081 49.9753 49.9749L50.6824 50.682C52.4397 48.9246 52.4397 46.0754 50.6824 44.318L49.9753 45.0252ZM49.9753 49.9749C48.6084 51.3417 46.3924 51.3417 45.0255 49.9749L44.3184 50.682C46.0758 52.4394 48.925 52.4394 50.6824 50.682L49.9753 49.9749ZM45.0255 49.9749L41.3275 46.2768L40.6204 46.984L44.3184 50.682L45.0255 49.9749Z" fill="#732D00"/>
<ellipse cx="24.9997" cy="24.0752" rx="1.39654" ry="2.90196" transform="rotate(42.9732 24.9997 24.0752)" fill="white"/>
<defs>
<linearGradient id="paint0_linear_358_18921" x1="34.7501" y1="18" x2="34.7501" y2="51.5" gradientUnits="userSpaceOnUse">
<stop stop-color="#945114"/>
<stop offset="1" stop-color="#FDBE70"/>
</linearGradient>
</defs>
</svg>
