<svg width="28" height="28" viewBox="0 0 28 28" fill="none" xmlns="http://www.w3.org/2000/svg">
<path d="M26 6V23.1155H15.3855C15.3364 23.1155 14.8099 23.1572 14.8099 23.7648C13.7827 24.0796 13.1961 24.0772 12.1889 23.7648C12.1889 23.1572 11.6614 23.1155 11.6134 23.1155H1V6" stroke="white" stroke-width="2" stroke-linecap="round" stroke-linejoin="round"/>
<path fill-rule="evenodd" clip-rule="evenodd" d="M13 3.58083C12.7613 3.2488 12.4381 3 12.0325 3H4C3.44772 3 3 3.44772 3 4V19.7611C3 20.3134 3.44772 20.7611 4 20.7611H12.0325C12.2904 20.7611 12.4195 20.8261 12.4596 20.857C12.4749 20.8688 12.4788 20.8758 12.4816 20.8816C12.4848 20.8884 12.4994 20.9216 12.4994 21C12.4994 21.5523 12.9471 22 13.4994 22C14.0517 22 14.4994 21.5523 14.4994 21C14.4994 20.9218 14.514 20.8888 14.5172 20.8822C14.5199 20.8765 14.5238 20.8694 14.5393 20.8575C14.5799 20.8263 14.7099 20.7611 14.9686 20.7611H23C23.5523 20.7611 24 20.3134 24 19.7611V4C24 3.44772 23.5523 3 23 3H14.9686C14.5629 3 14.2392 3.24847 14 3.58018L14 18C14 18.2761 13.7761 18.5 13.5 18.5C13.2239 18.5 13 18.2761 13 18L13 3.58083Z" fill="white"/>
</svg>
