<svg width="28" height="28" viewBox="0 0 28 28" fill="none" xmlns="http://www.w3.org/2000/svg">
<g clip-path="url(#clip0_27_596)">
<path d="M25.8222 7.34825L23.5599 5.22426C23.4144 5.08815 23.2256 5.01252 23.0294 5.01252H14.6804V3.20993C14.6804 2.54163 14.1526 2 13.5013 2C12.8501 2 12.3214 2.54163 12.3214 3.20993V23.5981H11.38C10.3797 23.5981 9.56909 24.4299 9.56909 25.4565V25.7552C9.56909 25.8904 9.67502 25.9991 9.80674 25.9991H17.1959C17.3267 25.9991 17.4336 25.8904 17.4336 25.7552V25.4565C17.4336 24.4299 16.623 23.5981 15.6227 23.5981H14.6813V10.5139H23.0303C23.2265 10.5139 23.4162 10.4383 23.5608 10.3022L25.8231 8.17818C26.0607 7.9551 26.0607 7.57133 25.8231 7.34825H25.8222Z" fill="white"/>
<path d="M3.97149 7.76978C3.77529 7.76978 3.58554 7.8454 3.44093 7.98151L1.17775 10.1055C0.9401 10.3286 0.9401 10.7124 1.17775 10.9354L3.44093 13.0594C3.58554 13.1955 3.77529 13.2712 3.97149 13.2712H11.3413V7.77072H3.97149V7.76978Z" fill="white"/>
</g>
<defs>
<clipPath id="clip0_27_596">
<rect width="25" height="24" fill="white" transform="translate(1 2)"/>
</clipPath>
</defs>
</svg>
